<svg width="25" height="25" viewBox="0 0 25 25" fill="none" xmlns="http://www.w3.org/2000/svg">
<path d="M22.9321 12.9533H21.5987C21.5974 15.5413 20.5534 17.872 18.8574 19.5693C17.1601 21.2653 14.8294 22.3093 12.2401 22.3106C9.65207 22.3093 7.32141 21.2653 5.62407 19.5693C3.92807 17.872 2.88406 15.5413 2.88273 12.9533C2.88406 10.3639 3.92807 8.03329 5.62407 6.33595C7.32141 4.63995 9.65207 3.59595 12.2401 3.59461C14.8294 3.59595 17.1601 4.63995 18.8574 6.33595C20.5534 8.03329 21.5974 10.3639 21.5987 12.9533H22.9321H24.2654C24.2641 6.31194 18.8814 0.929281 12.2401 0.927947C5.59874 0.929281 0.217398 6.31194 0.216064 12.9533C0.217398 19.5946 5.59874 24.976 12.2401 24.9773C18.8814 24.976 24.2641 19.5946 24.2654 12.9533H22.9321Z" fill="#272727"/>
</svg>
