<svg width="136" height="199" viewBox="0 0 136 199" fill="none" xmlns="http://www.w3.org/2000/svg">
<path d="M133.729 3.57202C132.837 3.57202 132.115 2.84934 132.115 1.95601C132.115 1.06401 132.837 0.341358 133.729 0.341358C134.621 0.341358 135.345 1.06401 135.345 1.95601C135.345 2.84934 134.621 3.57202 133.729 3.57202Z" fill="#272727"/>
<path d="M133.729 12.0625C132.837 12.0625 132.115 11.3398 132.115 10.4478C132.115 9.55579 132.837 8.83184 133.729 8.83184C134.621 8.83184 135.345 9.55579 135.345 10.4478C135.345 11.3398 134.621 12.0625 133.729 12.0625Z" fill="#272727"/>
<path d="M133.729 20.5544C132.837 20.5544 132.115 19.8318 132.115 18.9398C132.115 18.0465 132.837 17.3238 133.729 17.3238C134.621 17.3238 135.345 18.0465 135.345 18.9398C135.345 19.8318 134.621 20.5544 133.729 20.5544Z" fill="#272727"/>
<path d="M133.729 29.0452C132.837 29.0452 132.115 28.3225 132.115 27.4305C132.115 26.5385 132.837 25.8144 133.729 25.8144C134.621 25.8144 135.345 26.5385 135.345 27.4305C135.345 28.3225 134.621 29.0452 133.729 29.0452Z" fill="#272727"/>
<path d="M133.729 37.5374C132.837 37.5374 132.115 36.8133 132.115 35.9213C132.115 35.0293 132.837 34.3067 133.729 34.3067C134.621 34.3067 135.345 35.0293 135.345 35.9213C135.345 36.8133 134.621 37.5374 133.729 37.5374Z" fill="#272727"/>
<path d="M133.729 46.0278C132.837 46.0278 132.115 45.3052 132.115 44.4132C132.115 43.5199 132.837 42.7972 133.729 42.7972C134.621 42.7972 135.345 43.5199 135.345 44.4132C135.345 45.3052 134.621 46.0278 133.729 46.0278Z" fill="#272727"/>
<path d="M133.729 54.5198C132.837 54.5198 132.115 53.7958 132.115 52.9038C132.115 52.0118 132.837 51.2891 133.729 51.2891C134.621 51.2891 135.345 52.0118 135.345 52.9038C135.345 53.7958 134.621 54.5198 133.729 54.5198Z" fill="#272727"/>
<path d="M125.483 3.57202C124.591 3.57202 123.868 2.84934 123.868 1.95601C123.868 1.06401 124.591 0.341358 125.483 0.341358C126.375 0.341358 127.099 1.06401 127.099 1.95601C127.099 2.84934 126.375 3.57202 125.483 3.57202Z" fill="#272727"/>
<path d="M125.483 12.0625C124.591 12.0625 123.868 11.3398 123.868 10.4478C123.868 9.55579 124.591 8.83184 125.483 8.83184C126.375 8.83184 127.099 9.55579 127.099 10.4478C127.099 11.3398 126.375 12.0625 125.483 12.0625Z" fill="#272727"/>
<path d="M125.483 20.5544C124.591 20.5544 123.868 19.8318 123.868 18.9398C123.868 18.0465 124.591 17.3238 125.483 17.3238C126.375 17.3238 127.099 18.0465 127.099 18.9398C127.099 19.8318 126.375 20.5544 125.483 20.5544Z" fill="#272727"/>
<path d="M125.483 29.0452C124.591 29.0452 123.868 28.3225 123.868 27.4305C123.868 26.5385 124.591 25.8144 125.483 25.8144C126.375 25.8144 127.099 26.5385 127.099 27.4305C127.099 28.3225 126.375 29.0452 125.483 29.0452Z" fill="#272727"/>
<path d="M125.483 37.5374C124.591 37.5374 123.868 36.8133 123.868 35.9213C123.868 35.0293 124.591 34.3067 125.483 34.3067C126.375 34.3067 127.099 35.0293 127.099 35.9213C127.099 36.8133 126.375 37.5374 125.483 37.5374Z" fill="#272727"/>
<path d="M125.483 46.0278C124.591 46.0278 123.868 45.3052 123.868 44.4132C123.868 43.5199 124.591 42.7972 125.483 42.7972C126.375 42.7972 127.099 43.5199 127.099 44.4132C127.099 45.3052 126.375 46.0278 125.483 46.0278Z" fill="#272727"/>
<path d="M125.483 54.5198C124.591 54.5198 123.868 53.7958 123.868 52.9038C123.868 52.0118 124.591 51.2891 125.483 51.2891C126.375 51.2891 127.099 52.0118 127.099 52.9038C127.099 53.7958 126.375 54.5198 125.483 54.5198Z" fill="#272727"/>
<path d="M117.236 3.57202C116.344 3.57202 115.62 2.84934 115.62 1.95601C115.62 1.06401 116.344 0.341358 117.236 0.341358C118.128 0.341358 118.851 1.06401 118.851 1.95601C118.851 2.84934 118.128 3.57202 117.236 3.57202Z" fill="#272727"/>
<path d="M117.236 12.0625C116.344 12.0625 115.62 11.3398 115.62 10.4478C115.62 9.55579 116.344 8.83184 117.236 8.83184C118.128 8.83184 118.851 9.55579 118.851 10.4478C118.851 11.3398 118.128 12.0625 117.236 12.0625Z" fill="#272727"/>
<path d="M117.236 20.5544C116.344 20.5544 115.62 19.8318 115.62 18.9398C115.62 18.0465 116.344 17.3238 117.236 17.3238C118.128 17.3238 118.851 18.0465 118.851 18.9398C118.851 19.8318 118.128 20.5544 117.236 20.5544Z" fill="#272727"/>
<path d="M117.236 29.0452C116.344 29.0452 115.62 28.3225 115.62 27.4305C115.62 26.5385 116.344 25.8144 117.236 25.8144C118.128 25.8144 118.851 26.5385 118.851 27.4305C118.851 28.3225 118.128 29.0452 117.236 29.0452Z" fill="#272727"/>
<path d="M117.236 37.5374C116.344 37.5374 115.62 36.8133 115.62 35.9213C115.62 35.0293 116.344 34.3067 117.236 34.3067C118.128 34.3067 118.851 35.0293 118.851 35.9213C118.851 36.8133 118.128 37.5374 117.236 37.5374Z" fill="#272727"/>
<path d="M117.236 46.0278C116.344 46.0278 115.62 45.3052 115.62 44.4132C115.62 43.5199 116.344 42.7972 117.236 42.7972C118.128 42.7972 118.851 43.5199 118.851 44.4132C118.851 45.3052 118.128 46.0278 117.236 46.0278Z" fill="#272727"/>
<path d="M117.236 54.5198C116.344 54.5198 115.62 53.7958 115.62 52.9038C115.62 52.0118 116.344 51.2891 117.236 51.2891C118.128 51.2891 118.851 52.0118 118.851 52.9038C118.851 53.7958 118.128 54.5198 117.236 54.5198Z" fill="#272727"/>
<path d="M108.989 3.57202C108.096 3.57202 107.373 2.84934 107.373 1.95601C107.373 1.06401 108.096 0.341358 108.989 0.341358C109.881 0.341358 110.604 1.06401 110.604 1.95601C110.604 2.84934 109.881 3.57202 108.989 3.57202Z" fill="#272727"/>
<path d="M108.989 12.0625C108.096 12.0625 107.373 11.3398 107.373 10.4478C107.373 9.55579 108.096 8.83184 108.989 8.83184C109.881 8.83184 110.604 9.55579 110.604 10.4478C110.604 11.3398 109.881 12.0625 108.989 12.0625Z" fill="#272727"/>
<path d="M108.989 20.5544C108.096 20.5544 107.373 19.8318 107.373 18.9398C107.373 18.0465 108.096 17.3238 108.989 17.3238C109.881 17.3238 110.604 18.0465 110.604 18.9398C110.604 19.8318 109.881 20.5544 108.989 20.5544Z" fill="#272727"/>
<path d="M108.989 29.0452C108.096 29.0452 107.373 28.3225 107.373 27.4305C107.373 26.5385 108.096 25.8144 108.989 25.8144C109.881 25.8144 110.604 26.5385 110.604 27.4305C110.604 28.3225 109.881 29.0452 108.989 29.0452Z" fill="#272727"/>
<path d="M108.989 37.5374C108.096 37.5374 107.373 36.8133 107.373 35.9213C107.373 35.0293 108.096 34.3067 108.989 34.3067C109.881 34.3067 110.604 35.0293 110.604 35.9213C110.604 36.8133 109.881 37.5374 108.989 37.5374Z" fill="#272727"/>
<path d="M108.989 46.0278C108.096 46.0278 107.373 45.3052 107.373 44.4132C107.373 43.5199 108.096 42.7972 108.989 42.7972C109.881 42.7972 110.604 43.5199 110.604 44.4132C110.604 45.3052 109.881 46.0278 108.989 46.0278Z" fill="#272727"/>
<path d="M108.989 54.5198C108.096 54.5198 107.373 53.7958 107.373 52.9038C107.373 52.0118 108.096 51.2891 108.989 51.2891C109.881 51.2891 110.604 52.0118 110.604 52.9038C110.604 53.7958 109.881 54.5198 108.989 54.5198Z" fill="#272727"/>
<path d="M100.741 3.57202C99.8494 3.57202 99.1267 2.84934 99.1267 1.95601C99.1267 1.06401 99.8494 0.341358 100.741 0.341358C101.633 0.341358 102.357 1.06401 102.357 1.95601C102.357 2.84934 101.633 3.57202 100.741 3.57202Z" fill="#272727"/>
<path d="M100.741 12.0625C99.8494 12.0625 99.1267 11.3398 99.1267 10.4478C99.1267 9.55579 99.8494 8.83184 100.741 8.83184C101.633 8.83184 102.357 9.55579 102.357 10.4478C102.357 11.3398 101.633 12.0625 100.741 12.0625Z" fill="#272727"/>
<path d="M100.741 20.5544C99.8494 20.5544 99.1267 19.8318 99.1267 18.9398C99.1267 18.0465 99.8494 17.3238 100.741 17.3238C101.633 17.3238 102.357 18.0465 102.357 18.9398C102.357 19.8318 101.633 20.5544 100.741 20.5544Z" fill="#272727"/>
<path d="M100.741 29.0452C99.8494 29.0452 99.1267 28.3225 99.1267 27.4305C99.1267 26.5385 99.8494 25.8144 100.741 25.8144C101.633 25.8144 102.357 26.5385 102.357 27.4305C102.357 28.3225 101.633 29.0452 100.741 29.0452Z" fill="#272727"/>
<path d="M100.741 37.5374C99.8494 37.5374 99.1267 36.8133 99.1267 35.9213C99.1267 35.0293 99.8494 34.3067 100.741 34.3067C101.633 34.3067 102.357 35.0293 102.357 35.9213C102.357 36.8133 101.633 37.5374 100.741 37.5374Z" fill="#272727"/>
<path d="M100.741 46.0278C99.8494 46.0278 99.1267 45.3052 99.1267 44.4132C99.1267 43.5199 99.8494 42.7972 100.741 42.7972C101.633 42.7972 102.357 43.5199 102.357 44.4132C102.357 45.3052 101.633 46.0278 100.741 46.0278Z" fill="#272727"/>
<path d="M100.741 54.5198C99.8494 54.5198 99.1267 53.7958 99.1267 52.9038C99.1267 52.0118 99.8494 51.2891 100.741 51.2891C101.633 51.2891 102.357 52.0118 102.357 52.9038C102.357 53.7958 101.633 54.5198 100.741 54.5198Z" fill="#272727"/>
<path d="M92.4947 3.57202C91.6027 3.57202 90.88 2.84934 90.88 1.95601C90.88 1.06401 91.6027 0.341358 92.4947 0.341358C93.3867 0.341358 94.1107 1.06401 94.1107 1.95601C94.1107 2.84934 93.3867 3.57202 92.4947 3.57202Z" fill="#272727"/>
<path d="M92.4947 12.0625C91.6027 12.0625 90.88 11.3398 90.88 10.4478C90.88 9.55579 91.6027 8.83184 92.4947 8.83184C93.3867 8.83184 94.1107 9.55579 94.1107 10.4478C94.1107 11.3398 93.3867 12.0625 92.4947 12.0625Z" fill="#272727"/>
<path d="M92.4947 20.5544C91.6027 20.5544 90.88 19.8318 90.88 18.9398C90.88 18.0465 91.6027 17.3238 92.4947 17.3238C93.3867 17.3238 94.1107 18.0465 94.1107 18.9398C94.1107 19.8318 93.3867 20.5544 92.4947 20.5544Z" fill="#272727"/>
<path d="M92.4947 29.0452C91.6027 29.0452 90.88 28.3225 90.88 27.4305C90.88 26.5385 91.6027 25.8144 92.4947 25.8144C93.3867 25.8144 94.1107 26.5385 94.1107 27.4305C94.1107 28.3225 93.3867 29.0452 92.4947 29.0452Z" fill="#272727"/>
<path d="M92.4947 37.5374C91.6027 37.5374 90.88 36.8133 90.88 35.9213C90.88 35.0293 91.6027 34.3067 92.4947 34.3067C93.3867 34.3067 94.1107 35.0293 94.1107 35.9213C94.1107 36.8133 93.3867 37.5374 92.4947 37.5374Z" fill="#272727"/>
<path d="M92.4947 46.0278C91.6027 46.0278 90.88 45.3052 90.88 44.4132C90.88 43.5199 91.6027 42.7972 92.4947 42.7972C93.3867 42.7972 94.1107 43.5199 94.1107 44.4132C94.1107 45.3052 93.3867 46.0278 92.4947 46.0278Z" fill="#272727"/>
<path d="M92.4947 54.5198C91.6027 54.5198 90.88 53.7958 90.88 52.9038C90.88 52.0118 91.6027 51.2891 92.4947 51.2891C93.3867 51.2891 94.1107 52.0118 94.1107 52.9038C94.1107 53.7958 93.3867 54.5198 92.4947 54.5198Z" fill="#272727"/>
<path d="M84.248 3.57202C83.356 3.57202 82.6321 2.84934 82.6321 1.95601C82.6321 1.06401 83.356 0.341358 84.248 0.341358C85.14 0.341358 85.8627 1.06401 85.8627 1.95601C85.8627 2.84934 85.14 3.57202 84.248 3.57202Z" fill="#272727"/>
<path d="M84.248 12.0625C83.356 12.0625 82.6321 11.3398 82.6321 10.4478C82.6321 9.55579 83.356 8.83184 84.248 8.83184C85.14 8.83184 85.8627 9.55579 85.8627 10.4478C85.8627 11.3398 85.14 12.0625 84.248 12.0625Z" fill="#272727"/>
<path d="M84.248 20.5544C83.356 20.5544 82.6321 19.8318 82.6321 18.9398C82.6321 18.0465 83.356 17.3238 84.248 17.3238C85.14 17.3238 85.8627 18.0465 85.8627 18.9398C85.8627 19.8318 85.14 20.5544 84.248 20.5544Z" fill="#272727"/>
<path d="M84.248 29.0452C83.356 29.0452 82.6321 28.3225 82.6321 27.4305C82.6321 26.5385 83.356 25.8144 84.248 25.8144C85.14 25.8144 85.8627 26.5385 85.8627 27.4305C85.8627 28.3225 85.14 29.0452 84.248 29.0452Z" fill="#272727"/>
<path d="M84.248 37.5374C83.356 37.5374 82.6321 36.8133 82.6321 35.9213C82.6321 35.0293 83.356 34.3067 84.248 34.3067C85.14 34.3067 85.8627 35.0293 85.8627 35.9213C85.8627 36.8133 85.14 37.5374 84.248 37.5374Z" fill="#272727"/>
<path d="M84.248 46.0278C83.356 46.0278 82.6321 45.3052 82.6321 44.4132C82.6321 43.5199 83.356 42.7972 84.248 42.7972C85.14 42.7972 85.8627 43.5199 85.8627 44.4132C85.8627 45.3052 85.14 46.0278 84.248 46.0278Z" fill="#272727"/>
<path d="M84.248 54.5198C83.356 54.5198 82.6321 53.7958 82.6321 52.9038C82.6321 52.0118 83.356 51.2891 84.248 51.2891C85.14 51.2891 85.8627 52.0118 85.8627 52.9038C85.8627 53.7958 85.14 54.5198 84.248 54.5198Z" fill="#272727"/>
<path d="M76.0014 3.57202C75.1081 3.57202 74.3854 2.84934 74.3854 1.95601C74.3854 1.06401 75.1081 0.341358 76.0014 0.341358C76.8934 0.341358 77.616 1.06401 77.616 1.95601C77.616 2.84934 76.8934 3.57202 76.0014 3.57202Z" fill="#272727"/>
<path d="M76.0014 12.0625C75.1081 12.0625 74.3854 11.3398 74.3854 10.4478C74.3854 9.55579 75.1081 8.83184 76.0014 8.83184C76.8934 8.83184 77.616 9.55579 77.616 10.4478C77.616 11.3398 76.8934 12.0625 76.0014 12.0625Z" fill="#272727"/>
<path d="M76.0014 20.5544C75.1081 20.5544 74.3854 19.8318 74.3854 18.9398C74.3854 18.0465 75.1081 17.3238 76.0014 17.3238C76.8934 17.3238 77.616 18.0465 77.616 18.9398C77.616 19.8318 76.8934 20.5544 76.0014 20.5544Z" fill="#272727"/>
<path d="M76.0014 29.0452C75.1081 29.0452 74.3854 28.3225 74.3854 27.4305C74.3854 26.5385 75.1081 25.8144 76.0014 25.8144C76.8934 25.8144 77.616 26.5385 77.616 27.4305C77.616 28.3225 76.8934 29.0452 76.0014 29.0452Z" fill="#272727"/>
<path d="M76.0014 37.5374C75.1081 37.5374 74.3854 36.8133 74.3854 35.9213C74.3854 35.0293 75.1081 34.3067 76.0014 34.3067C76.8934 34.3067 77.616 35.0293 77.616 35.9213C77.616 36.8133 76.8934 37.5374 76.0014 37.5374Z" fill="#272727"/>
<path d="M76.0014 46.0278C75.1081 46.0278 74.3854 45.3052 74.3854 44.4132C74.3854 43.5199 75.1081 42.7972 76.0014 42.7972C76.8934 42.7972 77.616 43.5199 77.616 44.4132C77.616 45.3052 76.8934 46.0278 76.0014 46.0278Z" fill="#272727"/>
<path d="M76.0014 54.5198C75.1081 54.5198 74.3854 53.7958 74.3854 52.9038C74.3854 52.0118 75.1081 51.2891 76.0014 51.2891C76.8934 51.2891 77.616 52.0118 77.616 52.9038C77.616 53.7958 76.8934 54.5198 76.0014 54.5198Z" fill="#272727"/>
<path d="M67.7533 3.57202C66.8613 3.57202 66.1387 2.84934 66.1387 1.95601C66.1387 1.06401 66.8613 0.341358 67.7533 0.341358C68.6453 0.341358 69.3693 1.06401 69.3693 1.95601C69.3693 2.84934 68.6453 3.57202 67.7533 3.57202Z" fill="#272727"/>
<path d="M67.7533 12.0625C66.8613 12.0625 66.1387 11.3398 66.1387 10.4478C66.1387 9.55579 66.8613 8.83184 67.7533 8.83184C68.6453 8.83184 69.3693 9.55579 69.3693 10.4478C69.3693 11.3398 68.6453 12.0625 67.7533 12.0625Z" fill="#272727"/>
<path d="M67.7533 20.5544C66.8613 20.5544 66.1387 19.8318 66.1387 18.9398C66.1387 18.0465 66.8613 17.3238 67.7533 17.3238C68.6453 17.3238 69.3693 18.0465 69.3693 18.9398C69.3693 19.8318 68.6453 20.5544 67.7533 20.5544Z" fill="#272727"/>
<path d="M67.7533 29.0452C66.8613 29.0452 66.1387 28.3225 66.1387 27.4305C66.1387 26.5385 66.8613 25.8144 67.7533 25.8144C68.6453 25.8144 69.3693 26.5385 69.3693 27.4305C69.3693 28.3225 68.6453 29.0452 67.7533 29.0452Z" fill="#272727"/>
<path d="M67.7533 37.5374C66.8613 37.5374 66.1387 36.8133 66.1387 35.9213C66.1387 35.0293 66.8613 34.3067 67.7533 34.3067C68.6453 34.3067 69.3693 35.0293 69.3693 35.9213C69.3693 36.8133 68.6453 37.5374 67.7533 37.5374Z" fill="#272727"/>
<path d="M67.7533 46.0278C66.8613 46.0278 66.1387 45.3052 66.1387 44.4132C66.1387 43.5199 66.8613 42.7972 67.7533 42.7972C68.6453 42.7972 69.3693 43.5199 69.3693 44.4132C69.3693 45.3052 68.6453 46.0278 67.7533 46.0278Z" fill="#272727"/>
<path d="M67.7533 54.5198C66.8613 54.5198 66.1387 53.7958 66.1387 52.9038C66.1387 52.0118 66.8613 51.2891 67.7533 51.2891C68.6453 51.2891 69.3693 52.0118 69.3693 52.9038C69.3693 53.7958 68.6453 54.5198 67.7533 54.5198Z" fill="#272727"/>
<path d="M59.5066 3.57202C58.6146 3.57202 57.8906 2.84934 57.8906 1.95601C57.8906 1.06401 58.6146 0.341358 59.5066 0.341358C60.3986 0.341358 61.1226 1.06401 61.1226 1.95601C61.1226 2.84934 60.3986 3.57202 59.5066 3.57202Z" fill="#272727"/>
<path d="M59.5066 12.0625C58.6146 12.0625 57.8906 11.3398 57.8906 10.4478C57.8906 9.55579 58.6146 8.83184 59.5066 8.83184C60.3986 8.83184 61.1226 9.55579 61.1226 10.4478C61.1226 11.3398 60.3986 12.0625 59.5066 12.0625Z" fill="#272727"/>
<path d="M59.5066 20.5544C58.6146 20.5544 57.8906 19.8318 57.8906 18.9398C57.8906 18.0465 58.6146 17.3238 59.5066 17.3238C60.3986 17.3238 61.1226 18.0465 61.1226 18.9398C61.1226 19.8318 60.3986 20.5544 59.5066 20.5544Z" fill="#272727"/>
<path d="M59.5066 29.0452C58.6146 29.0452 57.8906 28.3225 57.8906 27.4305C57.8906 26.5385 58.6146 25.8144 59.5066 25.8144C60.3986 25.8144 61.1226 26.5385 61.1226 27.4305C61.1226 28.3225 60.3986 29.0452 59.5066 29.0452Z" fill="#272727"/>
<path d="M59.5066 37.5374C58.6146 37.5374 57.8906 36.8133 57.8906 35.9213C57.8906 35.0293 58.6146 34.3067 59.5066 34.3067C60.3986 34.3067 61.1226 35.0293 61.1226 35.9213C61.1226 36.8133 60.3986 37.5374 59.5066 37.5374Z" fill="#272727"/>
<path d="M59.5066 46.0278C58.6146 46.0278 57.8906 45.3052 57.8906 44.4132C57.8906 43.5199 58.6146 42.7972 59.5066 42.7972C60.3986 42.7972 61.1226 43.5199 61.1226 44.4132C61.1226 45.3052 60.3986 46.0278 59.5066 46.0278Z" fill="#272727"/>
<path d="M59.5066 54.5198C58.6146 54.5198 57.8906 53.7958 57.8906 52.9038C57.8906 52.0118 58.6146 51.2891 59.5066 51.2891C60.3986 51.2891 61.1226 52.0118 61.1226 52.9038C61.1226 53.7958 60.3986 54.5198 59.5066 54.5198Z" fill="#272727"/>
<path d="M51.2601 3.57202C50.3681 3.57202 49.644 2.84934 49.644 1.95601C49.644 1.06401 50.3681 0.341358 51.2601 0.341358C52.1521 0.341358 52.8747 1.06401 52.8747 1.95601C52.8747 2.84934 52.1521 3.57202 51.2601 3.57202Z" fill="#272727"/>
<path d="M51.2601 12.0625C50.3681 12.0625 49.644 11.3398 49.644 10.4478C49.644 9.55579 50.3681 8.83184 51.2601 8.83184C52.1521 8.83184 52.8747 9.55579 52.8747 10.4478C52.8747 11.3398 52.1521 12.0625 51.2601 12.0625Z" fill="#272727"/>
<path d="M51.2601 20.5544C50.3681 20.5544 49.644 19.8318 49.644 18.9398C49.644 18.0465 50.3681 17.3238 51.2601 17.3238C52.1521 17.3238 52.8747 18.0465 52.8747 18.9398C52.8747 19.8318 52.1521 20.5544 51.2601 20.5544Z" fill="#272727"/>
<path d="M51.2601 29.0452C50.3681 29.0452 49.644 28.3225 49.644 27.4305C49.644 26.5385 50.3681 25.8144 51.2601 25.8144C52.1521 25.8144 52.8747 26.5385 52.8747 27.4305C52.8747 28.3225 52.1521 29.0452 51.2601 29.0452Z" fill="#272727"/>
<path d="M51.2601 37.5374C50.3681 37.5374 49.644 36.8133 49.644 35.9213C49.644 35.0293 50.3681 34.3067 51.2601 34.3067C52.1521 34.3067 52.8747 35.0293 52.8747 35.9213C52.8747 36.8133 52.1521 37.5374 51.2601 37.5374Z" fill="#272727"/>
<path d="M51.2601 46.0278C50.3681 46.0278 49.644 45.3052 49.644 44.4132C49.644 43.5199 50.3681 42.7972 51.2601 42.7972C52.1521 42.7972 52.8747 43.5199 52.8747 44.4132C52.8747 45.3052 52.1521 46.0278 51.2601 46.0278Z" fill="#272727"/>
<path d="M51.2601 54.5198C50.3681 54.5198 49.644 53.7958 49.644 52.9038C49.644 52.0118 50.3681 51.2891 51.2601 51.2891C52.1521 51.2891 52.8747 52.0118 52.8747 52.9038C52.8747 53.7958 52.1521 54.5198 51.2601 54.5198Z" fill="#272727"/>
<path d="M43.0121 3.57202C42.1201 3.57202 41.3973 2.84934 41.3973 1.95601C41.3973 1.06401 42.1201 0.341358 43.0121 0.341358C43.9054 0.341358 44.628 1.06401 44.628 1.95601C44.628 2.84934 43.9054 3.57202 43.0121 3.57202Z" fill="#272727"/>
<path d="M43.0121 12.0625C42.1201 12.0625 41.3973 11.3398 41.3973 10.4478C41.3973 9.55579 42.1201 8.83184 43.0121 8.83184C43.9054 8.83184 44.628 9.55579 44.628 10.4478C44.628 11.3398 43.9054 12.0625 43.0121 12.0625Z" fill="#272727"/>
<path d="M43.0121 20.5544C42.1201 20.5544 41.3973 19.8318 41.3973 18.9398C41.3973 18.0465 42.1201 17.3238 43.0121 17.3238C43.9054 17.3238 44.628 18.0465 44.628 18.9398C44.628 19.8318 43.9054 20.5544 43.0121 20.5544Z" fill="#272727"/>
<path d="M43.0121 29.0452C42.1201 29.0452 41.3973 28.3225 41.3973 27.4305C41.3973 26.5385 42.1201 25.8144 43.0121 25.8144C43.9054 25.8144 44.628 26.5385 44.628 27.4305C44.628 28.3225 43.9054 29.0452 43.0121 29.0452Z" fill="#272727"/>
<path d="M43.0121 37.5374C42.1201 37.5374 41.3973 36.8133 41.3973 35.9213C41.3973 35.0293 42.1201 34.3067 43.0121 34.3067C43.9054 34.3067 44.628 35.0293 44.628 35.9213C44.628 36.8133 43.9054 37.5374 43.0121 37.5374Z" fill="#272727"/>
<path d="M43.0121 46.0278C42.1201 46.0278 41.3973 45.3052 41.3973 44.4132C41.3973 43.5199 42.1201 42.7972 43.0121 42.7972C43.9054 42.7972 44.628 43.5199 44.628 44.4132C44.628 45.3052 43.9054 46.0278 43.0121 46.0278Z" fill="#272727"/>
<path d="M43.0121 54.5198C42.1201 54.5198 41.3973 53.7958 41.3973 52.9038C41.3973 52.0118 42.1201 51.2891 43.0121 51.2891C43.9054 51.2891 44.628 52.0118 44.628 52.9038C44.628 53.7958 43.9054 54.5198 43.0121 54.5198Z" fill="#272727"/>
<path d="M34.7653 3.57202C33.8733 3.57202 33.1506 2.84934 33.1506 1.95601C33.1506 1.06401 33.8733 0.341358 34.7653 0.341358C35.6573 0.341358 36.3813 1.06401 36.3813 1.95601C36.3813 2.84934 35.6573 3.57202 34.7653 3.57202Z" fill="#272727"/>
<path d="M34.7653 12.0625C33.8733 12.0625 33.1506 11.3398 33.1506 10.4478C33.1506 9.55579 33.8733 8.83184 34.7653 8.83184C35.6573 8.83184 36.3813 9.55579 36.3813 10.4478C36.3813 11.3398 35.6573 12.0625 34.7653 12.0625Z" fill="#272727"/>
<path d="M34.7653 20.5544C33.8733 20.5544 33.1506 19.8318 33.1506 18.9398C33.1506 18.0465 33.8733 17.3238 34.7653 17.3238C35.6573 17.3238 36.3813 18.0465 36.3813 18.9398C36.3813 19.8318 35.6573 20.5544 34.7653 20.5544Z" fill="#272727"/>
<path d="M34.7653 29.0452C33.8733 29.0452 33.1506 28.3225 33.1506 27.4305C33.1506 26.5385 33.8733 25.8144 34.7653 25.8144C35.6573 25.8144 36.3813 26.5385 36.3813 27.4305C36.3813 28.3225 35.6573 29.0452 34.7653 29.0452Z" fill="#272727"/>
<path d="M34.7653 37.5374C33.8733 37.5374 33.1506 36.8133 33.1506 35.9213C33.1506 35.0293 33.8733 34.3067 34.7653 34.3067C35.6573 34.3067 36.3813 35.0293 36.3813 35.9213C36.3813 36.8133 35.6573 37.5374 34.7653 37.5374Z" fill="#272727"/>
<path d="M34.7653 46.0278C33.8733 46.0278 33.1506 45.3052 33.1506 44.4132C33.1506 43.5199 33.8733 42.7972 34.7653 42.7972C35.6573 42.7972 36.3813 43.5199 36.3813 44.4132C36.3813 45.3052 35.6573 46.0278 34.7653 46.0278Z" fill="#272727"/>
<path d="M34.7653 54.5198C33.8733 54.5198 33.1506 53.7958 33.1506 52.9038C33.1506 52.0118 33.8733 51.2891 34.7653 51.2891C35.6573 51.2891 36.3813 52.0118 36.3813 52.9038C36.3813 53.7958 35.6573 54.5198 34.7653 54.5198Z" fill="#272727"/>
<path d="M26.5186 3.57202C25.6266 3.57202 24.9026 2.84934 24.9026 1.95601C24.9026 1.06401 25.6266 0.341358 26.5186 0.341358C27.4106 0.341358 28.1333 1.06401 28.1333 1.95601C28.1333 2.84934 27.4106 3.57202 26.5186 3.57202Z" fill="#272727"/>
<path d="M26.5186 12.0625C25.6266 12.0625 24.9026 11.3398 24.9026 10.4478C24.9026 9.55579 25.6266 8.83184 26.5186 8.83184C27.4106 8.83184 28.1333 9.55579 28.1333 10.4478C28.1333 11.3398 27.4106 12.0625 26.5186 12.0625Z" fill="#272727"/>
<path d="M26.5186 20.5544C25.6266 20.5544 24.9026 19.8318 24.9026 18.9398C24.9026 18.0465 25.6266 17.3238 26.5186 17.3238C27.4106 17.3238 28.1333 18.0465 28.1333 18.9398C28.1333 19.8318 27.4106 20.5544 26.5186 20.5544Z" fill="#272727"/>
<path d="M26.5186 29.0452C25.6266 29.0452 24.9026 28.3225 24.9026 27.4305C24.9026 26.5385 25.6266 25.8144 26.5186 25.8144C27.4106 25.8144 28.1333 26.5385 28.1333 27.4305C28.1333 28.3225 27.4106 29.0452 26.5186 29.0452Z" fill="#272727"/>
<path d="M26.5186 37.5374C25.6266 37.5374 24.9026 36.8133 24.9026 35.9213C24.9026 35.0293 25.6266 34.3067 26.5186 34.3067C27.4106 34.3067 28.1333 35.0293 28.1333 35.9213C28.1333 36.8133 27.4106 37.5374 26.5186 37.5374Z" fill="#272727"/>
<path d="M26.5186 46.0278C25.6266 46.0278 24.9026 45.3052 24.9026 44.4132C24.9026 43.5199 25.6266 42.7972 26.5186 42.7972C27.4106 42.7972 28.1333 43.5199 28.1333 44.4132C28.1333 45.3052 27.4106 46.0278 26.5186 46.0278Z" fill="#272727"/>
<path d="M26.5186 54.5198C25.6266 54.5198 24.9026 53.7958 24.9026 52.9038C24.9026 52.0118 25.6266 51.2891 26.5186 51.2891C27.4106 51.2891 28.1333 52.0118 28.1333 52.9038C28.1333 53.7958 27.4106 54.5198 26.5186 54.5198Z" fill="#272727"/>
<path d="M18.272 3.57202C17.38 3.57202 16.656 2.84934 16.656 1.95601C16.656 1.06401 17.38 0.341358 18.272 0.341358C19.164 0.341358 19.8867 1.06401 19.8867 1.95601C19.8867 2.84934 19.164 3.57202 18.272 3.57202Z" fill="#272727"/>
<path d="M18.272 12.0625C17.38 12.0625 16.656 11.3398 16.656 10.4478C16.656 9.55579 17.38 8.83184 18.272 8.83184C19.164 8.83184 19.8867 9.55579 19.8867 10.4478C19.8867 11.3398 19.164 12.0625 18.272 12.0625Z" fill="#272727"/>
<path d="M18.272 20.5544C17.38 20.5544 16.656 19.8318 16.656 18.9398C16.656 18.0465 17.38 17.3238 18.272 17.3238C19.164 17.3238 19.8867 18.0465 19.8867 18.9398C19.8867 19.8318 19.164 20.5544 18.272 20.5544Z" fill="#272727"/>
<path d="M18.272 29.0452C17.38 29.0452 16.656 28.3225 16.656 27.4305C16.656 26.5385 17.38 25.8144 18.272 25.8144C19.164 25.8144 19.8867 26.5385 19.8867 27.4305C19.8867 28.3225 19.164 29.0452 18.272 29.0452Z" fill="#272727"/>
<path d="M18.272 37.5374C17.38 37.5374 16.656 36.8133 16.656 35.9213C16.656 35.0293 17.38 34.3067 18.272 34.3067C19.164 34.3067 19.8867 35.0293 19.8867 35.9213C19.8867 36.8133 19.164 37.5374 18.272 37.5374Z" fill="#272727"/>
<path d="M18.272 46.0278C17.38 46.0278 16.656 45.3052 16.656 44.4132C16.656 43.5199 17.38 42.7972 18.272 42.7972C19.164 42.7972 19.8867 43.5199 19.8867 44.4132C19.8867 45.3052 19.164 46.0278 18.272 46.0278Z" fill="#272727"/>
<path d="M18.272 54.5198C17.38 54.5198 16.656 53.7958 16.656 52.9038C16.656 52.0118 17.38 51.2891 18.272 51.2891C19.164 51.2891 19.8867 52.0118 19.8867 52.9038C19.8867 53.7958 19.164 54.5198 18.272 54.5198Z" fill="#272727"/>
<path d="M10.0241 3.57202C9.13207 3.57202 8.40942 2.84934 8.40942 1.95601C8.40942 1.06401 9.13207 0.341358 10.0241 0.341358C10.9161 0.341358 11.6401 1.06401 11.6401 1.95601C11.6401 2.84934 10.9161 3.57202 10.0241 3.57202Z" fill="#272727"/>
<path d="M10.0241 12.0625C9.13207 12.0625 8.40942 11.3398 8.40942 10.4478C8.40942 9.55579 9.13207 8.83184 10.0241 8.83184C10.9161 8.83184 11.6401 9.55579 11.6401 10.4478C11.6401 11.3398 10.9161 12.0625 10.0241 12.0625Z" fill="#272727"/>
<path d="M10.0241 20.5544C9.13207 20.5544 8.40942 19.8318 8.40942 18.9398C8.40942 18.0465 9.13207 17.3238 10.0241 17.3238C10.9161 17.3238 11.6401 18.0465 11.6401 18.9398C11.6401 19.8318 10.9161 20.5544 10.0241 20.5544Z" fill="#272727"/>
<path d="M10.0241 29.0452C9.13207 29.0452 8.40942 28.3225 8.40942 27.4305C8.40942 26.5385 9.13207 25.8144 10.0241 25.8144C10.9161 25.8144 11.6401 26.5385 11.6401 27.4305C11.6401 28.3225 10.9161 29.0452 10.0241 29.0452Z" fill="#272727"/>
<path d="M10.0241 37.5374C9.13207 37.5374 8.40942 36.8133 8.40942 35.9213C8.40942 35.0293 9.13207 34.3067 10.0241 34.3067C10.9161 34.3067 11.6401 35.0293 11.6401 35.9213C11.6401 36.8133 10.9161 37.5374 10.0241 37.5374Z" fill="#272727"/>
<path d="M10.0241 46.0278C9.13207 46.0278 8.40942 45.3052 8.40942 44.4132C8.40942 43.5199 9.13207 42.7972 10.0241 42.7972C10.9161 42.7972 11.6401 43.5199 11.6401 44.4132C11.6401 45.3052 10.9161 46.0278 10.0241 46.0278Z" fill="#272727"/>
<path d="M10.0241 54.5198C9.13207 54.5198 8.40942 53.7958 8.40942 52.9038C8.40942 52.0118 9.13207 51.2891 10.0241 51.2891C10.9161 51.2891 11.6401 52.0118 11.6401 52.9038C11.6401 53.7958 10.9161 54.5198 10.0241 54.5198Z" fill="#272727"/>
<path d="M1.77737 3.57202C0.885368 3.57202 0.16272 2.84934 0.16272 1.95601C0.16272 1.06401 0.885368 0.341358 1.77737 0.341358C2.66937 0.341358 3.39338 1.06401 3.39338 1.95601C3.39338 2.84934 2.66937 3.57202 1.77737 3.57202Z" fill="#272727"/>
<path d="M1.77737 12.0625C0.885368 12.0625 0.16272 11.3398 0.16272 10.4478C0.16272 9.55579 0.885368 8.83184 1.77737 8.83184C2.66937 8.83184 3.39338 9.55579 3.39338 10.4478C3.39338 11.3398 2.66937 12.0625 1.77737 12.0625Z" fill="#272727"/>
<path d="M1.77737 20.5544C0.885368 20.5544 0.16272 19.8318 0.16272 18.9398C0.16272 18.0465 0.885368 17.3238 1.77737 17.3238C2.66937 17.3238 3.39338 18.0465 3.39338 18.9398C3.39338 19.8318 2.66937 20.5544 1.77737 20.5544Z" fill="#272727"/>
<path d="M1.77737 29.0452C0.885368 29.0452 0.16272 28.3225 0.16272 27.4305C0.16272 26.5385 0.885368 25.8144 1.77737 25.8144C2.66937 25.8144 3.39338 26.5385 3.39338 27.4305C3.39338 28.3225 2.66937 29.0452 1.77737 29.0452Z" fill="#272727"/>
<path d="M1.77737 37.5374C0.885368 37.5374 0.16272 36.8133 0.16272 35.9213C0.16272 35.0293 0.885368 34.3067 1.77737 34.3067C2.66937 34.3067 3.39338 35.0293 3.39338 35.9213C3.39338 36.8133 2.66937 37.5374 1.77737 37.5374Z" fill="#272727"/>
<path d="M1.77737 46.0278C0.885368 46.0278 0.16272 45.3052 0.16272 44.4132C0.16272 43.5199 0.885368 42.7972 1.77737 42.7972C2.66937 42.7972 3.39338 43.5199 3.39338 44.4132C3.39338 45.3052 2.66937 46.0278 1.77737 46.0278Z" fill="#272727"/>
<path d="M1.77737 54.5198C0.885368 54.5198 0.16272 53.7958 0.16272 52.9038C0.16272 52.0118 0.885368 51.2891 1.77737 51.2891C2.66937 51.2891 3.39338 52.0118 3.39338 52.9038C3.39338 53.7958 2.66937 54.5198 1.77737 54.5198Z" fill="#272727"/>
<path d="M133.729 62.5667C132.837 62.5667 132.115 61.8426 132.115 60.9506C132.115 60.0586 132.837 59.336 133.729 59.336C134.621 59.336 135.345 60.0586 135.345 60.9506C135.345 61.8426 134.621 62.5667 133.729 62.5667Z" fill="#272727"/>
<path d="M133.729 71.0574C132.837 71.0574 132.115 70.3347 132.115 69.4414C132.115 68.5507 132.837 67.8267 133.729 67.8267C134.621 67.8267 135.345 68.5507 135.345 69.4414C135.345 70.3347 134.621 71.0574 133.729 71.0574Z" fill="#272727"/>
<path d="M133.729 79.5493C132.837 79.5493 132.115 78.8253 132.115 77.9333C132.115 77.0413 132.837 76.3187 133.729 76.3187C134.621 76.3187 135.345 77.0413 135.345 77.9333C135.345 78.8253 134.621 79.5493 133.729 79.5493Z" fill="#272727"/>
<path d="M133.729 88.0398C132.837 88.0398 132.115 87.3171 132.115 86.4251C132.115 85.5317 132.837 84.8091 133.729 84.8091C134.621 84.8091 135.345 85.5317 135.345 86.4251C135.345 87.3171 134.621 88.0398 133.729 88.0398Z" fill="#272727"/>
<path d="M133.729 96.5305C132.837 96.5305 132.115 95.8079 132.115 94.9159C132.115 94.0239 132.837 93.2999 133.729 93.2999C134.621 93.2999 135.345 94.0239 135.345 94.9159C135.345 95.8079 134.621 96.5305 133.729 96.5305Z" fill="#272727"/>
<path d="M133.729 105.022C132.837 105.022 132.115 104.299 132.115 103.407C132.115 102.515 132.837 101.792 133.729 101.792C134.621 101.792 135.345 102.515 135.345 103.407C135.345 104.299 134.621 105.022 133.729 105.022Z" fill="#272727"/>
<path d="M133.729 113.513C132.837 113.513 132.115 112.791 132.115 111.899C132.115 111.007 132.837 110.283 133.729 110.283C134.621 110.283 135.345 111.007 135.345 111.899C135.345 112.791 134.621 113.513 133.729 113.513Z" fill="#272727"/>
<path d="M133.729 122.005C132.837 122.005 132.115 121.282 132.115 120.389C132.115 119.497 132.837 118.774 133.729 118.774C134.621 118.774 135.345 119.497 135.345 120.389C135.345 121.282 134.621 122.005 133.729 122.005Z" fill="#272727"/>
<path d="M133.729 130.496C132.837 130.496 132.115 129.773 132.115 128.881C132.115 127.989 132.837 127.265 133.729 127.265C134.621 127.265 135.345 127.989 135.345 128.881C135.345 129.773 134.621 130.496 133.729 130.496Z" fill="#272727"/>
<path d="M133.729 138.988C132.837 138.988 132.115 138.264 132.115 137.372C132.115 136.48 132.837 135.757 133.729 135.757C134.621 135.757 135.345 136.48 135.345 137.372C135.345 138.264 134.621 138.988 133.729 138.988Z" fill="#272727"/>
<path d="M133.729 147.479C132.837 147.479 132.115 146.756 132.115 145.863C132.115 144.971 132.837 144.248 133.729 144.248C134.621 144.248 135.345 144.971 135.345 145.863C135.345 146.756 134.621 147.479 133.729 147.479Z" fill="#272727"/>
<path d="M133.729 155.969C132.837 155.969 132.115 155.247 132.115 154.355C132.115 153.463 132.837 152.739 133.729 152.739C134.621 152.739 135.345 153.463 135.345 154.355C135.345 155.247 134.621 155.969 133.729 155.969Z" fill="#272727"/>
<path d="M133.729 164.461C132.837 164.461 132.115 163.738 132.115 162.845C132.115 161.953 132.837 161.23 133.729 161.23C134.621 161.23 135.345 161.953 135.345 162.845C135.345 163.738 134.621 164.461 133.729 164.461Z" fill="#272727"/>
<path d="M133.729 172.952C132.837 172.952 132.115 172.229 132.115 171.337C132.115 170.445 132.837 169.721 133.729 169.721C134.621 169.721 135.345 170.445 135.345 171.337C135.345 172.229 134.621 172.952 133.729 172.952Z" fill="#272727"/>
<path d="M133.729 181.444C132.837 181.444 132.115 180.72 132.115 179.828C132.115 178.936 132.837 178.213 133.729 178.213C134.621 178.213 135.345 178.936 135.345 179.828C135.345 180.72 134.621 181.444 133.729 181.444Z" fill="#272727"/>
<path d="M133.729 189.935C132.837 189.935 132.115 189.212 132.115 188.32C132.115 187.428 132.837 186.704 133.729 186.704C134.621 186.704 135.345 187.428 135.345 188.32C135.345 189.212 134.621 189.935 133.729 189.935Z" fill="#272727"/>
<path d="M133.729 198.427C132.837 198.427 132.115 197.702 132.115 196.81C132.115 195.918 132.837 195.196 133.729 195.196C134.621 195.196 135.345 195.918 135.345 196.81C135.345 197.702 134.621 198.427 133.729 198.427Z" fill="#272727"/>
<path d="M125.483 62.5667C124.591 62.5667 123.868 61.8426 123.868 60.9506C123.868 60.0586 124.591 59.336 125.483 59.336C126.375 59.336 127.099 60.0586 127.099 60.9506C127.099 61.8426 126.375 62.5667 125.483 62.5667Z" fill="#272727"/>
<path d="M125.483 71.0574C124.591 71.0574 123.868 70.3347 123.868 69.4414C123.868 68.5507 124.591 67.8267 125.483 67.8267C126.375 67.8267 127.099 68.5507 127.099 69.4414C127.099 70.3347 126.375 71.0574 125.483 71.0574Z" fill="#272727"/>
<path d="M125.483 79.5493C124.591 79.5493 123.868 78.8253 123.868 77.9333C123.868 77.0413 124.591 76.3187 125.483 76.3187C126.375 76.3187 127.099 77.0413 127.099 77.9333C127.099 78.8253 126.375 79.5493 125.483 79.5493Z" fill="#272727"/>
<path d="M125.483 88.0398C124.591 88.0398 123.868 87.3171 123.868 86.4251C123.868 85.5317 124.591 84.8091 125.483 84.8091C126.375 84.8091 127.099 85.5317 127.099 86.4251C127.099 87.3171 126.375 88.0398 125.483 88.0398Z" fill="#272727"/>
<path d="M125.483 96.5305C124.591 96.5305 123.868 95.8079 123.868 94.9159C123.868 94.0239 124.591 93.2999 125.483 93.2999C126.375 93.2999 127.099 94.0239 127.099 94.9159C127.099 95.8079 126.375 96.5305 125.483 96.5305Z" fill="#272727"/>
<path d="M125.483 105.022C124.591 105.022 123.868 104.299 123.868 103.407C123.868 102.515 124.591 101.792 125.483 101.792C126.375 101.792 127.099 102.515 127.099 103.407C127.099 104.299 126.375 105.022 125.483 105.022Z" fill="#272727"/>
<path d="M125.483 113.513C124.591 113.513 123.868 112.791 123.868 111.899C123.868 111.007 124.591 110.283 125.483 110.283C126.375 110.283 127.099 111.007 127.099 111.899C127.099 112.791 126.375 113.513 125.483 113.513Z" fill="#272727"/>
<path d="M125.483 122.005C124.591 122.005 123.868 121.282 123.868 120.389C123.868 119.497 124.591 118.774 125.483 118.774C126.375 118.774 127.099 119.497 127.099 120.389C127.099 121.282 126.375 122.005 125.483 122.005Z" fill="#272727"/>
<path d="M125.483 130.496C124.591 130.496 123.868 129.773 123.868 128.881C123.868 127.989 124.591 127.265 125.483 127.265C126.375 127.265 127.099 127.989 127.099 128.881C127.099 129.773 126.375 130.496 125.483 130.496Z" fill="#272727"/>
<path d="M125.483 138.988C124.591 138.988 123.868 138.264 123.868 137.372C123.868 136.48 124.591 135.757 125.483 135.757C126.375 135.757 127.099 136.48 127.099 137.372C127.099 138.264 126.375 138.988 125.483 138.988Z" fill="#272727"/>
<path d="M125.483 147.479C124.591 147.479 123.868 146.756 123.868 145.863C123.868 144.971 124.591 144.248 125.483 144.248C126.375 144.248 127.099 144.971 127.099 145.863C127.099 146.756 126.375 147.479 125.483 147.479Z" fill="#272727"/>
<path d="M125.483 155.969C124.591 155.969 123.868 155.247 123.868 154.355C123.868 153.463 124.591 152.739 125.483 152.739C126.375 152.739 127.099 153.463 127.099 154.355C127.099 155.247 126.375 155.969 125.483 155.969Z" fill="#272727"/>
<path d="M125.483 164.461C124.591 164.461 123.868 163.738 123.868 162.845C123.868 161.953 124.591 161.23 125.483 161.23C126.375 161.23 127.099 161.953 127.099 162.845C127.099 163.738 126.375 164.461 125.483 164.461Z" fill="#272727"/>
<path d="M125.483 172.952C124.591 172.952 123.868 172.229 123.868 171.337C123.868 170.445 124.591 169.721 125.483 169.721C126.375 169.721 127.099 170.445 127.099 171.337C127.099 172.229 126.375 172.952 125.483 172.952Z" fill="#272727"/>
<path d="M125.483 181.444C124.591 181.444 123.868 180.72 123.868 179.828C123.868 178.936 124.591 178.213 125.483 178.213C126.375 178.213 127.099 178.936 127.099 179.828C127.099 180.72 126.375 181.444 125.483 181.444Z" fill="#272727"/>
<path d="M125.483 189.935C124.591 189.935 123.868 189.212 123.868 188.32C123.868 187.428 124.591 186.704 125.483 186.704C126.375 186.704 127.099 187.428 127.099 188.32C127.099 189.212 126.375 189.935 125.483 189.935Z" fill="#272727"/>
<path d="M125.483 198.427C124.591 198.427 123.868 197.702 123.868 196.81C123.868 195.918 124.591 195.196 125.483 195.196C126.375 195.196 127.099 195.918 127.099 196.81C127.099 197.702 126.375 198.427 125.483 198.427Z" fill="#272727"/>
<path d="M117.236 62.5667C116.344 62.5667 115.62 61.8426 115.62 60.9506C115.62 60.0586 116.344 59.336 117.236 59.336C118.128 59.336 118.851 60.0586 118.851 60.9506C118.851 61.8426 118.128 62.5667 117.236 62.5667Z" fill="#272727"/>
<path d="M117.236 71.0574C116.344 71.0574 115.62 70.3347 115.62 69.4414C115.62 68.5507 116.344 67.8267 117.236 67.8267C118.128 67.8267 118.851 68.5507 118.851 69.4414C118.851 70.3347 118.128 71.0574 117.236 71.0574Z" fill="#272727"/>
<path d="M117.236 79.5493C116.344 79.5493 115.62 78.8253 115.62 77.9333C115.62 77.0413 116.344 76.3187 117.236 76.3187C118.128 76.3187 118.851 77.0413 118.851 77.9333C118.851 78.8253 118.128 79.5493 117.236 79.5493Z" fill="#272727"/>
<path d="M117.236 88.0398C116.344 88.0398 115.62 87.3171 115.62 86.4251C115.62 85.5317 116.344 84.8091 117.236 84.8091C118.128 84.8091 118.851 85.5317 118.851 86.4251C118.851 87.3171 118.128 88.0398 117.236 88.0398Z" fill="#272727"/>
<path d="M117.236 96.5305C116.344 96.5305 115.62 95.8079 115.62 94.9159C115.62 94.0239 116.344 93.2999 117.236 93.2999C118.128 93.2999 118.851 94.0239 118.851 94.9159C118.851 95.8079 118.128 96.5305 117.236 96.5305Z" fill="#272727"/>
<path d="M117.236 105.022C116.344 105.022 115.62 104.299 115.62 103.407C115.62 102.515 116.344 101.792 117.236 101.792C118.128 101.792 118.851 102.515 118.851 103.407C118.851 104.299 118.128 105.022 117.236 105.022Z" fill="#272727"/>
<path d="M117.236 113.513C116.344 113.513 115.62 112.791 115.62 111.899C115.62 111.007 116.344 110.283 117.236 110.283C118.128 110.283 118.851 111.007 118.851 111.899C118.851 112.791 118.128 113.513 117.236 113.513Z" fill="#272727"/>
<path d="M117.236 122.005C116.344 122.005 115.62 121.282 115.62 120.389C115.62 119.497 116.344 118.774 117.236 118.774C118.128 118.774 118.851 119.497 118.851 120.389C118.851 121.282 118.128 122.005 117.236 122.005Z" fill="#272727"/>
<path d="M117.236 130.496C116.344 130.496 115.62 129.773 115.62 128.881C115.62 127.989 116.344 127.265 117.236 127.265C118.128 127.265 118.851 127.989 118.851 128.881C118.851 129.773 118.128 130.496 117.236 130.496Z" fill="#272727"/>
<path d="M117.236 138.988C116.344 138.988 115.62 138.264 115.62 137.372C115.62 136.48 116.344 135.757 117.236 135.757C118.128 135.757 118.851 136.48 118.851 137.372C118.851 138.264 118.128 138.988 117.236 138.988Z" fill="#272727"/>
<path d="M117.236 147.479C116.344 147.479 115.62 146.756 115.62 145.863C115.62 144.971 116.344 144.248 117.236 144.248C118.128 144.248 118.851 144.971 118.851 145.863C118.851 146.756 118.128 147.479 117.236 147.479Z" fill="#272727"/>
<path d="M117.236 155.969C116.344 155.969 115.62 155.247 115.62 154.355C115.62 153.463 116.344 152.739 117.236 152.739C118.128 152.739 118.851 153.463 118.851 154.355C118.851 155.247 118.128 155.969 117.236 155.969Z" fill="#272727"/>
<path d="M117.236 164.461C116.344 164.461 115.62 163.738 115.62 162.845C115.62 161.953 116.344 161.23 117.236 161.23C118.128 161.23 118.851 161.953 118.851 162.845C118.851 163.738 118.128 164.461 117.236 164.461Z" fill="#272727"/>
<path d="M117.236 172.952C116.344 172.952 115.62 172.229 115.62 171.337C115.62 170.445 116.344 169.721 117.236 169.721C118.128 169.721 118.851 170.445 118.851 171.337C118.851 172.229 118.128 172.952 117.236 172.952Z" fill="#272727"/>
<path d="M117.236 181.444C116.344 181.444 115.62 180.72 115.62 179.828C115.62 178.936 116.344 178.213 117.236 178.213C118.128 178.213 118.851 178.936 118.851 179.828C118.851 180.72 118.128 181.444 117.236 181.444Z" fill="#272727"/>
<path d="M117.236 189.935C116.344 189.935 115.62 189.212 115.62 188.32C115.62 187.428 116.344 186.704 117.236 186.704C118.128 186.704 118.851 187.428 118.851 188.32C118.851 189.212 118.128 189.935 117.236 189.935Z" fill="#272727"/>
<path d="M117.236 198.427C116.344 198.427 115.62 197.702 115.62 196.81C115.62 195.918 116.344 195.196 117.236 195.196C118.128 195.196 118.851 195.918 118.851 196.81C118.851 197.702 118.128 198.427 117.236 198.427Z" fill="#272727"/>
<path d="M108.989 62.5667C108.096 62.5667 107.373 61.8426 107.373 60.9506C107.373 60.0586 108.096 59.336 108.989 59.336C109.881 59.336 110.604 60.0586 110.604 60.9506C110.604 61.8426 109.881 62.5667 108.989 62.5667Z" fill="#272727"/>
<path d="M108.989 71.0574C108.096 71.0574 107.373 70.3347 107.373 69.4414C107.373 68.5507 108.096 67.8267 108.989 67.8267C109.881 67.8267 110.604 68.5507 110.604 69.4414C110.604 70.3347 109.881 71.0574 108.989 71.0574Z" fill="#272727"/>
<path d="M108.989 79.5493C108.096 79.5493 107.373 78.8253 107.373 77.9333C107.373 77.0413 108.096 76.3187 108.989 76.3187C109.881 76.3187 110.604 77.0413 110.604 77.9333C110.604 78.8253 109.881 79.5493 108.989 79.5493Z" fill="#272727"/>
<path d="M108.989 88.0398C108.096 88.0398 107.373 87.3171 107.373 86.4251C107.373 85.5317 108.096 84.8091 108.989 84.8091C109.881 84.8091 110.604 85.5317 110.604 86.4251C110.604 87.3171 109.881 88.0398 108.989 88.0398Z" fill="#272727"/>
<path d="M108.989 96.5305C108.096 96.5305 107.373 95.8079 107.373 94.9159C107.373 94.0239 108.096 93.2999 108.989 93.2999C109.881 93.2999 110.604 94.0239 110.604 94.9159C110.604 95.8079 109.881 96.5305 108.989 96.5305Z" fill="#272727"/>
<path d="M108.989 105.022C108.096 105.022 107.373 104.299 107.373 103.407C107.373 102.515 108.096 101.792 108.989 101.792C109.881 101.792 110.604 102.515 110.604 103.407C110.604 104.299 109.881 105.022 108.989 105.022Z" fill="#272727"/>
<path d="M108.989 113.513C108.096 113.513 107.373 112.791 107.373 111.899C107.373 111.007 108.096 110.283 108.989 110.283C109.881 110.283 110.604 111.007 110.604 111.899C110.604 112.791 109.881 113.513 108.989 113.513Z" fill="#272727"/>
<path d="M108.989 122.005C108.096 122.005 107.373 121.282 107.373 120.389C107.373 119.497 108.096 118.774 108.989 118.774C109.881 118.774 110.604 119.497 110.604 120.389C110.604 121.282 109.881 122.005 108.989 122.005Z" fill="#272727"/>
<path d="M108.989 130.496C108.096 130.496 107.373 129.773 107.373 128.881C107.373 127.989 108.096 127.265 108.989 127.265C109.881 127.265 110.604 127.989 110.604 128.881C110.604 129.773 109.881 130.496 108.989 130.496Z" fill="#272727"/>
<path d="M108.989 138.988C108.096 138.988 107.373 138.264 107.373 137.372C107.373 136.48 108.096 135.757 108.989 135.757C109.881 135.757 110.604 136.48 110.604 137.372C110.604 138.264 109.881 138.988 108.989 138.988Z" fill="#272727"/>
<path d="M108.989 147.479C108.096 147.479 107.373 146.756 107.373 145.863C107.373 144.971 108.096 144.248 108.989 144.248C109.881 144.248 110.604 144.971 110.604 145.863C110.604 146.756 109.881 147.479 108.989 147.479Z" fill="#272727"/>
<path d="M108.989 155.969C108.096 155.969 107.373 155.247 107.373 154.355C107.373 153.463 108.096 152.739 108.989 152.739C109.881 152.739 110.604 153.463 110.604 154.355C110.604 155.247 109.881 155.969 108.989 155.969Z" fill="#272727"/>
<path d="M108.989 164.461C108.096 164.461 107.373 163.738 107.373 162.845C107.373 161.953 108.096 161.23 108.989 161.23C109.881 161.23 110.604 161.953 110.604 162.845C110.604 163.738 109.881 164.461 108.989 164.461Z" fill="#272727"/>
<path d="M108.989 172.952C108.096 172.952 107.373 172.229 107.373 171.337C107.373 170.445 108.096 169.721 108.989 169.721C109.881 169.721 110.604 170.445 110.604 171.337C110.604 172.229 109.881 172.952 108.989 172.952Z" fill="#272727"/>
<path d="M108.989 181.444C108.096 181.444 107.373 180.72 107.373 179.828C107.373 178.936 108.096 178.213 108.989 178.213C109.881 178.213 110.604 178.936 110.604 179.828C110.604 180.72 109.881 181.444 108.989 181.444Z" fill="#272727"/>
<path d="M108.989 189.935C108.096 189.935 107.373 189.212 107.373 188.32C107.373 187.428 108.096 186.704 108.989 186.704C109.881 186.704 110.604 187.428 110.604 188.32C110.604 189.212 109.881 189.935 108.989 189.935Z" fill="#272727"/>
<path d="M108.989 198.427C108.096 198.427 107.373 197.702 107.373 196.81C107.373 195.918 108.096 195.196 108.989 195.196C109.881 195.196 110.604 195.918 110.604 196.81C110.604 197.702 109.881 198.427 108.989 198.427Z" fill="#272727"/>
<path d="M100.741 62.5667C99.8494 62.5667 99.1267 61.8426 99.1267 60.9506C99.1267 60.0586 99.8494 59.336 100.741 59.336C101.633 59.336 102.357 60.0586 102.357 60.9506C102.357 61.8426 101.633 62.5667 100.741 62.5667Z" fill="#272727"/>
<path d="M100.741 71.0574C99.8494 71.0574 99.1267 70.3347 99.1267 69.4414C99.1267 68.5507 99.8494 67.8267 100.741 67.8267C101.633 67.8267 102.357 68.5507 102.357 69.4414C102.357 70.3347 101.633 71.0574 100.741 71.0574Z" fill="#272727"/>
<path d="M100.741 79.5493C99.8494 79.5493 99.1267 78.8253 99.1267 77.9333C99.1267 77.0413 99.8494 76.3187 100.741 76.3187C101.633 76.3187 102.357 77.0413 102.357 77.9333C102.357 78.8253 101.633 79.5493 100.741 79.5493Z" fill="#272727"/>
<path d="M100.741 88.0398C99.8494 88.0398 99.1267 87.3171 99.1267 86.4251C99.1267 85.5317 99.8494 84.8091 100.741 84.8091C101.633 84.8091 102.357 85.5317 102.357 86.4251C102.357 87.3171 101.633 88.0398 100.741 88.0398Z" fill="#272727"/>
<path d="M100.741 96.5305C99.8494 96.5305 99.1267 95.8079 99.1267 94.9159C99.1267 94.0239 99.8494 93.2999 100.741 93.2999C101.633 93.2999 102.357 94.0239 102.357 94.9159C102.357 95.8079 101.633 96.5305 100.741 96.5305Z" fill="#272727"/>
<path d="M100.741 105.022C99.8494 105.022 99.1267 104.299 99.1267 103.407C99.1267 102.515 99.8494 101.792 100.741 101.792C101.633 101.792 102.357 102.515 102.357 103.407C102.357 104.299 101.633 105.022 100.741 105.022Z" fill="#272727"/>
<path d="M100.741 113.513C99.8494 113.513 99.1267 112.791 99.1267 111.899C99.1267 111.007 99.8494 110.283 100.741 110.283C101.633 110.283 102.357 111.007 102.357 111.899C102.357 112.791 101.633 113.513 100.741 113.513Z" fill="#272727"/>
<path d="M100.741 122.005C99.8494 122.005 99.1267 121.282 99.1267 120.389C99.1267 119.497 99.8494 118.774 100.741 118.774C101.633 118.774 102.357 119.497 102.357 120.389C102.357 121.282 101.633 122.005 100.741 122.005Z" fill="#272727"/>
<path d="M100.741 130.496C99.8494 130.496 99.1267 129.773 99.1267 128.881C99.1267 127.989 99.8494 127.265 100.741 127.265C101.633 127.265 102.357 127.989 102.357 128.881C102.357 129.773 101.633 130.496 100.741 130.496Z" fill="#272727"/>
<path d="M100.741 138.988C99.8494 138.988 99.1267 138.264 99.1267 137.372C99.1267 136.48 99.8494 135.757 100.741 135.757C101.633 135.757 102.357 136.48 102.357 137.372C102.357 138.264 101.633 138.988 100.741 138.988Z" fill="#272727"/>
<path d="M100.741 147.479C99.8494 147.479 99.1267 146.756 99.1267 145.863C99.1267 144.971 99.8494 144.248 100.741 144.248C101.633 144.248 102.357 144.971 102.357 145.863C102.357 146.756 101.633 147.479 100.741 147.479Z" fill="#272727"/>
<path d="M100.741 155.969C99.8494 155.969 99.1267 155.247 99.1267 154.355C99.1267 153.463 99.8494 152.739 100.741 152.739C101.633 152.739 102.357 153.463 102.357 154.355C102.357 155.247 101.633 155.969 100.741 155.969Z" fill="#272727"/>
<path d="M100.741 164.461C99.8494 164.461 99.1267 163.738 99.1267 162.845C99.1267 161.953 99.8494 161.23 100.741 161.23C101.633 161.23 102.357 161.953 102.357 162.845C102.357 163.738 101.633 164.461 100.741 164.461Z" fill="#272727"/>
<path d="M100.741 172.952C99.8494 172.952 99.1267 172.229 99.1267 171.337C99.1267 170.445 99.8494 169.721 100.741 169.721C101.633 169.721 102.357 170.445 102.357 171.337C102.357 172.229 101.633 172.952 100.741 172.952Z" fill="#272727"/>
<path d="M100.741 181.444C99.8494 181.444 99.1267 180.72 99.1267 179.828C99.1267 178.936 99.8494 178.213 100.741 178.213C101.633 178.213 102.357 178.936 102.357 179.828C102.357 180.72 101.633 181.444 100.741 181.444Z" fill="#272727"/>
<path d="M100.741 189.935C99.8494 189.935 99.1267 189.212 99.1267 188.32C99.1267 187.428 99.8494 186.704 100.741 186.704C101.633 186.704 102.357 187.428 102.357 188.32C102.357 189.212 101.633 189.935 100.741 189.935Z" fill="#272727"/>
<path d="M100.741 198.427C99.8494 198.427 99.1267 197.702 99.1267 196.81C99.1267 195.918 99.8494 195.196 100.741 195.196C101.633 195.196 102.357 195.918 102.357 196.81C102.357 197.702 101.633 198.427 100.741 198.427Z" fill="#272727"/>
<path d="M92.4947 62.5667C91.6027 62.5667 90.88 61.8426 90.88 60.9506C90.88 60.0586 91.6027 59.336 92.4947 59.336C93.3867 59.336 94.1107 60.0586 94.1107 60.9506C94.1107 61.8426 93.3867 62.5667 92.4947 62.5667Z" fill="#272727"/>
<path d="M92.4947 71.0574C91.6027 71.0574 90.88 70.3347 90.88 69.4414C90.88 68.5507 91.6027 67.8267 92.4947 67.8267C93.3867 67.8267 94.1107 68.5507 94.1107 69.4414C94.1107 70.3347 93.3867 71.0574 92.4947 71.0574Z" fill="#272727"/>
<path d="M92.4947 79.5493C91.6027 79.5493 90.88 78.8253 90.88 77.9333C90.88 77.0413 91.6027 76.3187 92.4947 76.3187C93.3867 76.3187 94.1107 77.0413 94.1107 77.9333C94.1107 78.8253 93.3867 79.5493 92.4947 79.5493Z" fill="#272727"/>
<path d="M92.4947 88.0398C91.6027 88.0398 90.88 87.3171 90.88 86.4251C90.88 85.5317 91.6027 84.8091 92.4947 84.8091C93.3867 84.8091 94.1107 85.5317 94.1107 86.4251C94.1107 87.3171 93.3867 88.0398 92.4947 88.0398Z" fill="#272727"/>
<path d="M92.4947 96.5305C91.6027 96.5305 90.88 95.8079 90.88 94.9159C90.88 94.0239 91.6027 93.2999 92.4947 93.2999C93.3867 93.2999 94.1107 94.0239 94.1107 94.9159C94.1107 95.8079 93.3867 96.5305 92.4947 96.5305Z" fill="#272727"/>
<path d="M92.4947 105.022C91.6027 105.022 90.88 104.299 90.88 103.407C90.88 102.515 91.6027 101.792 92.4947 101.792C93.3867 101.792 94.1107 102.515 94.1107 103.407C94.1107 104.299 93.3867 105.022 92.4947 105.022Z" fill="#272727"/>
<path d="M92.4947 113.513C91.6027 113.513 90.88 112.791 90.88 111.899C90.88 111.007 91.6027 110.283 92.4947 110.283C93.3867 110.283 94.1107 111.007 94.1107 111.899C94.1107 112.791 93.3867 113.513 92.4947 113.513Z" fill="#272727"/>
<path d="M92.4947 122.005C91.6027 122.005 90.88 121.282 90.88 120.389C90.88 119.497 91.6027 118.774 92.4947 118.774C93.3867 118.774 94.1107 119.497 94.1107 120.389C94.1107 121.282 93.3867 122.005 92.4947 122.005Z" fill="#272727"/>
<path d="M92.4947 130.496C91.6027 130.496 90.88 129.773 90.88 128.881C90.88 127.989 91.6027 127.265 92.4947 127.265C93.3867 127.265 94.1107 127.989 94.1107 128.881C94.1107 129.773 93.3867 130.496 92.4947 130.496Z" fill="#272727"/>
<path d="M92.4947 138.988C91.6027 138.988 90.88 138.264 90.88 137.372C90.88 136.48 91.6027 135.757 92.4947 135.757C93.3867 135.757 94.1107 136.48 94.1107 137.372C94.1107 138.264 93.3867 138.988 92.4947 138.988Z" fill="#272727"/>
<path d="M92.4947 147.479C91.6027 147.479 90.88 146.756 90.88 145.863C90.88 144.971 91.6027 144.248 92.4947 144.248C93.3867 144.248 94.1107 144.971 94.1107 145.863C94.1107 146.756 93.3867 147.479 92.4947 147.479Z" fill="#272727"/>
<path d="M92.4947 155.969C91.6027 155.969 90.88 155.247 90.88 154.355C90.88 153.463 91.6027 152.739 92.4947 152.739C93.3867 152.739 94.1107 153.463 94.1107 154.355C94.1107 155.247 93.3867 155.969 92.4947 155.969Z" fill="#272727"/>
<path d="M92.4947 164.461C91.6027 164.461 90.88 163.738 90.88 162.845C90.88 161.953 91.6027 161.23 92.4947 161.23C93.3867 161.23 94.1107 161.953 94.1107 162.845C94.1107 163.738 93.3867 164.461 92.4947 164.461Z" fill="#272727"/>
<path d="M92.4947 172.952C91.6027 172.952 90.88 172.229 90.88 171.337C90.88 170.445 91.6027 169.721 92.4947 169.721C93.3867 169.721 94.1107 170.445 94.1107 171.337C94.1107 172.229 93.3867 172.952 92.4947 172.952Z" fill="#272727"/>
<path d="M92.4947 181.444C91.6027 181.444 90.88 180.72 90.88 179.828C90.88 178.936 91.6027 178.213 92.4947 178.213C93.3867 178.213 94.1107 178.936 94.1107 179.828C94.1107 180.72 93.3867 181.444 92.4947 181.444Z" fill="#272727"/>
<path d="M92.4947 189.935C91.6027 189.935 90.88 189.212 90.88 188.32C90.88 187.428 91.6027 186.704 92.4947 186.704C93.3867 186.704 94.1107 187.428 94.1107 188.32C94.1107 189.212 93.3867 189.935 92.4947 189.935Z" fill="#272727"/>
<path d="M92.4947 198.427C91.6027 198.427 90.88 197.702 90.88 196.81C90.88 195.918 91.6027 195.196 92.4947 195.196C93.3867 195.196 94.1107 195.918 94.1107 196.81C94.1107 197.702 93.3867 198.427 92.4947 198.427Z" fill="#272727"/>
<path d="M84.248 62.5667C83.356 62.5667 82.6321 61.8426 82.6321 60.9506C82.6321 60.0586 83.356 59.336 84.248 59.336C85.14 59.336 85.8627 60.0586 85.8627 60.9506C85.8627 61.8426 85.14 62.5667 84.248 62.5667Z" fill="#272727"/>
<path d="M84.248 71.0574C83.356 71.0574 82.6321 70.3347 82.6321 69.4414C82.6321 68.5507 83.356 67.8267 84.248 67.8267C85.14 67.8267 85.8627 68.5507 85.8627 69.4414C85.8627 70.3347 85.14 71.0574 84.248 71.0574Z" fill="#272727"/>
<path d="M84.248 79.5493C83.356 79.5493 82.6321 78.8253 82.6321 77.9333C82.6321 77.0413 83.356 76.3187 84.248 76.3187C85.14 76.3187 85.8627 77.0413 85.8627 77.9333C85.8627 78.8253 85.14 79.5493 84.248 79.5493Z" fill="#272727"/>
<path d="M84.248 88.0398C83.356 88.0398 82.6321 87.3171 82.6321 86.4251C82.6321 85.5317 83.356 84.8091 84.248 84.8091C85.14 84.8091 85.8627 85.5317 85.8627 86.4251C85.8627 87.3171 85.14 88.0398 84.248 88.0398Z" fill="#272727"/>
<path d="M84.248 96.5305C83.356 96.5305 82.6321 95.8079 82.6321 94.9159C82.6321 94.0239 83.356 93.2999 84.248 93.2999C85.14 93.2999 85.8627 94.0239 85.8627 94.9159C85.8627 95.8079 85.14 96.5305 84.248 96.5305Z" fill="#272727"/>
<path d="M84.248 105.022C83.356 105.022 82.6321 104.299 82.6321 103.407C82.6321 102.515 83.356 101.792 84.248 101.792C85.14 101.792 85.8627 102.515 85.8627 103.407C85.8627 104.299 85.14 105.022 84.248 105.022Z" fill="#272727"/>
<path d="M84.248 113.513C83.356 113.513 82.6321 112.791 82.6321 111.899C82.6321 111.007 83.356 110.283 84.248 110.283C85.14 110.283 85.8627 111.007 85.8627 111.899C85.8627 112.791 85.14 113.513 84.248 113.513Z" fill="#272727"/>
<path d="M84.248 122.005C83.356 122.005 82.6321 121.282 82.6321 120.389C82.6321 119.497 83.356 118.774 84.248 118.774C85.14 118.774 85.8627 119.497 85.8627 120.389C85.8627 121.282 85.14 122.005 84.248 122.005Z" fill="#272727"/>
<path d="M84.248 130.496C83.356 130.496 82.6321 129.773 82.6321 128.881C82.6321 127.989 83.356 127.265 84.248 127.265C85.14 127.265 85.8627 127.989 85.8627 128.881C85.8627 129.773 85.14 130.496 84.248 130.496Z" fill="#272727"/>
<path d="M84.248 138.988C83.356 138.988 82.6321 138.264 82.6321 137.372C82.6321 136.48 83.356 135.757 84.248 135.757C85.14 135.757 85.8627 136.48 85.8627 137.372C85.8627 138.264 85.14 138.988 84.248 138.988Z" fill="#272727"/>
<path d="M84.248 147.479C83.356 147.479 82.6321 146.756 82.6321 145.863C82.6321 144.971 83.356 144.248 84.248 144.248C85.14 144.248 85.8627 144.971 85.8627 145.863C85.8627 146.756 85.14 147.479 84.248 147.479Z" fill="#272727"/>
<path d="M84.248 155.969C83.356 155.969 82.6321 155.247 82.6321 154.355C82.6321 153.463 83.356 152.739 84.248 152.739C85.14 152.739 85.8627 153.463 85.8627 154.355C85.8627 155.247 85.14 155.969 84.248 155.969Z" fill="#272727"/>
<path d="M84.248 164.461C83.356 164.461 82.6321 163.738 82.6321 162.845C82.6321 161.953 83.356 161.23 84.248 161.23C85.14 161.23 85.8627 161.953 85.8627 162.845C85.8627 163.738 85.14 164.461 84.248 164.461Z" fill="#272727"/>
<path d="M84.248 172.952C83.356 172.952 82.6321 172.229 82.6321 171.337C82.6321 170.445 83.356 169.721 84.248 169.721C85.14 169.721 85.8627 170.445 85.8627 171.337C85.8627 172.229 85.14 172.952 84.248 172.952Z" fill="#272727"/>
<path d="M84.248 181.444C83.356 181.444 82.6321 180.72 82.6321 179.828C82.6321 178.936 83.356 178.213 84.248 178.213C85.14 178.213 85.8627 178.936 85.8627 179.828C85.8627 180.72 85.14 181.444 84.248 181.444Z" fill="#272727"/>
<path d="M84.248 189.935C83.356 189.935 82.6321 189.212 82.6321 188.32C82.6321 187.428 83.356 186.704 84.248 186.704C85.14 186.704 85.8627 187.428 85.8627 188.32C85.8627 189.212 85.14 189.935 84.248 189.935Z" fill="#272727"/>
<path d="M84.248 198.427C83.356 198.427 82.6321 197.702 82.6321 196.81C82.6321 195.918 83.356 195.196 84.248 195.196C85.14 195.196 85.8627 195.918 85.8627 196.81C85.8627 197.702 85.14 198.427 84.248 198.427Z" fill="#272727"/>
<path d="M76.0014 62.5667C75.1081 62.5667 74.3854 61.8426 74.3854 60.9506C74.3854 60.0586 75.1081 59.336 76.0014 59.336C76.8934 59.336 77.616 60.0586 77.616 60.9506C77.616 61.8426 76.8934 62.5667 76.0014 62.5667Z" fill="#272727"/>
<path d="M76.0014 71.0574C75.1081 71.0574 74.3854 70.3347 74.3854 69.4414C74.3854 68.5507 75.1081 67.8267 76.0014 67.8267C76.8934 67.8267 77.616 68.5507 77.616 69.4414C77.616 70.3347 76.8934 71.0574 76.0014 71.0574Z" fill="#272727"/>
<path d="M76.0014 79.5493C75.1081 79.5493 74.3854 78.8253 74.3854 77.9333C74.3854 77.0413 75.1081 76.3187 76.0014 76.3187C76.8934 76.3187 77.616 77.0413 77.616 77.9333C77.616 78.8253 76.8934 79.5493 76.0014 79.5493Z" fill="#272727"/>
<path d="M76.0014 88.0398C75.1081 88.0398 74.3854 87.3171 74.3854 86.4251C74.3854 85.5317 75.1081 84.8091 76.0014 84.8091C76.8934 84.8091 77.616 85.5317 77.616 86.4251C77.616 87.3171 76.8934 88.0398 76.0014 88.0398Z" fill="#272727"/>
<path d="M76.0014 96.5305C75.1081 96.5305 74.3854 95.8079 74.3854 94.9159C74.3854 94.0239 75.1081 93.2999 76.0014 93.2999C76.8934 93.2999 77.616 94.0239 77.616 94.9159C77.616 95.8079 76.8934 96.5305 76.0014 96.5305Z" fill="#272727"/>
<path d="M76.0014 105.022C75.1081 105.022 74.3854 104.299 74.3854 103.407C74.3854 102.515 75.1081 101.792 76.0014 101.792C76.8934 101.792 77.616 102.515 77.616 103.407C77.616 104.299 76.8934 105.022 76.0014 105.022Z" fill="#272727"/>
<path d="M76.0014 113.513C75.1081 113.513 74.3854 112.791 74.3854 111.899C74.3854 111.007 75.1081 110.283 76.0014 110.283C76.8934 110.283 77.616 111.007 77.616 111.899C77.616 112.791 76.8934 113.513 76.0014 113.513Z" fill="#272727"/>
<path d="M76.0014 122.005C75.1081 122.005 74.3854 121.282 74.3854 120.389C74.3854 119.497 75.1081 118.774 76.0014 118.774C76.8934 118.774 77.616 119.497 77.616 120.389C77.616 121.282 76.8934 122.005 76.0014 122.005Z" fill="#272727"/>
<path d="M76.0014 130.496C75.1081 130.496 74.3854 129.773 74.3854 128.881C74.3854 127.989 75.1081 127.265 76.0014 127.265C76.8934 127.265 77.616 127.989 77.616 128.881C77.616 129.773 76.8934 130.496 76.0014 130.496Z" fill="#272727"/>
<path d="M76.0014 138.988C75.1081 138.988 74.3854 138.264 74.3854 137.372C74.3854 136.48 75.1081 135.757 76.0014 135.757C76.8934 135.757 77.616 136.48 77.616 137.372C77.616 138.264 76.8934 138.988 76.0014 138.988Z" fill="#272727"/>
<path d="M76.0014 147.479C75.1081 147.479 74.3854 146.756 74.3854 145.863C74.3854 144.971 75.1081 144.248 76.0014 144.248C76.8934 144.248 77.616 144.971 77.616 145.863C77.616 146.756 76.8934 147.479 76.0014 147.479Z" fill="#272727"/>
<path d="M76.0014 155.969C75.1081 155.969 74.3854 155.247 74.3854 154.355C74.3854 153.463 75.1081 152.739 76.0014 152.739C76.8934 152.739 77.616 153.463 77.616 154.355C77.616 155.247 76.8934 155.969 76.0014 155.969Z" fill="#272727"/>
<path d="M76.0014 164.461C75.1081 164.461 74.3854 163.738 74.3854 162.845C74.3854 161.953 75.1081 161.23 76.0014 161.23C76.8934 161.23 77.616 161.953 77.616 162.845C77.616 163.738 76.8934 164.461 76.0014 164.461Z" fill="#272727"/>
<path d="M76.0014 172.952C75.1081 172.952 74.3854 172.229 74.3854 171.337C74.3854 170.445 75.1081 169.721 76.0014 169.721C76.8934 169.721 77.616 170.445 77.616 171.337C77.616 172.229 76.8934 172.952 76.0014 172.952Z" fill="#272727"/>
<path d="M76.0014 181.444C75.1081 181.444 74.3854 180.72 74.3854 179.828C74.3854 178.936 75.1081 178.213 76.0014 178.213C76.8934 178.213 77.616 178.936 77.616 179.828C77.616 180.72 76.8934 181.444 76.0014 181.444Z" fill="#272727"/>
<path d="M76.0014 189.935C75.1081 189.935 74.3854 189.212 74.3854 188.32C74.3854 187.428 75.1081 186.704 76.0014 186.704C76.8934 186.704 77.616 187.428 77.616 188.32C77.616 189.212 76.8934 189.935 76.0014 189.935Z" fill="#272727"/>
<path d="M76.0014 198.427C75.1081 198.427 74.3854 197.702 74.3854 196.81C74.3854 195.918 75.1081 195.196 76.0014 195.196C76.8934 195.196 77.616 195.918 77.616 196.81C77.616 197.702 76.8934 198.427 76.0014 198.427Z" fill="#272727"/>
<path d="M67.7533 62.5667C66.8613 62.5667 66.1387 61.8426 66.1387 60.9506C66.1387 60.0586 66.8613 59.336 67.7533 59.336C68.6453 59.336 69.3693 60.0586 69.3693 60.9506C69.3693 61.8426 68.6453 62.5667 67.7533 62.5667Z" fill="#272727"/>
<path d="M67.7533 71.0574C66.8613 71.0574 66.1387 70.3347 66.1387 69.4414C66.1387 68.5507 66.8613 67.8267 67.7533 67.8267C68.6453 67.8267 69.3693 68.5507 69.3693 69.4414C69.3693 70.3347 68.6453 71.0574 67.7533 71.0574Z" fill="#272727"/>
<path d="M67.7533 79.5493C66.8613 79.5493 66.1387 78.8253 66.1387 77.9333C66.1387 77.0413 66.8613 76.3187 67.7533 76.3187C68.6453 76.3187 69.3693 77.0413 69.3693 77.9333C69.3693 78.8253 68.6453 79.5493 67.7533 79.5493Z" fill="#272727"/>
<path d="M67.7533 88.0398C66.8613 88.0398 66.1387 87.3171 66.1387 86.4251C66.1387 85.5317 66.8613 84.8091 67.7533 84.8091C68.6453 84.8091 69.3693 85.5317 69.3693 86.4251C69.3693 87.3171 68.6453 88.0398 67.7533 88.0398Z" fill="#272727"/>
<path d="M67.7533 96.5305C66.8613 96.5305 66.1387 95.8079 66.1387 94.9159C66.1387 94.0239 66.8613 93.2999 67.7533 93.2999C68.6453 93.2999 69.3693 94.0239 69.3693 94.9159C69.3693 95.8079 68.6453 96.5305 67.7533 96.5305Z" fill="#272727"/>
<path d="M67.7533 105.022C66.8613 105.022 66.1387 104.299 66.1387 103.407C66.1387 102.515 66.8613 101.792 67.7533 101.792C68.6453 101.792 69.3693 102.515 69.3693 103.407C69.3693 104.299 68.6453 105.022 67.7533 105.022Z" fill="#272727"/>
<path d="M67.7533 113.513C66.8613 113.513 66.1387 112.791 66.1387 111.899C66.1387 111.007 66.8613 110.283 67.7533 110.283C68.6453 110.283 69.3693 111.007 69.3693 111.899C69.3693 112.791 68.6453 113.513 67.7533 113.513Z" fill="#272727"/>
<path d="M67.7533 122.005C66.8613 122.005 66.1387 121.282 66.1387 120.389C66.1387 119.497 66.8613 118.774 67.7533 118.774C68.6453 118.774 69.3693 119.497 69.3693 120.389C69.3693 121.282 68.6453 122.005 67.7533 122.005Z" fill="#272727"/>
<path d="M67.7533 130.496C66.8613 130.496 66.1387 129.773 66.1387 128.881C66.1387 127.989 66.8613 127.265 67.7533 127.265C68.6453 127.265 69.3693 127.989 69.3693 128.881C69.3693 129.773 68.6453 130.496 67.7533 130.496Z" fill="#272727"/>
<path d="M67.7533 138.988C66.8613 138.988 66.1387 138.264 66.1387 137.372C66.1387 136.48 66.8613 135.757 67.7533 135.757C68.6453 135.757 69.3693 136.48 69.3693 137.372C69.3693 138.264 68.6453 138.988 67.7533 138.988Z" fill="#272727"/>
<path d="M67.7533 147.479C66.8613 147.479 66.1387 146.756 66.1387 145.863C66.1387 144.971 66.8613 144.248 67.7533 144.248C68.6453 144.248 69.3693 144.971 69.3693 145.863C69.3693 146.756 68.6453 147.479 67.7533 147.479Z" fill="#272727"/>
<path d="M67.7533 155.969C66.8613 155.969 66.1387 155.247 66.1387 154.355C66.1387 153.463 66.8613 152.739 67.7533 152.739C68.6453 152.739 69.3693 153.463 69.3693 154.355C69.3693 155.247 68.6453 155.969 67.7533 155.969Z" fill="#272727"/>
<path d="M67.7533 164.461C66.8613 164.461 66.1387 163.738 66.1387 162.845C66.1387 161.953 66.8613 161.23 67.7533 161.23C68.6453 161.23 69.3693 161.953 69.3693 162.845C69.3693 163.738 68.6453 164.461 67.7533 164.461Z" fill="#272727"/>
<path d="M67.7533 172.952C66.8613 172.952 66.1387 172.229 66.1387 171.337C66.1387 170.445 66.8613 169.721 67.7533 169.721C68.6453 169.721 69.3693 170.445 69.3693 171.337C69.3693 172.229 68.6453 172.952 67.7533 172.952Z" fill="#272727"/>
<path d="M67.7533 181.444C66.8613 181.444 66.1387 180.72 66.1387 179.828C66.1387 178.936 66.8613 178.213 67.7533 178.213C68.6453 178.213 69.3693 178.936 69.3693 179.828C69.3693 180.72 68.6453 181.444 67.7533 181.444Z" fill="#272727"/>
<path d="M67.7533 189.935C66.8613 189.935 66.1387 189.212 66.1387 188.32C66.1387 187.428 66.8613 186.704 67.7533 186.704C68.6453 186.704 69.3693 187.428 69.3693 188.32C69.3693 189.212 68.6453 189.935 67.7533 189.935Z" fill="#272727"/>
<path d="M67.7533 198.427C66.8613 198.427 66.1387 197.702 66.1387 196.81C66.1387 195.918 66.8613 195.196 67.7533 195.196C68.6453 195.196 69.3693 195.918 69.3693 196.81C69.3693 197.702 68.6453 198.427 67.7533 198.427Z" fill="#272727"/>
<path d="M59.5066 62.5667C58.6146 62.5667 57.8906 61.8426 57.8906 60.9506C57.8906 60.0586 58.6146 59.336 59.5066 59.336C60.3986 59.336 61.1226 60.0586 61.1226 60.9506C61.1226 61.8426 60.3986 62.5667 59.5066 62.5667Z" fill="#272727"/>
<path d="M59.5066 71.0574C58.6146 71.0574 57.8906 70.3347 57.8906 69.4414C57.8906 68.5507 58.6146 67.8267 59.5066 67.8267C60.3986 67.8267 61.1226 68.5507 61.1226 69.4414C61.1226 70.3347 60.3986 71.0574 59.5066 71.0574Z" fill="#272727"/>
<path d="M59.5066 79.5493C58.6146 79.5493 57.8906 78.8253 57.8906 77.9333C57.8906 77.0413 58.6146 76.3187 59.5066 76.3187C60.3986 76.3187 61.1226 77.0413 61.1226 77.9333C61.1226 78.8253 60.3986 79.5493 59.5066 79.5493Z" fill="#272727"/>
<path d="M59.5066 88.0398C58.6146 88.0398 57.8906 87.3171 57.8906 86.4251C57.8906 85.5317 58.6146 84.8091 59.5066 84.8091C60.3986 84.8091 61.1226 85.5317 61.1226 86.4251C61.1226 87.3171 60.3986 88.0398 59.5066 88.0398Z" fill="#272727"/>
<path d="M59.5066 96.5305C58.6146 96.5305 57.8906 95.8079 57.8906 94.9159C57.8906 94.0239 58.6146 93.2999 59.5066 93.2999C60.3986 93.2999 61.1226 94.0239 61.1226 94.9159C61.1226 95.8079 60.3986 96.5305 59.5066 96.5305Z" fill="#272727"/>
<path d="M59.5066 105.022C58.6146 105.022 57.8906 104.299 57.8906 103.407C57.8906 102.515 58.6146 101.792 59.5066 101.792C60.3986 101.792 61.1226 102.515 61.1226 103.407C61.1226 104.299 60.3986 105.022 59.5066 105.022Z" fill="#272727"/>
<path d="M59.5066 113.513C58.6146 113.513 57.8906 112.791 57.8906 111.899C57.8906 111.007 58.6146 110.283 59.5066 110.283C60.3986 110.283 61.1226 111.007 61.1226 111.899C61.1226 112.791 60.3986 113.513 59.5066 113.513Z" fill="#272727"/>
<path d="M59.5066 122.005C58.6146 122.005 57.8906 121.282 57.8906 120.389C57.8906 119.497 58.6146 118.774 59.5066 118.774C60.3986 118.774 61.1226 119.497 61.1226 120.389C61.1226 121.282 60.3986 122.005 59.5066 122.005Z" fill="#272727"/>
<path d="M59.5066 130.496C58.6146 130.496 57.8906 129.773 57.8906 128.881C57.8906 127.989 58.6146 127.265 59.5066 127.265C60.3986 127.265 61.1226 127.989 61.1226 128.881C61.1226 129.773 60.3986 130.496 59.5066 130.496Z" fill="#272727"/>
<path d="M59.5066 138.988C58.6146 138.988 57.8906 138.264 57.8906 137.372C57.8906 136.48 58.6146 135.757 59.5066 135.757C60.3986 135.757 61.1226 136.48 61.1226 137.372C61.1226 138.264 60.3986 138.988 59.5066 138.988Z" fill="#272727"/>
<path d="M59.5066 147.479C58.6146 147.479 57.8906 146.756 57.8906 145.863C57.8906 144.971 58.6146 144.248 59.5066 144.248C60.3986 144.248 61.1226 144.971 61.1226 145.863C61.1226 146.756 60.3986 147.479 59.5066 147.479Z" fill="#272727"/>
<path d="M59.5066 155.969C58.6146 155.969 57.8906 155.247 57.8906 154.355C57.8906 153.463 58.6146 152.739 59.5066 152.739C60.3986 152.739 61.1226 153.463 61.1226 154.355C61.1226 155.247 60.3986 155.969 59.5066 155.969Z" fill="#272727"/>
<path d="M59.5066 164.461C58.6146 164.461 57.8906 163.738 57.8906 162.845C57.8906 161.953 58.6146 161.23 59.5066 161.23C60.3986 161.23 61.1226 161.953 61.1226 162.845C61.1226 163.738 60.3986 164.461 59.5066 164.461Z" fill="#272727"/>
<path d="M59.5066 172.952C58.6146 172.952 57.8906 172.229 57.8906 171.337C57.8906 170.445 58.6146 169.721 59.5066 169.721C60.3986 169.721 61.1226 170.445 61.1226 171.337C61.1226 172.229 60.3986 172.952 59.5066 172.952Z" fill="#272727"/>
<path d="M59.5066 181.444C58.6146 181.444 57.8906 180.72 57.8906 179.828C57.8906 178.936 58.6146 178.213 59.5066 178.213C60.3986 178.213 61.1226 178.936 61.1226 179.828C61.1226 180.72 60.3986 181.444 59.5066 181.444Z" fill="#272727"/>
<path d="M59.5066 189.935C58.6146 189.935 57.8906 189.212 57.8906 188.32C57.8906 187.428 58.6146 186.704 59.5066 186.704C60.3986 186.704 61.1226 187.428 61.1226 188.32C61.1226 189.212 60.3986 189.935 59.5066 189.935Z" fill="#272727"/>
<path d="M59.5066 198.427C58.6146 198.427 57.8906 197.702 57.8906 196.81C57.8906 195.918 58.6146 195.196 59.5066 195.196C60.3986 195.196 61.1226 195.918 61.1226 196.81C61.1226 197.702 60.3986 198.427 59.5066 198.427Z" fill="#272727"/>
<path d="M51.2601 62.5667C50.3681 62.5667 49.644 61.8426 49.644 60.9506C49.644 60.0586 50.3681 59.336 51.2601 59.336C52.1521 59.336 52.8747 60.0586 52.8747 60.9506C52.8747 61.8426 52.1521 62.5667 51.2601 62.5667Z" fill="#272727"/>
<path d="M51.2601 71.0574C50.3681 71.0574 49.644 70.3347 49.644 69.4414C49.644 68.5507 50.3681 67.8267 51.2601 67.8267C52.1521 67.8267 52.8747 68.5507 52.8747 69.4414C52.8747 70.3347 52.1521 71.0574 51.2601 71.0574Z" fill="#272727"/>
<path d="M51.2601 79.5493C50.3681 79.5493 49.644 78.8253 49.644 77.9333C49.644 77.0413 50.3681 76.3187 51.2601 76.3187C52.1521 76.3187 52.8747 77.0413 52.8747 77.9333C52.8747 78.8253 52.1521 79.5493 51.2601 79.5493Z" fill="#272727"/>
<path d="M51.2601 88.0398C50.3681 88.0398 49.644 87.3171 49.644 86.4251C49.644 85.5317 50.3681 84.8091 51.2601 84.8091C52.1521 84.8091 52.8747 85.5317 52.8747 86.4251C52.8747 87.3171 52.1521 88.0398 51.2601 88.0398Z" fill="#272727"/>
<path d="M51.2601 96.5305C50.3681 96.5305 49.644 95.8079 49.644 94.9159C49.644 94.0239 50.3681 93.2999 51.2601 93.2999C52.1521 93.2999 52.8747 94.0239 52.8747 94.9159C52.8747 95.8079 52.1521 96.5305 51.2601 96.5305Z" fill="#272727"/>
<path d="M51.2601 105.022C50.3681 105.022 49.644 104.299 49.644 103.407C49.644 102.515 50.3681 101.792 51.2601 101.792C52.1521 101.792 52.8747 102.515 52.8747 103.407C52.8747 104.299 52.1521 105.022 51.2601 105.022Z" fill="#272727"/>
<path d="M51.2601 113.513C50.3681 113.513 49.644 112.791 49.644 111.899C49.644 111.007 50.3681 110.283 51.2601 110.283C52.1521 110.283 52.8747 111.007 52.8747 111.899C52.8747 112.791 52.1521 113.513 51.2601 113.513Z" fill="#272727"/>
<path d="M51.2601 122.005C50.3681 122.005 49.644 121.282 49.644 120.389C49.644 119.497 50.3681 118.774 51.2601 118.774C52.1521 118.774 52.8747 119.497 52.8747 120.389C52.8747 121.282 52.1521 122.005 51.2601 122.005Z" fill="#272727"/>
<path d="M51.2601 130.496C50.3681 130.496 49.644 129.773 49.644 128.881C49.644 127.989 50.3681 127.265 51.2601 127.265C52.1521 127.265 52.8747 127.989 52.8747 128.881C52.8747 129.773 52.1521 130.496 51.2601 130.496Z" fill="#272727"/>
<path d="M51.2601 138.988C50.3681 138.988 49.644 138.264 49.644 137.372C49.644 136.48 50.3681 135.757 51.2601 135.757C52.1521 135.757 52.8747 136.48 52.8747 137.372C52.8747 138.264 52.1521 138.988 51.2601 138.988Z" fill="#272727"/>
<path d="M51.2601 147.479C50.3681 147.479 49.644 146.756 49.644 145.863C49.644 144.971 50.3681 144.248 51.2601 144.248C52.1521 144.248 52.8747 144.971 52.8747 145.863C52.8747 146.756 52.1521 147.479 51.2601 147.479Z" fill="#272727"/>
<path d="M51.2601 155.969C50.3681 155.969 49.644 155.247 49.644 154.355C49.644 153.463 50.3681 152.739 51.2601 152.739C52.1521 152.739 52.8747 153.463 52.8747 154.355C52.8747 155.247 52.1521 155.969 51.2601 155.969Z" fill="#272727"/>
<path d="M51.2601 164.461C50.3681 164.461 49.644 163.738 49.644 162.845C49.644 161.953 50.3681 161.23 51.2601 161.23C52.1521 161.23 52.8747 161.953 52.8747 162.845C52.8747 163.738 52.1521 164.461 51.2601 164.461Z" fill="#272727"/>
<path d="M51.2601 172.952C50.3681 172.952 49.644 172.229 49.644 171.337C49.644 170.445 50.3681 169.721 51.2601 169.721C52.1521 169.721 52.8747 170.445 52.8747 171.337C52.8747 172.229 52.1521 172.952 51.2601 172.952Z" fill="#272727"/>
<path d="M51.2601 181.444C50.3681 181.444 49.644 180.72 49.644 179.828C49.644 178.936 50.3681 178.213 51.2601 178.213C52.1521 178.213 52.8747 178.936 52.8747 179.828C52.8747 180.72 52.1521 181.444 51.2601 181.444Z" fill="#272727"/>
<path d="M51.2601 189.935C50.3681 189.935 49.644 189.212 49.644 188.32C49.644 187.428 50.3681 186.704 51.2601 186.704C52.1521 186.704 52.8747 187.428 52.8747 188.32C52.8747 189.212 52.1521 189.935 51.2601 189.935Z" fill="#272727"/>
<path d="M51.2601 198.427C50.3681 198.427 49.644 197.702 49.644 196.81C49.644 195.918 50.3681 195.196 51.2601 195.196C52.1521 195.196 52.8747 195.918 52.8747 196.81C52.8747 197.702 52.1521 198.427 51.2601 198.427Z" fill="#272727"/>
<path d="M43.0121 62.5667C42.1201 62.5667 41.3973 61.8426 41.3973 60.9506C41.3973 60.0586 42.1201 59.336 43.0121 59.336C43.9054 59.336 44.628 60.0586 44.628 60.9506C44.628 61.8426 43.9054 62.5667 43.0121 62.5667Z" fill="#272727"/>
<path d="M43.0121 71.0574C42.1201 71.0574 41.3973 70.3347 41.3973 69.4414C41.3973 68.5507 42.1201 67.8267 43.0121 67.8267C43.9054 67.8267 44.628 68.5507 44.628 69.4414C44.628 70.3347 43.9054 71.0574 43.0121 71.0574Z" fill="#272727"/>
<path d="M43.0121 79.5493C42.1201 79.5493 41.3973 78.8253 41.3973 77.9333C41.3973 77.0413 42.1201 76.3187 43.0121 76.3187C43.9054 76.3187 44.628 77.0413 44.628 77.9333C44.628 78.8253 43.9054 79.5493 43.0121 79.5493Z" fill="#272727"/>
<path d="M43.0121 88.0398C42.1201 88.0398 41.3973 87.3171 41.3973 86.4251C41.3973 85.5317 42.1201 84.8091 43.0121 84.8091C43.9054 84.8091 44.628 85.5317 44.628 86.4251C44.628 87.3171 43.9054 88.0398 43.0121 88.0398Z" fill="#272727"/>
<path d="M43.0121 96.5305C42.1201 96.5305 41.3973 95.8079 41.3973 94.9159C41.3973 94.0239 42.1201 93.2999 43.0121 93.2999C43.9054 93.2999 44.628 94.0239 44.628 94.9159C44.628 95.8079 43.9054 96.5305 43.0121 96.5305Z" fill="#272727"/>
<path d="M43.0121 105.022C42.1201 105.022 41.3973 104.299 41.3973 103.407C41.3973 102.515 42.1201 101.792 43.0121 101.792C43.9054 101.792 44.628 102.515 44.628 103.407C44.628 104.299 43.9054 105.022 43.0121 105.022Z" fill="#272727"/>
<path d="M43.0121 113.513C42.1201 113.513 41.3973 112.791 41.3973 111.899C41.3973 111.007 42.1201 110.283 43.0121 110.283C43.9054 110.283 44.628 111.007 44.628 111.899C44.628 112.791 43.9054 113.513 43.0121 113.513Z" fill="#272727"/>
<path d="M43.0121 122.005C42.1201 122.005 41.3973 121.282 41.3973 120.389C41.3973 119.497 42.1201 118.774 43.0121 118.774C43.9054 118.774 44.628 119.497 44.628 120.389C44.628 121.282 43.9054 122.005 43.0121 122.005Z" fill="#272727"/>
<path d="M43.0121 130.496C42.1201 130.496 41.3973 129.773 41.3973 128.881C41.3973 127.989 42.1201 127.265 43.0121 127.265C43.9054 127.265 44.628 127.989 44.628 128.881C44.628 129.773 43.9054 130.496 43.0121 130.496Z" fill="#272727"/>
<path d="M43.0121 138.988C42.1201 138.988 41.3973 138.264 41.3973 137.372C41.3973 136.48 42.1201 135.757 43.0121 135.757C43.9054 135.757 44.628 136.48 44.628 137.372C44.628 138.264 43.9054 138.988 43.0121 138.988Z" fill="#272727"/>
<path d="M43.0121 147.479C42.1201 147.479 41.3973 146.756 41.3973 145.863C41.3973 144.971 42.1201 144.248 43.0121 144.248C43.9054 144.248 44.628 144.971 44.628 145.863C44.628 146.756 43.9054 147.479 43.0121 147.479Z" fill="#272727"/>
<path d="M43.0121 155.969C42.1201 155.969 41.3973 155.247 41.3973 154.355C41.3973 153.463 42.1201 152.739 43.0121 152.739C43.9054 152.739 44.628 153.463 44.628 154.355C44.628 155.247 43.9054 155.969 43.0121 155.969Z" fill="#272727"/>
<path d="M43.0121 164.461C42.1201 164.461 41.3973 163.738 41.3973 162.845C41.3973 161.953 42.1201 161.23 43.0121 161.23C43.9054 161.23 44.628 161.953 44.628 162.845C44.628 163.738 43.9054 164.461 43.0121 164.461Z" fill="#272727"/>
<path d="M43.0121 172.952C42.1201 172.952 41.3973 172.229 41.3973 171.337C41.3973 170.445 42.1201 169.721 43.0121 169.721C43.9054 169.721 44.628 170.445 44.628 171.337C44.628 172.229 43.9054 172.952 43.0121 172.952Z" fill="#272727"/>
<path d="M43.0121 181.444C42.1201 181.444 41.3973 180.72 41.3973 179.828C41.3973 178.936 42.1201 178.213 43.0121 178.213C43.9054 178.213 44.628 178.936 44.628 179.828C44.628 180.72 43.9054 181.444 43.0121 181.444Z" fill="#272727"/>
<path d="M43.0121 189.935C42.1201 189.935 41.3973 189.212 41.3973 188.32C41.3973 187.428 42.1201 186.704 43.0121 186.704C43.9054 186.704 44.628 187.428 44.628 188.32C44.628 189.212 43.9054 189.935 43.0121 189.935Z" fill="#272727"/>
<path d="M43.0121 198.427C42.1201 198.427 41.3973 197.702 41.3973 196.81C41.3973 195.918 42.1201 195.196 43.0121 195.196C43.9054 195.196 44.628 195.918 44.628 196.81C44.628 197.702 43.9054 198.427 43.0121 198.427Z" fill="#272727"/>
<path d="M34.7653 62.5667C33.8733 62.5667 33.1506 61.8426 33.1506 60.9506C33.1506 60.0586 33.8733 59.336 34.7653 59.336C35.6573 59.336 36.3813 60.0586 36.3813 60.9506C36.3813 61.8426 35.6573 62.5667 34.7653 62.5667Z" fill="#272727"/>
<path d="M34.7653 71.0574C33.8733 71.0574 33.1506 70.3347 33.1506 69.4414C33.1506 68.5507 33.8733 67.8267 34.7653 67.8267C35.6573 67.8267 36.3813 68.5507 36.3813 69.4414C36.3813 70.3347 35.6573 71.0574 34.7653 71.0574Z" fill="#272727"/>
<path d="M34.7653 79.5493C33.8733 79.5493 33.1506 78.8253 33.1506 77.9333C33.1506 77.0413 33.8733 76.3187 34.7653 76.3187C35.6573 76.3187 36.3813 77.0413 36.3813 77.9333C36.3813 78.8253 35.6573 79.5493 34.7653 79.5493Z" fill="#272727"/>
<path d="M34.7653 88.0398C33.8733 88.0398 33.1506 87.3171 33.1506 86.4251C33.1506 85.5317 33.8733 84.8091 34.7653 84.8091C35.6573 84.8091 36.3813 85.5317 36.3813 86.4251C36.3813 87.3171 35.6573 88.0398 34.7653 88.0398Z" fill="#272727"/>
<path d="M34.7653 96.5305C33.8733 96.5305 33.1506 95.8079 33.1506 94.9159C33.1506 94.0239 33.8733 93.2999 34.7653 93.2999C35.6573 93.2999 36.3813 94.0239 36.3813 94.9159C36.3813 95.8079 35.6573 96.5305 34.7653 96.5305Z" fill="#272727"/>
<path d="M34.7653 105.022C33.8733 105.022 33.1506 104.299 33.1506 103.407C33.1506 102.515 33.8733 101.792 34.7653 101.792C35.6573 101.792 36.3813 102.515 36.3813 103.407C36.3813 104.299 35.6573 105.022 34.7653 105.022Z" fill="#272727"/>
<path d="M34.7653 113.513C33.8733 113.513 33.1506 112.791 33.1506 111.899C33.1506 111.007 33.8733 110.283 34.7653 110.283C35.6573 110.283 36.3813 111.007 36.3813 111.899C36.3813 112.791 35.6573 113.513 34.7653 113.513Z" fill="#272727"/>
<path d="M34.7653 122.005C33.8733 122.005 33.1506 121.282 33.1506 120.389C33.1506 119.497 33.8733 118.774 34.7653 118.774C35.6573 118.774 36.3813 119.497 36.3813 120.389C36.3813 121.282 35.6573 122.005 34.7653 122.005Z" fill="#272727"/>
<path d="M34.7653 130.496C33.8733 130.496 33.1506 129.773 33.1506 128.881C33.1506 127.989 33.8733 127.265 34.7653 127.265C35.6573 127.265 36.3813 127.989 36.3813 128.881C36.3813 129.773 35.6573 130.496 34.7653 130.496Z" fill="#272727"/>
<path d="M34.7653 138.988C33.8733 138.988 33.1506 138.264 33.1506 137.372C33.1506 136.48 33.8733 135.757 34.7653 135.757C35.6573 135.757 36.3813 136.48 36.3813 137.372C36.3813 138.264 35.6573 138.988 34.7653 138.988Z" fill="#272727"/>
<path d="M34.7653 147.479C33.8733 147.479 33.1506 146.756 33.1506 145.863C33.1506 144.971 33.8733 144.248 34.7653 144.248C35.6573 144.248 36.3813 144.971 36.3813 145.863C36.3813 146.756 35.6573 147.479 34.7653 147.479Z" fill="#272727"/>
<path d="M34.7653 155.969C33.8733 155.969 33.1506 155.247 33.1506 154.355C33.1506 153.463 33.8733 152.739 34.7653 152.739C35.6573 152.739 36.3813 153.463 36.3813 154.355C36.3813 155.247 35.6573 155.969 34.7653 155.969Z" fill="#272727"/>
<path d="M34.7653 164.461C33.8733 164.461 33.1506 163.738 33.1506 162.845C33.1506 161.953 33.8733 161.23 34.7653 161.23C35.6573 161.23 36.3813 161.953 36.3813 162.845C36.3813 163.738 35.6573 164.461 34.7653 164.461Z" fill="#272727"/>
<path d="M34.7653 172.952C33.8733 172.952 33.1506 172.229 33.1506 171.337C33.1506 170.445 33.8733 169.721 34.7653 169.721C35.6573 169.721 36.3813 170.445 36.3813 171.337C36.3813 172.229 35.6573 172.952 34.7653 172.952Z" fill="#272727"/>
<path d="M34.7653 181.444C33.8733 181.444 33.1506 180.72 33.1506 179.828C33.1506 178.936 33.8733 178.213 34.7653 178.213C35.6573 178.213 36.3813 178.936 36.3813 179.828C36.3813 180.72 35.6573 181.444 34.7653 181.444Z" fill="#272727"/>
<path d="M34.7653 189.935C33.8733 189.935 33.1506 189.212 33.1506 188.32C33.1506 187.428 33.8733 186.704 34.7653 186.704C35.6573 186.704 36.3813 187.428 36.3813 188.32C36.3813 189.212 35.6573 189.935 34.7653 189.935Z" fill="#272727"/>
<path d="M34.7653 198.427C33.8733 198.427 33.1506 197.702 33.1506 196.81C33.1506 195.918 33.8733 195.196 34.7653 195.196C35.6573 195.196 36.3813 195.918 36.3813 196.81C36.3813 197.702 35.6573 198.427 34.7653 198.427Z" fill="#272727"/>
<path d="M26.5186 62.5667C25.6266 62.5667 24.9026 61.8426 24.9026 60.9506C24.9026 60.0586 25.6266 59.336 26.5186 59.336C27.4106 59.336 28.1333 60.0586 28.1333 60.9506C28.1333 61.8426 27.4106 62.5667 26.5186 62.5667Z" fill="#272727"/>
<path d="M26.5186 71.0574C25.6266 71.0574 24.9026 70.3347 24.9026 69.4414C24.9026 68.5507 25.6266 67.8267 26.5186 67.8267C27.4106 67.8267 28.1333 68.5507 28.1333 69.4414C28.1333 70.3347 27.4106 71.0574 26.5186 71.0574Z" fill="#272727"/>
<path d="M26.5186 79.5493C25.6266 79.5493 24.9026 78.8253 24.9026 77.9333C24.9026 77.0413 25.6266 76.3187 26.5186 76.3187C27.4106 76.3187 28.1333 77.0413 28.1333 77.9333C28.1333 78.8253 27.4106 79.5493 26.5186 79.5493Z" fill="#272727"/>
<path d="M26.5186 88.0398C25.6266 88.0398 24.9026 87.3171 24.9026 86.4251C24.9026 85.5317 25.6266 84.8091 26.5186 84.8091C27.4106 84.8091 28.1333 85.5317 28.1333 86.4251C28.1333 87.3171 27.4106 88.0398 26.5186 88.0398Z" fill="#272727"/>
<path d="M26.5186 96.5305C25.6266 96.5305 24.9026 95.8079 24.9026 94.9159C24.9026 94.0239 25.6266 93.2999 26.5186 93.2999C27.4106 93.2999 28.1333 94.0239 28.1333 94.9159C28.1333 95.8079 27.4106 96.5305 26.5186 96.5305Z" fill="#272727"/>
<path d="M26.5186 105.022C25.6266 105.022 24.9026 104.299 24.9026 103.407C24.9026 102.515 25.6266 101.792 26.5186 101.792C27.4106 101.792 28.1333 102.515 28.1333 103.407C28.1333 104.299 27.4106 105.022 26.5186 105.022Z" fill="#272727"/>
<path d="M26.5186 113.513C25.6266 113.513 24.9026 112.791 24.9026 111.899C24.9026 111.007 25.6266 110.283 26.5186 110.283C27.4106 110.283 28.1333 111.007 28.1333 111.899C28.1333 112.791 27.4106 113.513 26.5186 113.513Z" fill="#272727"/>
<path d="M26.5186 122.005C25.6266 122.005 24.9026 121.282 24.9026 120.389C24.9026 119.497 25.6266 118.774 26.5186 118.774C27.4106 118.774 28.1333 119.497 28.1333 120.389C28.1333 121.282 27.4106 122.005 26.5186 122.005Z" fill="#272727"/>
<path d="M26.5186 130.496C25.6266 130.496 24.9026 129.773 24.9026 128.881C24.9026 127.989 25.6266 127.265 26.5186 127.265C27.4106 127.265 28.1333 127.989 28.1333 128.881C28.1333 129.773 27.4106 130.496 26.5186 130.496Z" fill="#272727"/>
<path d="M26.5186 138.988C25.6266 138.988 24.9026 138.264 24.9026 137.372C24.9026 136.48 25.6266 135.757 26.5186 135.757C27.4106 135.757 28.1333 136.48 28.1333 137.372C28.1333 138.264 27.4106 138.988 26.5186 138.988Z" fill="#272727"/>
<path d="M26.5186 147.479C25.6266 147.479 24.9026 146.756 24.9026 145.863C24.9026 144.971 25.6266 144.248 26.5186 144.248C27.4106 144.248 28.1333 144.971 28.1333 145.863C28.1333 146.756 27.4106 147.479 26.5186 147.479Z" fill="#272727"/>
<path d="M26.5186 155.969C25.6266 155.969 24.9026 155.247 24.9026 154.355C24.9026 153.463 25.6266 152.739 26.5186 152.739C27.4106 152.739 28.1333 153.463 28.1333 154.355C28.1333 155.247 27.4106 155.969 26.5186 155.969Z" fill="#272727"/>
<path d="M26.5186 164.461C25.6266 164.461 24.9026 163.738 24.9026 162.845C24.9026 161.953 25.6266 161.23 26.5186 161.23C27.4106 161.23 28.1333 161.953 28.1333 162.845C28.1333 163.738 27.4106 164.461 26.5186 164.461Z" fill="#272727"/>
<path d="M26.5186 172.952C25.6266 172.952 24.9026 172.229 24.9026 171.337C24.9026 170.445 25.6266 169.721 26.5186 169.721C27.4106 169.721 28.1333 170.445 28.1333 171.337C28.1333 172.229 27.4106 172.952 26.5186 172.952Z" fill="#272727"/>
<path d="M26.5186 181.444C25.6266 181.444 24.9026 180.72 24.9026 179.828C24.9026 178.936 25.6266 178.213 26.5186 178.213C27.4106 178.213 28.1333 178.936 28.1333 179.828C28.1333 180.72 27.4106 181.444 26.5186 181.444Z" fill="#272727"/>
<path d="M26.5186 189.935C25.6266 189.935 24.9026 189.212 24.9026 188.32C24.9026 187.428 25.6266 186.704 26.5186 186.704C27.4106 186.704 28.1333 187.428 28.1333 188.32C28.1333 189.212 27.4106 189.935 26.5186 189.935Z" fill="#272727"/>
<path d="M26.5186 198.427C25.6266 198.427 24.9026 197.702 24.9026 196.81C24.9026 195.918 25.6266 195.196 26.5186 195.196C27.4106 195.196 28.1333 195.918 28.1333 196.81C28.1333 197.702 27.4106 198.427 26.5186 198.427Z" fill="#272727"/>
<path d="M18.272 62.5667C17.38 62.5667 16.656 61.8426 16.656 60.9506C16.656 60.0586 17.38 59.336 18.272 59.336C19.164 59.336 19.8867 60.0586 19.8867 60.9506C19.8867 61.8426 19.164 62.5667 18.272 62.5667Z" fill="#272727"/>
<path d="M18.272 71.0574C17.38 71.0574 16.656 70.3347 16.656 69.4414C16.656 68.5507 17.38 67.8267 18.272 67.8267C19.164 67.8267 19.8867 68.5507 19.8867 69.4414C19.8867 70.3347 19.164 71.0574 18.272 71.0574Z" fill="#272727"/>
<path d="M18.272 79.5493C17.38 79.5493 16.656 78.8253 16.656 77.9333C16.656 77.0413 17.38 76.3187 18.272 76.3187C19.164 76.3187 19.8867 77.0413 19.8867 77.9333C19.8867 78.8253 19.164 79.5493 18.272 79.5493Z" fill="#272727"/>
<path d="M18.272 88.0398C17.38 88.0398 16.656 87.3171 16.656 86.4251C16.656 85.5317 17.38 84.8091 18.272 84.8091C19.164 84.8091 19.8867 85.5317 19.8867 86.4251C19.8867 87.3171 19.164 88.0398 18.272 88.0398Z" fill="#272727"/>
<path d="M18.272 96.5305C17.38 96.5305 16.656 95.8079 16.656 94.9159C16.656 94.0239 17.38 93.2999 18.272 93.2999C19.164 93.2999 19.8867 94.0239 19.8867 94.9159C19.8867 95.8079 19.164 96.5305 18.272 96.5305Z" fill="#272727"/>
<path d="M18.272 105.022C17.38 105.022 16.656 104.299 16.656 103.407C16.656 102.515 17.38 101.792 18.272 101.792C19.164 101.792 19.8867 102.515 19.8867 103.407C19.8867 104.299 19.164 105.022 18.272 105.022Z" fill="#272727"/>
<path d="M18.272 113.513C17.38 113.513 16.656 112.791 16.656 111.899C16.656 111.007 17.38 110.283 18.272 110.283C19.164 110.283 19.8867 111.007 19.8867 111.899C19.8867 112.791 19.164 113.513 18.272 113.513Z" fill="#272727"/>
<path d="M18.272 122.005C17.38 122.005 16.656 121.282 16.656 120.389C16.656 119.497 17.38 118.774 18.272 118.774C19.164 118.774 19.8867 119.497 19.8867 120.389C19.8867 121.282 19.164 122.005 18.272 122.005Z" fill="#272727"/>
<path d="M18.272 130.496C17.38 130.496 16.656 129.773 16.656 128.881C16.656 127.989 17.38 127.265 18.272 127.265C19.164 127.265 19.8867 127.989 19.8867 128.881C19.8867 129.773 19.164 130.496 18.272 130.496Z" fill="#272727"/>
<path d="M18.272 138.988C17.38 138.988 16.656 138.264 16.656 137.372C16.656 136.48 17.38 135.757 18.272 135.757C19.164 135.757 19.8867 136.48 19.8867 137.372C19.8867 138.264 19.164 138.988 18.272 138.988Z" fill="#272727"/>
<path d="M18.272 147.479C17.38 147.479 16.656 146.756 16.656 145.863C16.656 144.971 17.38 144.248 18.272 144.248C19.164 144.248 19.8867 144.971 19.8867 145.863C19.8867 146.756 19.164 147.479 18.272 147.479Z" fill="#272727"/>
<path d="M18.272 155.969C17.38 155.969 16.656 155.247 16.656 154.355C16.656 153.463 17.38 152.739 18.272 152.739C19.164 152.739 19.8867 153.463 19.8867 154.355C19.8867 155.247 19.164 155.969 18.272 155.969Z" fill="#272727"/>
<path d="M18.272 164.461C17.38 164.461 16.656 163.738 16.656 162.845C16.656 161.953 17.38 161.23 18.272 161.23C19.164 161.23 19.8867 161.953 19.8867 162.845C19.8867 163.738 19.164 164.461 18.272 164.461Z" fill="#272727"/>
<path d="M18.272 172.952C17.38 172.952 16.656 172.229 16.656 171.337C16.656 170.445 17.38 169.721 18.272 169.721C19.164 169.721 19.8867 170.445 19.8867 171.337C19.8867 172.229 19.164 172.952 18.272 172.952Z" fill="#272727"/>
<path d="M18.272 181.444C17.38 181.444 16.656 180.72 16.656 179.828C16.656 178.936 17.38 178.213 18.272 178.213C19.164 178.213 19.8867 178.936 19.8867 179.828C19.8867 180.72 19.164 181.444 18.272 181.444Z" fill="#272727"/>
<path d="M18.272 189.935C17.38 189.935 16.656 189.212 16.656 188.32C16.656 187.428 17.38 186.704 18.272 186.704C19.164 186.704 19.8867 187.428 19.8867 188.32C19.8867 189.212 19.164 189.935 18.272 189.935Z" fill="#272727"/>
<path d="M18.272 198.427C17.38 198.427 16.656 197.702 16.656 196.81C16.656 195.918 17.38 195.196 18.272 195.196C19.164 195.196 19.8867 195.918 19.8867 196.81C19.8867 197.702 19.164 198.427 18.272 198.427Z" fill="#272727"/>
<path d="M10.0241 62.5667C9.13207 62.5667 8.40942 61.8426 8.40942 60.9506C8.40942 60.0586 9.13207 59.336 10.0241 59.336C10.9161 59.336 11.6401 60.0586 11.6401 60.9506C11.6401 61.8426 10.9161 62.5667 10.0241 62.5667Z" fill="#272727"/>
<path d="M10.0241 71.0574C9.13207 71.0574 8.40942 70.3347 8.40942 69.4414C8.40942 68.5507 9.13207 67.8267 10.0241 67.8267C10.9161 67.8267 11.6401 68.5507 11.6401 69.4414C11.6401 70.3347 10.9161 71.0574 10.0241 71.0574Z" fill="#272727"/>
<path d="M10.0241 79.5493C9.13207 79.5493 8.40942 78.8253 8.40942 77.9333C8.40942 77.0413 9.13207 76.3187 10.0241 76.3187C10.9161 76.3187 11.6401 77.0413 11.6401 77.9333C11.6401 78.8253 10.9161 79.5493 10.0241 79.5493Z" fill="#272727"/>
<path d="M10.0241 88.0398C9.13207 88.0398 8.40942 87.3171 8.40942 86.4251C8.40942 85.5317 9.13207 84.8091 10.0241 84.8091C10.9161 84.8091 11.6401 85.5317 11.6401 86.4251C11.6401 87.3171 10.9161 88.0398 10.0241 88.0398Z" fill="#272727"/>
<path d="M10.0241 96.5305C9.13207 96.5305 8.40942 95.8079 8.40942 94.9159C8.40942 94.0239 9.13207 93.2999 10.0241 93.2999C10.9161 93.2999 11.6401 94.0239 11.6401 94.9159C11.6401 95.8079 10.9161 96.5305 10.0241 96.5305Z" fill="#272727"/>
<path d="M10.0241 105.022C9.13207 105.022 8.40942 104.299 8.40942 103.407C8.40942 102.515 9.13207 101.792 10.0241 101.792C10.9161 101.792 11.6401 102.515 11.6401 103.407C11.6401 104.299 10.9161 105.022 10.0241 105.022Z" fill="#272727"/>
<path d="M10.0241 113.513C9.13207 113.513 8.40942 112.791 8.40942 111.899C8.40942 111.007 9.13207 110.283 10.0241 110.283C10.9161 110.283 11.6401 111.007 11.6401 111.899C11.6401 112.791 10.9161 113.513 10.0241 113.513Z" fill="#272727"/>
<path d="M10.0241 122.005C9.13207 122.005 8.40942 121.282 8.40942 120.389C8.40942 119.497 9.13207 118.774 10.0241 118.774C10.9161 118.774 11.6401 119.497 11.6401 120.389C11.6401 121.282 10.9161 122.005 10.0241 122.005Z" fill="#272727"/>
<path d="M10.0241 130.496C9.13207 130.496 8.40942 129.773 8.40942 128.881C8.40942 127.989 9.13207 127.265 10.0241 127.265C10.9161 127.265 11.6401 127.989 11.6401 128.881C11.6401 129.773 10.9161 130.496 10.0241 130.496Z" fill="#272727"/>
<path d="M10.0241 138.988C9.13207 138.988 8.40942 138.264 8.40942 137.372C8.40942 136.48 9.13207 135.757 10.0241 135.757C10.9161 135.757 11.6401 136.48 11.6401 137.372C11.6401 138.264 10.9161 138.988 10.0241 138.988Z" fill="#272727"/>
<path d="M10.0241 147.479C9.13207 147.479 8.40942 146.756 8.40942 145.863C8.40942 144.971 9.13207 144.248 10.0241 144.248C10.9161 144.248 11.6401 144.971 11.6401 145.863C11.6401 146.756 10.9161 147.479 10.0241 147.479Z" fill="#272727"/>
<path d="M10.0241 155.969C9.13207 155.969 8.40942 155.247 8.40942 154.355C8.40942 153.463 9.13207 152.739 10.0241 152.739C10.9161 152.739 11.6401 153.463 11.6401 154.355C11.6401 155.247 10.9161 155.969 10.0241 155.969Z" fill="#272727"/>
<path d="M10.0241 164.461C9.13207 164.461 8.40942 163.738 8.40942 162.845C8.40942 161.953 9.13207 161.23 10.0241 161.23C10.9161 161.23 11.6401 161.953 11.6401 162.845C11.6401 163.738 10.9161 164.461 10.0241 164.461Z" fill="#272727"/>
<path d="M10.0241 172.952C9.13207 172.952 8.40942 172.229 8.40942 171.337C8.40942 170.445 9.13207 169.721 10.0241 169.721C10.9161 169.721 11.6401 170.445 11.6401 171.337C11.6401 172.229 10.9161 172.952 10.0241 172.952Z" fill="#272727"/>
<path d="M10.0241 181.444C9.13207 181.444 8.40942 180.72 8.40942 179.828C8.40942 178.936 9.13207 178.213 10.0241 178.213C10.9161 178.213 11.6401 178.936 11.6401 179.828C11.6401 180.72 10.9161 181.444 10.0241 181.444Z" fill="#272727"/>
<path d="M10.0241 189.935C9.13207 189.935 8.40942 189.212 8.40942 188.32C8.40942 187.428 9.13207 186.704 10.0241 186.704C10.9161 186.704 11.6401 187.428 11.6401 188.32C11.6401 189.212 10.9161 189.935 10.0241 189.935Z" fill="#272727"/>
<path d="M10.0241 198.427C9.13207 198.427 8.40942 197.702 8.40942 196.81C8.40942 195.918 9.13207 195.196 10.0241 195.196C10.9161 195.196 11.6401 195.918 11.6401 196.81C11.6401 197.702 10.9161 198.427 10.0241 198.427Z" fill="#272727"/>
<path d="M1.77737 62.5667C0.885368 62.5667 0.16272 61.8426 0.16272 60.9506C0.16272 60.0586 0.885368 59.336 1.77737 59.336C2.66937 59.336 3.39338 60.0586 3.39338 60.9506C3.39338 61.8426 2.66937 62.5667 1.77737 62.5667Z" fill="#272727"/>
<path d="M1.77737 71.0574C0.885368 71.0574 0.16272 70.3347 0.16272 69.4414C0.16272 68.5507 0.885368 67.8267 1.77737 67.8267C2.66937 67.8267 3.39338 68.5507 3.39338 69.4414C3.39338 70.3347 2.66937 71.0574 1.77737 71.0574Z" fill="#272727"/>
<path d="M1.77737 79.5493C0.885368 79.5493 0.16272 78.8253 0.16272 77.9333C0.16272 77.0413 0.885368 76.3187 1.77737 76.3187C2.66937 76.3187 3.39338 77.0413 3.39338 77.9333C3.39338 78.8253 2.66937 79.5493 1.77737 79.5493Z" fill="#272727"/>
<path d="M1.77737 88.0398C0.885368 88.0398 0.16272 87.3171 0.16272 86.4251C0.16272 85.5317 0.885368 84.8091 1.77737 84.8091C2.66937 84.8091 3.39338 85.5317 3.39338 86.4251C3.39338 87.3171 2.66937 88.0398 1.77737 88.0398Z" fill="#272727"/>
<path d="M1.77737 96.5305C0.885368 96.5305 0.16272 95.8079 0.16272 94.9159C0.16272 94.0239 0.885368 93.2999 1.77737 93.2999C2.66937 93.2999 3.39338 94.0239 3.39338 94.9159C3.39338 95.8079 2.66937 96.5305 1.77737 96.5305Z" fill="#272727"/>
<path d="M1.77737 105.022C0.885368 105.022 0.16272 104.299 0.16272 103.407C0.16272 102.515 0.885368 101.792 1.77737 101.792C2.66937 101.792 3.39338 102.515 3.39338 103.407C3.39338 104.299 2.66937 105.022 1.77737 105.022Z" fill="#272727"/>
<path d="M1.77737 113.513C0.885368 113.513 0.16272 112.791 0.16272 111.899C0.16272 111.007 0.885368 110.283 1.77737 110.283C2.66937 110.283 3.39338 111.007 3.39338 111.899C3.39338 112.791 2.66937 113.513 1.77737 113.513Z" fill="#272727"/>
<path d="M1.77737 122.005C0.885368 122.005 0.16272 121.282 0.16272 120.389C0.16272 119.497 0.885368 118.774 1.77737 118.774C2.66937 118.774 3.39338 119.497 3.39338 120.389C3.39338 121.282 2.66937 122.005 1.77737 122.005Z" fill="#272727"/>
<path d="M1.77737 130.496C0.885368 130.496 0.16272 129.773 0.16272 128.881C0.16272 127.989 0.885368 127.265 1.77737 127.265C2.66937 127.265 3.39338 127.989 3.39338 128.881C3.39338 129.773 2.66937 130.496 1.77737 130.496Z" fill="#272727"/>
<path d="M1.77737 138.988C0.885368 138.988 0.16272 138.264 0.16272 137.372C0.16272 136.48 0.885368 135.757 1.77737 135.757C2.66937 135.757 3.39338 136.48 3.39338 137.372C3.39338 138.264 2.66937 138.988 1.77737 138.988Z" fill="#272727"/>
<path d="M1.77737 147.479C0.885368 147.479 0.16272 146.756 0.16272 145.863C0.16272 144.971 0.885368 144.248 1.77737 144.248C2.66937 144.248 3.39338 144.971 3.39338 145.863C3.39338 146.756 2.66937 147.479 1.77737 147.479Z" fill="#272727"/>
<path d="M1.77737 155.969C0.885368 155.969 0.16272 155.247 0.16272 154.355C0.16272 153.463 0.885368 152.739 1.77737 152.739C2.66937 152.739 3.39338 153.463 3.39338 154.355C3.39338 155.247 2.66937 155.969 1.77737 155.969Z" fill="#272727"/>
<path d="M1.77737 164.461C0.885368 164.461 0.16272 163.738 0.16272 162.845C0.16272 161.953 0.885368 161.23 1.77737 161.23C2.66937 161.23 3.39338 161.953 3.39338 162.845C3.39338 163.738 2.66937 164.461 1.77737 164.461Z" fill="#272727"/>
<path d="M1.77737 172.952C0.885368 172.952 0.16272 172.229 0.16272 171.337C0.16272 170.445 0.885368 169.721 1.77737 169.721C2.66937 169.721 3.39338 170.445 3.39338 171.337C3.39338 172.229 2.66937 172.952 1.77737 172.952Z" fill="#272727"/>
<path d="M1.77737 181.444C0.885368 181.444 0.16272 180.72 0.16272 179.828C0.16272 178.936 0.885368 178.213 1.77737 178.213C2.66937 178.213 3.39338 178.936 3.39338 179.828C3.39338 180.72 2.66937 181.444 1.77737 181.444Z" fill="#272727"/>
<path d="M1.77737 189.935C0.885368 189.935 0.16272 189.212 0.16272 188.32C0.16272 187.428 0.885368 186.704 1.77737 186.704C2.66937 186.704 3.39338 187.428 3.39338 188.32C3.39338 189.212 2.66937 189.935 1.77737 189.935Z" fill="#272727"/>
<path d="M1.77737 198.427C0.885368 198.427 0.16272 197.702 0.16272 196.81C0.16272 195.918 0.885368 195.196 1.77737 195.196C2.66937 195.196 3.39338 195.918 3.39338 196.81C3.39338 197.702 2.66937 198.427 1.77737 198.427Z" fill="#272727"/>
</svg>
