<svg width="500" height="500" fill="none" xmlns="http://www.w3.org/2000/svg"><rect width="290" height="50" rx="25" transform="matrix(1 0 0 -1 160 329)" fill="url(#paint0_linear)"/><path d="M188.62 299.228V309h-1.96v-6.356L184.042 309h-1.484l-2.632-6.356V309h-1.96v-9.772h2.226l3.108 7.266 3.108-7.266h2.212zm1.434 5.866c0-.784.154-1.479.462-2.086.317-.607.742-1.073 1.274-1.4a3.423 3.423 0 011.806-.49c.578 0 1.082.117 1.512.35a3.07 3.07 0 011.05.882v-1.106h1.974V309h-1.974v-1.134c-.252.364-.602.667-1.05.91-.439.233-.948.35-1.526.35a3.329 3.329 0 01-1.792-.504c-.532-.336-.957-.807-1.274-1.414-.308-.616-.462-1.321-.462-2.114zm6.104.028c0-.476-.094-.882-.28-1.218a1.92 1.92 0 00-.756-.784 1.98 1.98 0 00-1.022-.28c-.364 0-.7.089-1.008.266a2.04 2.04 0 00-.756.784c-.187.336-.28.737-.28 1.204 0 .467.093.877.28 1.232.196.345.448.611.756.798.317.187.653.28 1.008.28.364 0 .704-.089 1.022-.266.317-.187.569-.448.756-.784.186-.345.28-.756.28-1.232zm4.882-4.802c-.345 0-.635-.107-.868-.322a1.122 1.122 0 01-.336-.826c0-.327.112-.597.336-.812.233-.224.523-.336.868-.336s.63.112.854.336c.233.215.35.485.35.812a1.1 1.1 0 01-.35.826c-.224.215-.509.322-.854.322zm.966.924V309h-1.96v-7.756h1.96zm3.897-2.604V309h-1.96v-10.36h1.96zm2.804 10.458c-.355 0-.649-.107-.882-.322a1.122 1.122 0 01-.336-.826c0-.327.112-.597.336-.812.233-.224.527-.336.882-.336.345 0 .63.112.854.336.224.215.336.485.336.812 0 .327-.112.602-.336.826-.224.215-.509.322-.854.322zm0-5.796c-.355 0-.649-.107-.882-.322a1.122 1.122 0 01-.336-.826c0-.327.112-.597.336-.812.233-.224.527-.336.882-.336.345 0 .63.112.854.336.224.215.336.485.336.812 0 .327-.112.602-.336.826-.224.215-.509.322-.854.322zm11.764-.448v3.752c0 .261.06.453.182.574.13.112.345.168.644.168h.91V309h-1.232c-1.652 0-2.478-.803-2.478-2.408v-3.738h-.924v-1.61h.924v-1.918h1.974v1.918h1.736v1.61h-1.736zm10.355 2.1c0 .28-.018.532-.056.756h-5.67c.047.56.243.999.588 1.316.346.317.77.476 1.274.476.728 0 1.246-.313 1.554-.938h2.114a3.564 3.564 0 01-1.288 1.848c-.634.476-1.414.714-2.338.714-.746 0-1.418-.163-2.016-.49a3.604 3.604 0 01-1.386-1.414c-.326-.607-.49-1.307-.49-2.1 0-.803.164-1.507.49-2.114a3.421 3.421 0 011.372-1.4c.588-.327 1.265-.49 2.03-.49.738 0 1.396.159 1.974.476a3.28 3.28 0 011.358 1.358c.327.579.49 1.246.49 2.002zm-2.03-.56c-.009-.504-.191-.905-.546-1.204-.354-.308-.788-.462-1.302-.462-.485 0-.896.149-1.232.448-.326.289-.527.695-.602 1.218h3.682zm2.957.728c0-.803.163-1.503.49-2.1a3.444 3.444 0 011.358-1.4c.579-.336 1.241-.504 1.988-.504.961 0 1.755.243 2.38.728.635.476 1.059 1.148 1.274 2.016h-2.114a1.495 1.495 0 00-.574-.784c-.261-.196-.588-.294-.98-.294-.56 0-1.003.205-1.33.616-.327.401-.49.975-.49 1.722 0 .737.163 1.311.49 1.722.327.401.77.602 1.33.602.793 0 1.311-.355 1.554-1.064h2.114c-.215.84-.639 1.507-1.274 2.002-.635.495-1.428.742-2.38.742-.747 0-1.409-.163-1.988-.49a3.565 3.565 0 01-1.358-1.4c-.327-.607-.49-1.311-.49-2.114zm13.294-3.99c.588 0 1.111.131 1.568.392.457.252.812.63 1.064 1.134.261.495.392 1.092.392 1.792V309h-1.96v-4.284c0-.616-.154-1.087-.462-1.414-.308-.336-.728-.504-1.26-.504-.541 0-.971.168-1.288.504-.308.327-.462.798-.462 1.414V309h-1.96v-10.36h1.96v3.57a2.502 2.502 0 011.008-.784c.42-.196.887-.294 1.4-.294zm15.64.112L258.419 309h-2.114l-1.414-5.418-1.414 5.418h-2.128l-2.282-7.756h1.988l1.372 5.908 1.484-5.908h2.072l1.456 5.894 1.372-5.894h1.876zm2.054-.924c-.345 0-.634-.107-.868-.322a1.122 1.122 0 01-.336-.826c0-.327.112-.597.336-.812.234-.224.523-.336.868-.336.346 0 .63.112.854.336.234.215.35.485.35.812 0 .327-.116.602-.35.826-.224.215-.508.322-.854.322zm.966.924V309h-1.96v-7.756h1.96zm4.219 1.61v3.752c0 .261.06.453.182.574.13.112.345.168.644.168h.91V309h-1.232c-1.652 0-2.478-.803-2.478-2.408v-3.738h-.924v-1.61h.924v-1.918h1.974v1.918h1.736v1.61h-1.736zm7.513-1.722c.588 0 1.111.131 1.568.392.458.252.812.63 1.064 1.134.262.495.392 1.092.392 1.792V309h-1.96v-4.284c0-.616-.154-1.087-.462-1.414-.308-.336-.728-.504-1.26-.504-.541 0-.97.168-1.288.504-.308.327-.462.798-.462 1.414V309h-1.96v-10.36h1.96v3.57a2.502 2.502 0 011.008-.784c.42-.196.887-.294 1.4-.294zm7.856 7.994c-.634 0-1.204-.112-1.708-.336a3.133 3.133 0 01-1.204-.938 2.39 2.39 0 01-.476-1.302h1.974c.038.299.182.546.434.742.262.196.584.294.966.294.374 0 .663-.075.868-.224.215-.149.322-.341.322-.574 0-.252-.13-.439-.392-.56-.252-.131-.658-.271-1.218-.42a10.84 10.84 0 01-1.428-.434 2.537 2.537 0 01-.952-.686c-.261-.308-.392-.723-.392-1.246 0-.429.122-.821.364-1.176.252-.355.607-.635 1.064-.84.467-.205 1.013-.308 1.638-.308.924 0 1.662.233 2.212.7.551.457.854 1.078.91 1.862h-1.876a.981.981 0 00-.392-.728c-.224-.187-.527-.28-.91-.28-.354 0-.63.065-.826.196a.632.632 0 00-.28.546c0 .261.131.462.392.602.262.131.668.266 1.218.406.56.14 1.022.285 1.386.434.364.149.677.383.938.7.271.308.411.719.42 1.232 0 .448-.126.849-.378 1.204-.242.355-.597.635-1.064.84-.457.196-.994.294-1.61.294zm9.029-7.994c.588 0 1.111.131 1.568.392.458.252.812.63 1.064 1.134.262.495.392 1.092.392 1.792V309h-1.96v-4.284c0-.616-.154-1.087-.462-1.414-.308-.336-.728-.504-1.26-.504-.541 0-.97.168-1.288.504-.308.327-.462.798-.462 1.414V309h-1.96v-10.36h1.96v3.57a2.502 2.502 0 011.008-.784c.42-.196.887-.294 1.4-.294zm5.882-.812c-.345 0-.635-.107-.868-.322a1.122 1.122 0 01-.336-.826c0-.327.112-.597.336-.812.233-.224.523-.336.868-.336s.63.112.854.336c.233.215.35.485.35.812a1.1 1.1 0 01-.35.826c-.224.215-.509.322-.854.322zm.966.924V309h-1.96v-7.756h1.96zm5.171 5.95l1.96-5.95h2.086l-2.87 7.756h-2.38l-2.856-7.756h2.1l1.96 5.95zm4.642-2.1c0-.784.154-1.479.462-2.086.318-.607.742-1.073 1.274-1.4a3.428 3.428 0 011.806-.49c.579 0 1.083.117 1.512.35a3.05 3.05 0 011.05.882v-1.106h1.974V309h-1.974v-1.134c-.252.364-.602.667-1.05.91-.438.233-.947.35-1.526.35-.653 0-1.25-.168-1.792-.504-.532-.336-.956-.807-1.274-1.414-.308-.616-.462-1.321-.462-2.114zm6.104.028c0-.476-.093-.882-.28-1.218a1.907 1.907 0 00-.756-.784 1.978 1.978 0 00-1.022-.28c-.364 0-.7.089-1.008.266a2.04 2.04 0 00-.756.784c-.186.336-.28.737-.28 1.204 0 .467.094.877.28 1.232.196.345.448.611.756.798.318.187.654.28 1.008.28.364 0 .705-.089 1.022-.266a2.03 2.03 0 00.756-.784c.187-.345.28-.756.28-1.232zm13.521-3.99c.952 0 1.717.294 2.296.882.588.579.882 1.391.882 2.436V309h-1.96v-4.284c0-.607-.154-1.069-.462-1.386-.308-.327-.728-.49-1.26-.49s-.957.163-1.274.49c-.308.317-.462.779-.462 1.386V309h-1.96v-4.284c0-.607-.154-1.069-.462-1.386-.308-.327-.728-.49-1.26-.49-.542 0-.971.163-1.288.49-.308.317-.462.779-.462 1.386V309h-1.96v-7.756h1.96v.938c.252-.327.574-.583.966-.77.401-.187.84-.28 1.316-.28.606 0 1.148.131 1.624.392.476.252.844.616 1.106 1.092a2.822 2.822 0 011.092-1.078 3.163 3.163 0 011.568-.406zm12.5-1.316c1.082 0 2.02.201 2.814.602.793.401 1.4.966 1.82 1.694.429.728.644 1.568.644 2.52 0 .765-.136 1.489-.406 2.17-.262.681-.644 1.232-1.148 1.652-.504.42-1.102.63-1.792.63-.486 0-.878-.098-1.176-.294a1.378 1.378 0 01-.574-.868 2.91 2.91 0 01-1.05.868c-.43.205-.882.308-1.358.308-.71 0-1.265-.21-1.666-.63-.402-.429-.602-1.013-.602-1.75 0-.7.144-1.353.434-1.96a3.685 3.685 0 011.204-1.456 2.88 2.88 0 011.736-.56c.802 0 1.353.28 1.652.84l.126-.728h1.638l-.658 3.78a3.159 3.159 0 00-.042.49c0 .224.046.392.14.504.093.112.252.168.476.168.336 0 .616-.159.84-.476.233-.317.406-.714.518-1.19.121-.476.182-.952.182-1.428 0-1.129-.346-2.002-1.036-2.618-.691-.625-1.666-.938-2.926-.938-1.074 0-2.044.261-2.912.784a5.487 5.487 0 00-2.044 2.114c-.486.887-.728 1.876-.728 2.968 0 1.157.34 2.049 1.022 2.674.69.625 1.666.938 2.926.938.905 0 1.703-.163 2.394-.49l.28 1.288c-.887.373-1.872.56-2.954.56-1.046 0-1.96-.201-2.744-.602a4.284 4.284 0 01-1.82-1.68c-.43-.728-.644-1.573-.644-2.534 0-1.372.317-2.618.952-3.738a7.026 7.026 0 012.66-2.646c1.138-.644 2.412-.966 3.822-.966zm-1.61 7.826c.336 0 .644-.098.924-.294.28-.196.499-.457.658-.784.168-.327.252-.677.252-1.05 0-.392-.108-.709-.322-.952-.215-.243-.514-.364-.896-.364-.346 0-.649.107-.91.322a2.077 2.077 0 00-.616.812 2.74 2.74 0 00-.21 1.064c0 .383.093.686.28.91.186.224.466.336.84.336zm11.897-6.524c.578 0 1.087.117 1.526.35.438.224.784.518 1.036.882v-1.106h1.974v7.812c0 .719-.145 1.358-.434 1.918a3.18 3.18 0 01-1.302 1.344c-.579.336-1.279.504-2.1.504-1.102 0-2.007-.257-2.716-.77-.7-.513-1.097-1.213-1.19-2.1h1.946c.102.355.322.635.658.84.345.215.76.322 1.246.322.569 0 1.031-.173 1.386-.518.354-.336.532-.849.532-1.54v-1.204c-.252.364-.602.667-1.05.91-.439.243-.943.364-1.512.364a3.329 3.329 0 01-1.792-.504 3.56 3.56 0 01-1.288-1.414c-.308-.616-.462-1.321-.462-2.114 0-.784.154-1.479.462-2.086.317-.607.742-1.073 1.274-1.4a3.423 3.423 0 011.806-.49zm2.562 4.004c0-.476-.094-.882-.28-1.218a1.92 1.92 0 00-.756-.784 1.98 1.98 0 00-1.022-.28c-.364 0-.7.089-1.008.266a2.04 2.04 0 00-.756.784c-.187.336-.28.737-.28 1.204 0 .467.093.877.28 1.232.196.345.448.611.756.798.317.187.653.28 1.008.28.364 0 .704-.089 1.022-.266.317-.187.569-.448.756-.784.186-.345.28-.756.28-1.232zm13.52-3.99c.952 0 1.717.294 2.296.882.588.579.882 1.391.882 2.436V309h-1.96v-4.284c0-.607-.154-1.069-.462-1.386-.308-.327-.728-.49-1.26-.49s-.957.163-1.274.49c-.308.317-.462.779-.462 1.386V309h-1.96v-4.284c0-.607-.154-1.069-.462-1.386-.308-.327-.728-.49-1.26-.49-.541 0-.971.163-1.288.49-.308.317-.462.779-.462 1.386V309h-1.96v-7.756h1.96v.938c.252-.327.574-.583.966-.77.401-.187.84-.28 1.316-.28.607 0 1.148.131 1.624.392.476.252.845.616 1.106 1.092a2.822 2.822 0 011.092-1.078 3.163 3.163 0 011.568-.406zm4.534 3.962c0-.784.154-1.479.462-2.086.317-.607.742-1.073 1.274-1.4a3.423 3.423 0 011.806-.49c.578 0 1.082.117 1.512.35a3.07 3.07 0 011.05.882v-1.106h1.974V309h-1.974v-1.134c-.252.364-.602.667-1.05.91-.439.233-.948.35-1.526.35a3.329 3.329 0 01-1.792-.504c-.532-.336-.957-.807-1.274-1.414-.308-.616-.462-1.321-.462-2.114zm6.104.028c0-.476-.094-.882-.28-1.218a1.92 1.92 0 00-.756-.784 1.98 1.98 0 00-1.022-.28c-.364 0-.7.089-1.008.266a2.04 2.04 0 00-.756.784c-.187.336-.28.737-.28 1.204 0 .467.093.877.28 1.232.196.345.448.611.756.798.317.187.653.28 1.008.28.364 0 .704-.089 1.022-.266.317-.187.569-.448.756-.784.186-.345.28-.756.28-1.232zm4.882-4.802c-.345 0-.635-.107-.868-.322a1.122 1.122 0 01-.336-.826c0-.327.112-.597.336-.812.233-.224.523-.336.868-.336s.63.112.854.336c.233.215.35.485.35.812a1.1 1.1 0 01-.35.826c-.224.215-.509.322-.854.322zm.966.924V309h-1.96v-7.756h1.96zm3.897-2.604V309h-1.96v-10.36h1.96zm2.804 10.458c-.355 0-.649-.107-.882-.322a1.122 1.122 0 01-.336-.826c0-.327.112-.597.336-.812.233-.224.527-.336.882-.336.345 0 .63.112.854.336.224.215.336.485.336.812 0 .327-.112.602-.336.826-.224.215-.509.322-.854.322zm2.265-3.976c0-.803.163-1.503.49-2.1a3.438 3.438 0 011.358-1.4c.578-.336 1.241-.504 1.988-.504.961 0 1.754.243 2.38.728.634.476 1.059 1.148 1.274 2.016h-2.114a1.5 1.5 0 00-.574-.784c-.262-.196-.588-.294-.98-.294-.56 0-1.004.205-1.33.616-.327.401-.49.975-.49 1.722 0 .737.163 1.311.49 1.722.326.401.77.602 1.33.602.793 0 1.311-.355 1.554-1.064h2.114c-.215.84-.64 1.507-1.274 2.002-.635.495-1.428.742-2.38.742-.747 0-1.41-.163-1.988-.49a3.558 3.558 0 01-1.358-1.4c-.327-.607-.49-1.311-.49-2.114zm12.37 4.004c-.747 0-1.419-.163-2.016-.49a3.667 3.667 0 01-1.414-1.414c-.336-.607-.504-1.307-.504-2.1 0-.793.172-1.493.518-2.1a3.64 3.64 0 011.442-1.4 4.116 4.116 0 012.03-.504c.746 0 1.423.168 2.03.504a3.562 3.562 0 011.428 1.4c.354.607.532 1.307.532 2.1 0 .793-.182 1.493-.546 2.1a3.72 3.72 0 01-1.456 1.414c-.607.327-1.288.49-2.044.49zm0-1.708c.354 0 .686-.084.994-.252a1.92 1.92 0 00.756-.784c.186-.345.28-.765.28-1.26 0-.737-.196-1.302-.588-1.694a1.878 1.878 0 00-1.414-.602c-.56 0-1.032.201-1.414.602-.374.392-.56.957-.56 1.694s.182 1.307.546 1.708c.373.392.84.588 1.4.588zm15.115-6.286c.952 0 1.718.294 2.296.882.588.579.882 1.391.882 2.436V309h-1.96v-4.284c0-.607-.154-1.069-.462-1.386-.308-.327-.728-.49-1.26-.49s-.956.163-1.274.49c-.308.317-.462.779-.462 1.386V309h-1.96v-4.284c0-.607-.154-1.069-.462-1.386-.308-.327-.728-.49-1.26-.49-.541 0-.97.163-1.288.49-.308.317-.462.779-.462 1.386V309h-1.96v-7.756h1.96v.938c.252-.327.574-.583.966-.77.402-.187.84-.28 1.316-.28.607 0 1.148.131 1.624.392.476.252.845.616 1.106 1.092a2.822 2.822 0 011.092-1.078 3.166 3.166 0 011.568-.406z" fill="#F4F4F4"/><g filter="url(#filter0_d)"><path d="M185.9 155.15V176h-3.42v-9.12h-9.81V176h-3.42v-20.85h3.42v8.94h9.81v-8.94h3.42zm19.652 12.18c0 .62-.04 1.18-.12 1.68h-12.63c.1 1.32.59 2.38 1.47 3.18.88.8 1.96 1.2 3.24 1.2 1.84 0 3.14-.77 3.9-2.31h3.69c-.5 1.52-1.41 2.77-2.73 3.75-1.3.96-2.92 1.44-4.86 1.44-1.58 0-3-.35-4.26-1.05a7.847 7.847 0 01-2.94-3c-.7-1.3-1.05-2.8-1.05-4.5 0-1.7.34-3.19 1.02-4.47.7-1.3 1.67-2.3 2.91-3 1.26-.7 2.7-1.05 4.32-1.05 1.56 0 2.95.34 4.17 1.02 1.22.68 2.17 1.64 2.85 2.88.68 1.22 1.02 2.63 1.02 4.23zm-3.57-1.08c-.02-1.26-.47-2.27-1.35-3.03-.88-.76-1.97-1.14-3.27-1.14-1.18 0-2.19.38-3.03 1.14-.84.74-1.34 1.75-1.5 3.03h9.15zm21.816-6.78l-10.14 24.3h-3.54l3.36-8.04-6.51-16.26h3.81l4.65 12.6 4.83-12.6h3.54zm6.331 12.42l-3.63 8.28h-2.22l2.13-8.28h3.72zm14.201-16.74V176h-3.42v-20.85h3.42zm11.143 12.51c0-1.66.34-3.13 1.02-4.41.7-1.28 1.64-2.27 2.82-2.97 1.2-.72 2.52-1.08 3.96-1.08 1.3 0 2.43.26 3.39.78.98.5 1.76 1.13 2.34 1.89v-2.4h3.45V176h-3.45v-2.46c-.58.78-1.37 1.43-2.37 1.95s-2.14.78-3.42.78c-1.42 0-2.72-.36-3.9-1.08-1.18-.74-2.12-1.76-2.82-3.06-.68-1.32-1.02-2.81-1.02-4.47zm13.53.06c0-1.14-.24-2.13-.72-2.97-.46-.84-1.07-1.48-1.83-1.92-.76-.44-1.58-.66-2.46-.66-.88 0-1.7.22-2.46.66-.76.42-1.38 1.05-1.86 1.89-.46.82-.69 1.8-.69 2.94s.23 2.14.69 3c.48.86 1.1 1.52 1.86 1.98.78.44 1.6.66 2.46.66.88 0 1.7-.22 2.46-.66.76-.44 1.37-1.08 1.83-1.92.48-.86.72-1.86.72-3zm27.952-8.52c1.3 0 2.46.27 3.48.81 1.04.54 1.85 1.34 2.43 2.4.6 1.06.9 2.34.9 3.84V176h-3.39v-9.24c0-1.48-.37-2.61-1.11-3.39-.74-.8-1.75-1.2-3.03-1.2-1.28 0-2.3.4-3.06 1.2-.74.78-1.11 1.91-1.11 3.39V176h-3.39v-9.24c0-1.48-.37-2.61-1.11-3.39-.74-.8-1.75-1.2-3.03-1.2-1.28 0-2.3.4-3.06 1.2-.74.78-1.11 1.91-1.11 3.39V176h-3.42v-16.53h3.42v1.89c.56-.68 1.27-1.21 2.13-1.59.86-.38 1.78-.57 2.76-.57 1.32 0 2.5.28 3.54.84 1.04.56 1.84 1.37 2.4 2.43.5-1 1.28-1.79 2.34-2.37 1.06-.6 2.2-.9 3.42-.9zm17.815 8.46c0-1.66.34-3.13 1.02-4.41.7-1.28 1.64-2.27 2.82-2.97 1.2-.72 2.52-1.08 3.96-1.08 1.3 0 2.43.26 3.39.78.98.5 1.76 1.13 2.34 1.89v-2.4h3.45V176h-3.45v-2.46c-.58.78-1.37 1.43-2.37 1.95s-2.14.78-3.42.78c-1.42 0-2.72-.36-3.9-1.08-1.18-.74-2.12-1.76-2.82-3.06-.68-1.32-1.02-2.81-1.02-4.47zm13.53.06c0-1.14-.24-2.13-.72-2.97-.46-.84-1.07-1.48-1.83-1.92-.76-.44-1.58-.66-2.46-.66-.88 0-1.7.22-2.46.66-.76.42-1.38 1.05-1.86 1.89-.46.82-.69 1.8-.69 2.94s.23 2.14.69 3c.48.86 1.1 1.52 1.86 1.98.78.44 1.6.66 2.46.66.88 0 1.7-.22 2.46-.66.76-.44 1.37-1.08 1.83-1.92.48-.86.72-1.86.72-3zm14.332 5.22l4.68-13.47h3.63l-6.3 16.53h-4.08l-6.27-16.53h3.66l4.68 13.47zm9.755-5.28c0-1.66.34-3.13 1.02-4.41.7-1.28 1.64-2.27 2.82-2.97 1.2-.72 2.52-1.08 3.96-1.08 1.3 0 2.43.26 3.39.78.98.5 1.76 1.13 2.34 1.89v-2.4h3.45V176h-3.45v-2.46c-.58.78-1.37 1.43-2.37 1.95s-2.14.78-3.42.78c-1.42 0-2.72-.36-3.9-1.08-1.18-.74-2.12-1.76-2.82-3.06-.68-1.32-1.02-2.81-1.02-4.47zm13.53.06c0-1.14-.24-2.13-.72-2.97-.46-.84-1.07-1.48-1.83-1.92-.76-.44-1.58-.66-2.46-.66-.88 0-1.7.22-2.46.66-.76.42-1.38 1.05-1.86 1.89-.46.82-.69 1.8-.69 2.94s.23 2.14.69 3c.48.86 1.1 1.52 1.86 1.98.78.44 1.6.66 2.46.66.88 0 1.7-.22 2.46-.66.76-.44 1.37-1.08 1.83-1.92.48-.86.72-1.86.72-3zm9.682-10.44c-.62 0-1.14-.21-1.56-.63-.42-.42-.63-.94-.63-1.56 0-.62.21-1.14.63-1.56.42-.42.94-.63 1.56-.63.6 0 1.11.21 1.53.63.42.42.63.94.63 1.56 0 .62-.21 1.14-.63 1.56-.42.42-.93.63-1.53.63zm1.68 2.19V176h-3.42v-16.53h3.42zm7.911-5.67V176h-3.42v-22.2h3.42zm3.35 13.86c0-1.66.34-3.13 1.02-4.41.7-1.28 1.64-2.27 2.82-2.97 1.2-.72 2.52-1.08 3.96-1.08 1.3 0 2.43.26 3.39.78.98.5 1.76 1.13 2.34 1.89v-2.4h3.45V176h-3.45v-2.46c-.58.78-1.37 1.43-2.37 1.95s-2.14.78-3.42.78c-1.42 0-2.72-.36-3.9-1.08-1.18-.74-2.12-1.76-2.82-3.06-.68-1.32-1.02-2.81-1.02-4.47zm13.53.06c0-1.14-.24-2.13-.72-2.97-.46-.84-1.07-1.48-1.83-1.92-.76-.44-1.58-.66-2.46-.66-.88 0-1.7.22-2.46.66-.76.42-1.38 1.05-1.86 1.89-.46.82-.69 1.8-.69 2.94s.23 2.14.69 3c.48.86 1.1 1.52 1.86 1.98.78.44 1.6.66 2.46.66.88 0 1.7-.22 2.46-.66.76-.44 1.37-1.08 1.83-1.92.48-.86.72-1.86.72-3zm11.362-5.79c.58-.8 1.37-1.45 2.37-1.95 1.02-.52 2.15-.78 3.39-.78 1.46 0 2.78.35 3.96 1.05 1.18.7 2.11 1.7 2.79 3 .68 1.28 1.02 2.75 1.02 4.41 0 1.66-.34 3.15-1.02 4.47-.68 1.3-1.62 2.32-2.82 3.06-1.18.72-2.49 1.08-3.93 1.08-1.28 0-2.42-.25-3.42-.75-.98-.5-1.76-1.14-2.34-1.92v2.4h-3.42v-22.2h3.42v8.13zm10.05 5.73c0-1.14-.24-2.12-.72-2.94-.46-.84-1.08-1.47-1.86-1.89-.76-.44-1.58-.66-2.46-.66-.86 0-1.68.22-2.46.66-.76.44-1.38 1.08-1.86 1.92-.46.84-.69 1.83-.69 2.97 0 1.14.23 2.14.69 3 .48.84 1.1 1.48 1.86 1.92.78.44 1.6.66 2.46.66.88 0 1.7-.22 2.46-.66.78-.46 1.4-1.12 1.86-1.98.48-.86.72-1.86.72-3zm10.282-13.86V176h-3.42v-22.2h3.42zm19.64 13.53c0 .62-.04 1.18-.12 1.68h-12.63c.1 1.32.59 2.38 1.47 3.18.88.8 1.96 1.2 3.24 1.2 1.84 0 3.14-.77 3.9-2.31h3.69c-.5 1.52-1.41 2.77-2.73 3.75-1.3.96-2.92 1.44-4.86 1.44-1.58 0-3-.35-4.26-1.05a7.847 7.847 0 01-2.94-3c-.7-1.3-1.05-2.8-1.05-4.5 0-1.7.34-3.19 1.02-4.47.7-1.3 1.67-2.3 2.91-3 1.26-.7 2.7-1.05 4.32-1.05 1.56 0 2.95.34 4.17 1.02 1.22.68 2.17 1.64 2.85 2.88.68 1.22 1.02 2.63 1.02 4.23zm-3.57-1.08c-.02-1.26-.47-2.27-1.35-3.03-.88-.76-1.97-1.14-3.27-1.14-1.18 0-2.19.38-3.03 1.14-.84.74-1.34 1.75-1.5 3.03h9.15z" fill="#2A2524"/></g><g filter="url(#filter1_d)"><path d="M243.25 215.6V251h-11.1v-13.8H221.6V251h-11.1v-35.4h11.1v12.75h10.55V215.6h11.1zm10.594 4.95c-1.933 0-3.483-.517-4.65-1.55-1.167-1.033-1.75-2.333-1.75-3.9 0-1.6.583-2.917 1.75-3.95 1.167-1.067 2.717-1.6 4.65-1.6 1.9 0 3.433.533 4.6 1.6 1.167 1.033 1.75 2.35 1.75 3.95 0 1.567-.583 2.867-1.75 3.9s-2.7 1.55-4.6 1.55zm5.5 2.25V251h-11.1v-28.2h11.1zm16.113 5.2c1.134-1.633 2.517-2.933 4.15-3.9 1.634-1 3.334-1.5 5.1-1.5v11.85h-3.15c-2.1 0-3.65.367-4.65 1.1-.966.733-1.45 2.033-1.45 3.9V251h-11.1v-28.2h11.1v5.2zm39.54 8.65c0 .767-.05 1.5-.15 2.2h-17.85c.167 2.433 1.184 3.65 3.05 3.65 1.2 0 2.067-.55 2.6-1.65h11.75c-.4 2-1.25 3.8-2.55 5.4-1.266 1.567-2.883 2.817-4.85 3.75-1.933.9-4.066 1.35-6.4 1.35-2.8 0-5.3-.583-7.5-1.75-2.166-1.167-3.866-2.833-5.1-5-1.2-2.2-1.8-4.767-1.8-7.7s.6-5.483 1.8-7.65c1.234-2.2 2.934-3.883 5.1-5.05 2.2-1.167 4.7-1.75 7.5-1.75s5.284.583 7.45 1.75c2.2 1.133 3.9 2.767 5.1 4.9 1.234 2.133 1.85 4.65 1.85 7.55zm-11.25-2.65c0-.933-.3-1.633-.9-2.1-.6-.5-1.35-.75-2.25-.75-1.966 0-3.116.95-3.45 2.85h6.6zm65.807-18.4V251h-11.05v-17.65l-5.45 17.65h-9.5l-5.45-17.65V251h-11.1v-35.4h13.6l7.8 21.25 7.6-21.25h13.55zm32.309 21.05c0 .767-.05 1.5-.15 2.2h-17.85c.166 2.433 1.183 3.65 3.05 3.65 1.2 0 2.066-.55 2.6-1.65h11.75c-.4 2-1.25 3.8-2.55 5.4-1.267 1.567-2.884 2.817-4.85 3.75-1.934.9-4.067 1.35-6.4 1.35-2.8 0-5.3-.583-7.5-1.75-2.167-1.167-3.867-2.833-5.1-5-1.2-2.2-1.8-4.767-1.8-7.7s.6-5.483 1.8-7.65c1.233-2.2 2.933-3.883 5.1-5.05 2.2-1.167 4.7-1.75 7.5-1.75s5.283.583 7.45 1.75c2.2 1.133 3.9 2.767 5.1 4.9 1.233 2.133 1.85 4.65 1.85 7.55zm-11.25-2.65c0-.933-.3-1.633-.9-2.1-.6-.5-1.35-.75-2.25-.75-1.967 0-3.117.95-3.45 2.85h6.6z" fill="#2A2524"/></g><defs><filter id="filter0_d" x="165.25" y="152.9" width="292.154" height="38.87" filterUnits="userSpaceOnUse" color-interpolation-filters="sRGB"><feFlood flood-opacity="0" result="BackgroundImageFix"/><feColorMatrix in="SourceAlpha" values="0 0 0 0 0 0 0 0 0 0 0 0 0 0 0 0 0 0 127 0"/><feOffset dy="4"/><feGaussianBlur stdDeviation="2"/><feColorMatrix values="0 0 0 0 0 0 0 0 0 0 0 0 0 0 0 0 0 0 0.25 0"/><feBlend in2="BackgroundImageFix" result="effect1_dropShadow"/><feBlend in="SourceGraphic" in2="effect1_dropShadow" result="shape"/></filter><filter id="filter1_d" x="206.5" y="209.55" width="199.363" height="49.8" filterUnits="userSpaceOnUse" color-interpolation-filters="sRGB"><feFlood flood-opacity="0" result="BackgroundImageFix"/><feColorMatrix in="SourceAlpha" values="0 0 0 0 0 0 0 0 0 0 0 0 0 0 0 0 0 0 127 0"/><feOffset dy="4"/><feGaussianBlur stdDeviation="2"/><feColorMatrix values="0 0 0 0 0 0 0 0 0 0 0 0 0 0 0 0 0 0 0.25 0"/><feBlend in2="BackgroundImageFix" result="effect1_dropShadow"/><feBlend in="SourceGraphic" in2="effect1_dropShadow" result="shape"/></filter><linearGradient id="paint0_linear" x1="0" y1="25" x2="290" y2="25" gradientUnits="userSpaceOnUse"><stop stop-color="#4776E6"/><stop offset="1" stop-color="#8E54E9"/></linearGradient></defs></svg>