<svg width="506" height="500" fill="none" xmlns="http://www.w3.org/2000/svg"><g filter="url(#filter0_d)"><path d="M183.65 162.35v20.85h-3.42v-9.12h-9.81v9.12H167v-20.85h3.42v8.94h9.81v-8.94h3.42zm19.652 12.18c0 .62-.04 1.18-.12 1.68h-12.63c.1 1.32.59 2.38 1.47 3.18.88.8 1.96 1.2 3.24 1.2 1.84 0 3.14-.77 3.9-2.31h3.69c-.5 1.52-1.41 2.77-2.73 3.75-1.3.96-2.92 1.44-4.86 1.44-1.58 0-3-.35-4.26-1.05a7.844 7.844 0 01-2.94-3c-.7-1.3-1.05-2.8-1.05-4.5 0-1.7.34-3.19 1.02-4.47.7-1.3 1.67-2.3 2.91-3 1.26-.7 2.7-1.05 4.32-1.05 1.56 0 2.95.34 4.17 1.02 1.22.68 2.17 1.64 2.85 2.88.68 1.22 1.02 2.63 1.02 4.23zm-3.57-1.08c-.02-1.26-.47-2.27-1.35-3.03-.88-.76-1.97-1.14-3.27-1.14-1.18 0-2.19.38-3.03 1.14-.84.74-1.34 1.75-1.5 3.03h9.15zm21.816-6.78l-10.14 24.3h-3.54l3.36-8.04-6.51-16.26h3.81l4.65 12.6 4.83-12.6h3.54zm6.331 12.42l-3.63 8.28h-2.22l2.13-8.28h3.72zm14.201-16.74v20.85h-3.42v-20.85h3.42zm11.143 12.51c0-1.66.34-3.13 1.02-4.41.7-1.28 1.64-2.27 2.82-2.97 1.2-.72 2.52-1.08 3.96-1.08 1.3 0 2.43.26 3.39.78.98.5 1.76 1.13 2.34 1.89v-2.4h3.45v16.53h-3.45v-2.46c-.58.78-1.37 1.43-2.37 1.95s-2.14.78-3.42.78c-1.42 0-2.72-.36-3.9-1.08-1.18-.74-2.12-1.76-2.82-3.06-.68-1.32-1.02-2.81-1.02-4.47zm13.53.06c0-1.14-.24-2.13-.72-2.97-.46-.84-1.07-1.48-1.83-1.92-.76-.44-1.58-.66-2.46-.66-.88 0-1.7.22-2.46.66-.76.42-1.38 1.05-1.86 1.89-.46.82-.69 1.8-.69 2.94s.23 2.14.69 3c.48.86 1.1 1.52 1.86 1.98.78.44 1.6.66 2.46.66.88 0 1.7-.22 2.46-.66.76-.44 1.37-1.08 1.83-1.92.48-.86.72-1.86.72-3zm27.952-8.52c1.3 0 2.46.27 3.48.81 1.04.54 1.85 1.34 2.43 2.4.6 1.06.9 2.34.9 3.84v9.75h-3.39v-9.24c0-1.48-.37-2.61-1.11-3.39-.74-.8-1.75-1.2-3.03-1.2-1.28 0-2.3.4-3.06 1.2-.74.78-1.11 1.91-1.11 3.39v9.24h-3.39v-9.24c0-1.48-.37-2.61-1.11-3.39-.74-.8-1.75-1.2-3.03-1.2-1.28 0-2.3.4-3.06 1.2-.74.78-1.11 1.91-1.11 3.39v9.24h-3.42v-16.53h3.42v1.89c.56-.68 1.27-1.21 2.13-1.59.86-.38 1.78-.57 2.76-.57 1.32 0 2.5.28 3.54.84 1.04.56 1.84 1.37 2.4 2.43.5-1 1.28-1.79 2.34-2.37 1.06-.6 2.2-.9 3.42-.9zm31.225-4.05v2.79h-8.85v6.15h6.9v2.79h-6.9v9.12h-3.42v-20.85h12.27zm18.14 4.32v16.53h-3.42v-1.95c-.54.68-1.25 1.22-2.13 1.62-.86.38-1.78.57-2.76.57-1.3 0-2.47-.27-3.51-.81-1.02-.54-1.83-1.34-2.43-2.4-.58-1.06-.87-2.34-.87-3.84v-9.72h3.39v9.21c0 1.48.37 2.62 1.11 3.42.74.78 1.75 1.17 3.03 1.17 1.28 0 2.29-.39 3.03-1.17.76-.8 1.14-1.94 1.14-3.42v-9.21h3.42zm7.932-5.67v22.2h-3.42V161h3.42zm7.91 0v22.2h-3.42V161h3.42zm10.49 22.47c-1.3 0-2.47-.23-3.51-.69-1.02-.48-1.83-1.12-2.43-1.92-.6-.82-.92-1.73-.96-2.73h3.54c.06.7.39 1.29.99 1.77.62.46 1.39.69 2.31.69.96 0 1.7-.18 2.22-.54.54-.38.81-.86.81-1.44 0-.62-.3-1.08-.9-1.38-.58-.3-1.51-.63-2.79-.99-1.24-.34-2.25-.67-3.03-.99-.78-.32-1.46-.81-2.04-1.47-.56-.66-.84-1.53-.84-2.61 0-.88.26-1.68.78-2.4.52-.74 1.26-1.32 2.22-1.74.98-.42 2.1-.63 3.36-.63 1.88 0 3.39.48 4.53 1.44 1.16.94 1.78 2.23 1.86 3.87h-3.42c-.06-.74-.36-1.33-.9-1.77-.54-.44-1.27-.66-2.19-.66-.9 0-1.59.17-2.07.51-.48.34-.72.79-.72 1.35 0 .44.16.81.48 1.11.32.3.71.54 1.17.72.46.16 1.14.37 2.04.63 1.2.32 2.18.65 2.94.99.78.32 1.45.8 2.01 1.44.56.64.85 1.49.87 2.55 0 .94-.26 1.78-.78 2.52s-1.26 1.32-2.22 1.74c-.94.42-2.05.63-3.33.63zm14.016-14.01v9.15c0 .62.14 1.07.42 1.35.3.26.8.39 1.5.39h2.1v2.85h-2.7c-1.54 0-2.72-.36-3.54-1.08-.82-.72-1.23-1.89-1.23-3.51v-9.15h-1.95v-2.79h1.95v-4.11h3.45v4.11h4.02v2.79h-4.02zm6.032 5.4c0-1.66.34-3.13 1.02-4.41.7-1.28 1.64-2.27 2.82-2.97 1.2-.72 2.52-1.08 3.96-1.08 1.3 0 2.43.26 3.39.78.98.5 1.76 1.13 2.34 1.89v-2.4h3.45v16.53h-3.45v-2.46c-.58.78-1.37 1.43-2.37 1.95s-2.14.78-3.42.78c-1.42 0-2.72-.36-3.9-1.08-1.18-.74-2.12-1.76-2.82-3.06-.68-1.32-1.02-2.81-1.02-4.47zm13.53.06c0-1.14-.24-2.13-.72-2.97-.46-.84-1.07-1.48-1.83-1.92-.76-.44-1.58-.66-2.46-.66-.88 0-1.7.22-2.46.66-.76.42-1.38 1.05-1.86 1.89-.46.82-.69 1.8-.69 2.94s.23 2.14.69 3c.48.86 1.1 1.52 1.86 1.98.78.44 1.6.66 2.46.66.88 0 1.7-.22 2.46-.66.76-.44 1.37-1.08 1.83-1.92.48-.86.72-1.86.72-3zm6.802 0c0-1.7.34-3.19 1.02-4.47.7-1.3 1.66-2.3 2.88-3 1.22-.7 2.62-1.05 4.2-1.05 2 0 3.65.48 4.95 1.44 1.32.94 2.21 2.29 2.67 4.05h-3.69c-.3-.82-.78-1.46-1.44-1.92-.66-.46-1.49-.69-2.49-.69-1.4 0-2.52.5-3.36 1.5-.82.98-1.23 2.36-1.23 4.14 0 1.78.41 3.17 1.23 4.17.84 1 1.96 1.5 3.36 1.5 1.98 0 3.29-.87 3.93-2.61h3.69c-.48 1.68-1.38 3.02-2.7 4.02-1.32.98-2.96 1.47-4.92 1.47-1.58 0-2.98-.35-4.2-1.05-1.22-.72-2.18-1.72-2.88-3-.68-1.3-1.02-2.8-1.02-4.5zm25.668.03l7.62 8.25h-4.62l-6.12-7.11v7.11h-3.42V161h3.42v12.9l6-7.23h4.74l-7.62 8.28z" fill="#2A2524"/></g><g filter="url(#filter1_d)"><path d="M161.549 224.378c11.1 0 20.8 2.25 29.1 6.75 8.4 4.5 14.85 10.75 19.35 18.75 4.5 8 6.75 17.1 6.75 27.3 0 10.1-2.25 19.2-6.75 27.3-4.5 8.1-10.95 14.5-19.35 19.2-8.3 4.6-18 6.9-29.1 6.9h-44.25v-106.2h44.25zm-3 76.5c7.5 0 13.45-2.05 17.85-6.15 4.4-4.1 6.6-9.95 6.6-17.55 0-7.6-2.2-13.45-6.6-17.55-4.4-4.1-10.35-6.15-17.85-6.15h-7.95v47.4h7.95z" fill="#CA6035"/></g><g filter="url(#filter2_d)"><path d="M266.8 258.85c0 .767-.05 1.5-.15 2.2H248.8c.167 2.433 1.183 3.65 3.05 3.65 1.2 0 2.067-.55 2.6-1.65h11.75c-.4 2-1.25 3.8-2.55 5.4-1.267 1.567-2.883 2.817-4.85 3.75-1.933.9-4.067 1.35-6.4 1.35-2.8 0-5.3-.583-7.5-1.75-2.167-1.167-3.867-2.833-5.1-5-1.2-2.2-1.8-4.767-1.8-7.7s.6-5.483 1.8-7.65c1.233-2.2 2.933-3.883 5.1-5.05 2.2-1.167 4.7-1.75 7.5-1.75s5.283.583 7.45 1.75c2.2 1.133 3.9 2.767 5.1 4.9 1.233 2.133 1.85 4.65 1.85 7.55zm-11.25-2.65c0-.933-.3-1.633-.9-2.1-.6-.5-1.35-.75-2.25-.75-1.967 0-3.117.95-3.45 2.85h6.6zm27.311 17.35c-2.667 0-5.034-.433-7.1-1.3-2.034-.867-3.65-2.067-4.85-3.6a9.599 9.599 0 01-2.05-5.2h10.65c.133.833.483 1.45 1.05 1.85.6.4 1.35.6 2.25.6.566 0 1.016-.117 1.35-.35.333-.267.5-.583.5-.95 0-.633-.35-1.083-1.05-1.35-.7-.267-1.884-.567-3.55-.9-2.034-.4-3.717-.833-5.05-1.3-1.3-.467-2.45-1.267-3.45-2.4-.967-1.133-1.45-2.7-1.45-4.7 0-1.733.45-3.3 1.35-4.7.933-1.433 2.3-2.55 4.1-3.35 1.8-.833 3.983-1.25 6.55-1.25 3.8 0 6.766.933 8.9 2.8 2.166 1.867 3.466 4.3 3.9 7.3h-9.85c-.167-.767-.517-1.35-1.05-1.75-.534-.433-1.25-.65-2.15-.65-.567 0-1 .117-1.3.35-.3.2-.45.517-.45.95 0 .567.35 1 1.05 1.3.7.267 1.816.55 3.35.85 2.033.4 3.75.85 5.15 1.35 1.4.5 2.616 1.367 3.65 2.6 1.033 1.2 1.55 2.867 1.55 5 0 1.667-.484 3.167-1.45 4.5-.967 1.333-2.367 2.383-4.2 3.15-1.8.767-3.917 1.15-6.35 1.15zm22.005-30.8c-1.934 0-3.484-.517-4.65-1.55-1.167-1.033-1.75-2.333-1.75-3.9 0-1.6.583-2.917 1.75-3.95 1.166-1.067 2.716-1.6 4.65-1.6 1.9 0 3.433.533 4.6 1.6 1.166 1.033 1.75 2.35 1.75 3.95 0 1.567-.584 2.867-1.75 3.9-1.167 1.033-2.7 1.55-4.6 1.55zm5.5 2.25v28.2h-11.1V245h11.1zm15.163-.35c1.833 0 3.417.383 4.75 1.15 1.333.733 2.35 1.75 3.05 3.05V245h11.05v27.7c0 2.633-.483 5.033-1.45 7.2s-2.533 3.9-4.7 5.2c-2.133 1.3-4.883 1.95-8.25 1.95-4.533 0-8.133-1.067-10.8-3.2-2.633-2.1-4.133-4.967-4.5-8.6h10.9c.3 1.467 1.5 2.2 3.6 2.2 1.3 0 2.317-.333 3.05-1 .733-.667 1.1-1.917 1.1-3.75v-3.35c-.7 1.3-1.717 2.333-3.05 3.1-1.333.733-2.917 1.1-4.75 1.1-2.2 0-4.183-.567-5.95-1.7-1.767-1.167-3.167-2.833-4.2-5-1-2.2-1.5-4.783-1.5-7.75 0-2.967.5-5.533 1.5-7.7 1.033-2.2 2.433-3.867 4.2-5 1.767-1.167 3.75-1.75 5.95-1.75zm7.8 14.45c0-1.5-.383-2.667-1.15-3.5-.767-.833-1.75-1.25-2.95-1.25-1.2 0-2.183.417-2.95 1.25-.767.833-1.15 2-1.15 3.5s.383 2.667 1.15 3.5c.767.833 1.75 1.25 2.95 1.25 1.2 0 2.183-.417 2.95-1.25.767-.833 1.15-2 1.15-3.5zm35.784-14.3c3.234 0 5.75 1.083 7.55 3.25 1.834 2.167 2.75 5.1 2.75 8.8v16.35h-11.05v-14.95c0-1.333-.366-2.383-1.1-3.15-.7-.8-1.65-1.2-2.85-1.2-1.233 0-2.2.4-2.9 1.2-.7.767-1.05 1.817-1.05 3.15v14.95h-11.1V245h11.1v4.3c.867-1.333 2.017-2.417 3.45-3.25 1.467-.833 3.2-1.25 5.2-1.25zm42.414 14.05c0 .767-.05 1.5-.15 2.2h-17.85c.166 2.433 1.183 3.65 3.05 3.65 1.2 0 2.066-.55 2.6-1.65h11.75c-.4 2-1.25 3.8-2.55 5.4-1.267 1.567-2.884 2.817-4.85 3.75-1.934.9-4.067 1.35-6.4 1.35-2.8 0-5.3-.583-7.5-1.75-2.167-1.167-3.867-2.833-5.1-5-1.2-2.2-1.8-4.767-1.8-7.7s.6-5.483 1.8-7.65c1.233-2.2 2.933-3.883 5.1-5.05 2.2-1.167 4.7-1.75 7.5-1.75s5.283.583 7.45 1.75c2.2 1.133 3.9 2.767 5.1 4.9 1.233 2.133 1.85 4.65 1.85 7.55zm-11.25-2.65c0-.933-.3-1.633-.9-2.1-.6-.5-1.35-.75-2.25-.75-1.967 0-3.117.95-3.45 2.85h6.6zm25.86-6c1.133-1.633 2.517-2.933 4.15-3.9 1.633-1 3.333-1.5 5.1-1.5v11.85h-3.15c-2.1 0-3.65.367-4.65 1.1-.967.733-1.45 2.033-1.45 3.9v11.55h-11.1V245h11.1v5.2zm44.786 11.1h-7.45v7.65h-10.65v-7.65h-7.45v-10.15h7.45v-7.7h10.65v7.7h7.45v10.15z" fill="#2A2524"/></g><g filter="url(#filter3_d)"><path d="M248.8 311.85c0 .767-.05 1.5-.15 2.2H230.8c.167 2.433 1.183 3.65 3.05 3.65 1.2 0 2.067-.55 2.6-1.65h11.75c-.4 2-1.25 3.8-2.55 5.4-1.267 1.567-2.883 2.817-4.85 3.75-1.933.9-4.067 1.35-6.4 1.35-2.8 0-5.3-.583-7.5-1.75-2.167-1.167-3.867-2.833-5.1-5-1.2-2.2-1.8-4.767-1.8-7.7s.6-5.483 1.8-7.65c1.233-2.2 2.933-3.883 5.1-5.05 2.2-1.167 4.7-1.75 7.5-1.75s5.283.583 7.45 1.75c2.2 1.133 3.9 2.767 5.1 4.9 1.233 2.133 1.85 4.65 1.85 7.55zm-11.25-2.65c0-.933-.3-1.633-.9-2.1-.6-.5-1.35-.75-2.25-.75-1.967 0-3.117.95-3.45 2.85h6.6zm29.061 6.45l4.5-17.65h11.8l-9.4 28.2h-13.85l-9.4-28.2h11.8l4.55 17.65zm46.544-3.8c0 .767-.05 1.5-.15 2.2h-17.85c.167 2.433 1.184 3.65 3.05 3.65 1.2 0 2.067-.55 2.6-1.65h11.75c-.4 2-1.25 3.8-2.55 5.4-1.266 1.567-2.883 2.817-4.85 3.75-1.933.9-4.066 1.35-6.4 1.35-2.8 0-5.3-.583-7.5-1.75-2.166-1.167-3.866-2.833-5.1-5-1.2-2.2-1.8-4.767-1.8-7.7s.6-5.483 1.8-7.65c1.234-2.2 2.934-3.883 5.1-5.05 2.2-1.167 4.7-1.75 7.5-1.75s5.284.583 7.45 1.75c2.2 1.133 3.9 2.767 5.1 4.9 1.234 2.133 1.85 4.65 1.85 7.55zm-11.25-2.65c0-.933-.3-1.633-.9-2.1-.6-.5-1.35-.75-2.25-.75-1.966 0-3.116.95-3.45 2.85h6.6zm25.861-20v37h-11.1v-37h11.1zm18.413 37.35c-2.833 0-5.383-.583-7.65-1.75-2.266-1.167-4.05-2.833-5.35-5-1.266-2.2-1.9-4.767-1.9-7.7s.634-5.483 1.9-7.65c1.3-2.2 3.084-3.883 5.35-5.05 2.267-1.167 4.817-1.75 7.65-1.75 2.834 0 5.384.583 7.65 1.75 2.267 1.167 4.034 2.85 5.3 5.05 1.3 2.167 1.95 4.717 1.95 7.65 0 2.933-.65 5.5-1.95 7.7-1.266 2.167-3.033 3.833-5.3 5-2.266 1.167-4.816 1.75-7.65 1.75zm0-9.6c1.034 0 1.9-.4 2.6-1.2.7-.833 1.05-2.05 1.05-3.65s-.35-2.8-1.05-3.6c-.7-.833-1.566-1.25-2.6-1.25-1.033 0-1.9.417-2.6 1.25-.7.8-1.05 2-1.05 3.6s.334 2.817 1 3.65c.7.8 1.584 1.2 2.65 1.2zm29.487-15.1c.7-1.3 1.7-2.317 3-3.05 1.334-.767 2.917-1.15 4.75-1.15 2.2 0 4.184.583 5.95 1.75 1.767 1.133 3.15 2.8 4.15 5 1.034 2.167 1.55 4.733 1.55 7.7 0 2.967-.516 5.55-1.55 7.75-1 2.167-2.383 3.833-4.15 5-1.766 1.133-3.75 1.7-5.95 1.7-1.833 0-3.416-.367-4.75-1.1-1.3-.767-2.3-1.8-3-3.1v17.35h-11.1V298h11.1v3.85zm8.15 10.25c0-1.5-.383-2.667-1.15-3.5-.766-.833-1.75-1.25-2.95-1.25-1.2 0-2.183.417-2.95 1.25-.766.833-1.15 2-1.15 3.5s.384 2.667 1.15 3.5c.767.833 1.75 1.25 2.95 1.25 1.2 0 2.184-.417 2.95-1.25.767-.833 1.15-2 1.15-3.5zm42.035-.25c0 .767-.05 1.5-.15 2.2h-17.85c.166 2.433 1.183 3.65 3.05 3.65 1.2 0 2.066-.55 2.6-1.65h11.75c-.4 2-1.25 3.8-2.55 5.4-1.267 1.567-2.884 2.817-4.85 3.75-1.934.9-4.067 1.35-6.4 1.35-2.8 0-5.3-.583-7.5-1.75-2.167-1.167-3.867-2.833-5.1-5-1.2-2.2-1.8-4.767-1.8-7.7s.6-5.483 1.8-7.65c1.233-2.2 2.933-3.883 5.1-5.05 2.2-1.167 4.7-1.75 7.5-1.75s5.283.583 7.45 1.75c2.2 1.133 3.9 2.767 5.1 4.9 1.233 2.133 1.85 4.65 1.85 7.55zm-11.25-2.65c0-.933-.3-1.633-.9-2.1-.6-.5-1.35-.75-2.25-.75-1.967 0-3.117.95-3.45 2.85h6.6zm25.86-6c1.134-1.633 2.517-2.933 4.15-3.9 1.634-1 3.334-1.5 5.1-1.5v11.85h-3.15c-2.1 0-3.65.367-4.65 1.1-.966.733-1.45 2.033-1.45 3.9v11.55h-11.1V298h11.1v5.2z" fill="#2A2524"/></g><defs><filter id="filter0_d" x="163" y="161" width="285.07" height="37.97" filterUnits="userSpaceOnUse" color-interpolation-filters="sRGB"><feFlood flood-opacity="0" result="BackgroundImageFix"/><feColorMatrix in="SourceAlpha" values="0 0 0 0 0 0 0 0 0 0 0 0 0 0 0 0 0 0 127 0"/><feOffset dy="4"/><feGaussianBlur stdDeviation="2"/><feColorMatrix values="0 0 0 0 0 0 0 0 0 0 0 0 0 0 0 0 0 0 0.25 0"/><feBlend in2="BackgroundImageFix" result="effect1_dropShadow"/><feBlend in="SourceGraphic" in2="effect1_dropShadow" result="shape"/></filter><filter id="filter1_d" x="113.299" y="224.378" width="107.45" height="114.2" filterUnits="userSpaceOnUse" color-interpolation-filters="sRGB"><feFlood flood-opacity="0" result="BackgroundImageFix"/><feColorMatrix in="SourceAlpha" values="0 0 0 0 0 0 0 0 0 0 0 0 0 0 0 0 0 0 127 0"/><feOffset dy="4"/><feGaussianBlur stdDeviation="2"/><feColorMatrix values="0 0 0 0 0 0 0 0 0 0 0 0 0 0 0 0 0 0 0.25 0"/><feBlend in2="BackgroundImageFix" result="effect1_dropShadow"/><feBlend in="SourceGraphic" in2="effect1_dropShadow" result="shape"/></filter><filter id="filter2_d" x="234" y="231.75" width="240.923" height="63.3" filterUnits="userSpaceOnUse" color-interpolation-filters="sRGB"><feFlood flood-opacity="0" result="BackgroundImageFix"/><feColorMatrix in="SourceAlpha" values="0 0 0 0 0 0 0 0 0 0 0 0 0 0 0 0 0 0 127 0"/><feOffset dy="4"/><feGaussianBlur stdDeviation="2"/><feColorMatrix values="0 0 0 0 0 0 0 0 0 0 0 0 0 0 0 0 0 0 0.25 0"/><feBlend in2="BackgroundImageFix" result="effect1_dropShadow"/><feBlend in="SourceGraphic" in2="effect1_dropShadow" result="shape"/></filter><filter id="filter3_d" x="216" y="289.2" width="237.711" height="58.5" filterUnits="userSpaceOnUse" color-interpolation-filters="sRGB"><feFlood flood-opacity="0" result="BackgroundImageFix"/><feColorMatrix in="SourceAlpha" values="0 0 0 0 0 0 0 0 0 0 0 0 0 0 0 0 0 0 127 0"/><feOffset dy="4"/><feGaussianBlur stdDeviation="2"/><feColorMatrix values="0 0 0 0 0 0 0 0 0 0 0 0 0 0 0 0 0 0 0.25 0"/><feBlend in2="BackgroundImageFix" result="effect1_dropShadow"/><feBlend in="SourceGraphic" in2="effect1_dropShadow" result="shape"/></filter></defs></svg>