<svg width="288" height="242" viewBox="0 0 288 242" fill="none" xmlns="http://www.w3.org/2000/svg">
<path d="M14.8759 90.1285C15.8123 91.0645 15.8123 92.5845 14.8759 93.5219C13.9389 94.4579 12.4196 94.4579 11.4826 93.5219C10.5462 92.5845 10.5462 91.0645 11.4826 90.1285C12.4196 89.1912 13.9389 89.1912 14.8759 90.1285Z" fill="#272727"/>
<path d="M23.7926 81.2111C24.7295 82.1484 24.7295 83.6671 23.7926 84.6044C22.8555 85.5404 21.3368 85.5404 20.3998 84.6044C19.4628 83.6671 19.4628 82.1484 20.3998 81.2111C21.3368 80.2738 22.8555 80.2738 23.7926 81.2111Z" fill="#272727"/>
<path d="M32.7097 72.2938C33.6461 73.2312 33.6461 74.7498 32.7097 75.6871C31.7726 76.6245 30.2534 76.6245 29.3164 75.6871C28.38 74.7498 28.38 73.2312 29.3164 72.2938C30.2534 71.3578 31.7726 71.3578 32.7097 72.2938Z" fill="#272727"/>
<path d="M41.6264 63.3779C42.5633 64.3152 42.5633 65.8339 41.6264 66.7699C40.6893 67.7072 39.1707 67.7072 38.2336 66.7699C37.2967 65.8339 37.2967 64.3152 38.2336 63.3779C39.1707 62.4406 40.6893 62.4406 41.6264 63.3779Z" fill="#272727"/>
<path d="M50.5436 54.4606C51.4806 55.3979 51.4806 56.9166 50.5436 57.8539C49.6066 58.7899 48.0874 58.7899 47.1508 57.8539C46.2139 56.9166 46.2139 55.3979 47.1508 54.4606C48.0874 53.5233 49.6066 53.5233 50.5436 54.4606Z" fill="#272727"/>
<path d="M59.4602 45.543C60.3972 46.4804 60.3972 47.9991 59.4602 48.9364C58.5232 49.8737 57.0045 49.8737 56.0674 48.9364C55.1305 47.9991 55.1305 46.4804 56.0674 45.543C57.0045 44.607 58.5232 44.607 59.4602 45.543Z" fill="#272727"/>
<path d="M68.3773 36.6272C69.3144 37.5632 69.3144 39.0832 68.3773 40.0192C67.4404 40.9565 65.9217 40.9565 64.9847 40.0192C64.0477 39.0832 64.0477 37.5632 64.9847 36.6272C65.9217 35.6898 67.4404 35.6898 68.3773 36.6272Z" fill="#272727"/>
<path d="M77.2941 27.7098C78.2312 28.6472 78.2312 30.1658 77.2941 31.1032C76.3572 32.0392 74.8385 32.0392 73.9014 31.1032C72.9645 30.1658 72.9645 28.6472 73.9014 27.7098C74.8385 26.7725 76.3572 26.7725 77.2941 27.7098Z" fill="#272727"/>
<path d="M86.2111 18.7926C87.1482 19.7299 87.1482 21.2486 86.2111 22.1859C85.2742 23.1219 83.7554 23.1219 82.8184 22.1859C81.8815 21.2486 81.8815 19.7299 82.8184 18.7926C83.7554 17.8552 85.2742 17.8552 86.2111 18.7926Z" fill="#272727"/>
<path d="M95.1279 9.87644C96.065 10.8124 96.065 12.3311 95.1279 13.2684C94.1915 14.2058 92.6722 14.2058 91.7353 13.2684C90.7989 12.3311 90.7989 10.8124 91.7353 9.87644C92.6722 8.93911 94.1915 8.93911 95.1279 9.87644Z" fill="#272727"/>
<path d="M104.045 0.959207C104.982 1.89521 104.982 3.4152 104.045 4.3512C103.108 5.28853 101.589 5.28853 100.652 4.3512C99.7155 3.4152 99.7155 1.89521 100.652 0.959207C101.589 0.0218738 103.108 0.0218738 104.045 0.959207Z" fill="#272727"/>
<path d="M14.6191 107.706C15.556 108.643 15.556 110.162 14.6191 111.098C13.6821 112.035 12.1633 112.035 11.2264 111.098C10.2894 110.162 10.2894 108.643 11.2264 107.706C12.1633 106.768 13.6821 106.768 14.6191 107.706Z" fill="#272727"/>
<path d="M23.5363 98.7885C24.4732 99.7258 24.4732 101.244 23.5363 102.182C22.5993 103.119 21.0805 103.119 20.1435 102.182C19.2065 101.244 19.2065 99.7258 20.1435 98.7885C21.0805 97.8525 22.5993 97.8525 23.5363 98.7885Z" fill="#272727"/>
<path d="M4.09546 99.702C5.03239 100.639 5.03239 102.158 4.09546 103.095C3.15853 104.033 1.63973 104.033 0.70274 103.095C-0.234247 102.158 -0.234247 100.639 0.70274 99.702C1.63973 98.766 3.15853 98.766 4.09546 99.702Z" fill="#272727"/>
<path d="M23.0955 99.702C24.0324 100.639 24.0324 102.158 23.0955 103.095C22.1585 104.033 20.6397 104.033 19.7027 103.095C18.7658 102.158 18.7658 100.639 19.7027 99.702C20.6397 98.766 22.1585 98.766 23.0955 99.702Z" fill="#272727"/>
<path d="M32.4529 89.8725C33.3899 90.8085 33.3899 92.3272 32.4529 93.2645C31.516 94.2019 29.9972 94.2019 29.0603 93.2645C28.1232 92.3272 28.1232 90.8085 29.0603 89.8725C29.9972 88.9352 31.516 88.9352 32.4529 89.8725Z" fill="#272727"/>
<path d="M41.3702 80.9552C42.3071 81.8912 42.3071 83.4112 41.3702 84.3485C40.4331 85.2845 38.9144 85.2845 37.9774 84.3485C37.0404 83.4112 37.0404 81.8912 37.9774 80.9552C38.9144 80.0179 40.4331 80.0179 41.3702 80.9552Z" fill="#272727"/>
<path d="M50.2868 72.0377C51.2237 72.975 51.2237 74.4937 50.2868 75.4311C49.3502 76.3671 47.8311 76.3671 46.894 75.4311C45.9571 74.4937 45.9571 72.975 46.894 72.0377C47.8311 71.1004 49.3502 71.1004 50.2868 72.0377Z" fill="#272727"/>
<path d="M59.204 63.1205C60.141 64.0578 60.141 65.5765 59.204 66.5138C58.267 67.4498 56.7483 67.4498 55.8112 66.5138C54.8743 65.5765 54.8743 64.0578 55.8112 63.1205C56.7483 62.1845 58.267 62.1845 59.204 63.1205Z" fill="#272727"/>
<path d="M68.1212 54.2045C69.0576 55.1405 69.0576 56.6606 68.1212 57.5966C67.1841 58.5339 65.6649 58.5339 64.7279 57.5966C63.7915 56.6606 63.7915 55.1405 64.7279 54.2045C65.6649 53.2672 67.1841 53.2672 68.1212 54.2045Z" fill="#272727"/>
<path d="M77.0379 45.2872C77.9748 46.2245 77.9748 47.7432 77.0379 48.6806C76.1008 49.6166 74.5821 49.6166 73.6451 48.6806C72.7081 47.7432 72.7081 46.2245 73.6451 45.2872C74.5821 44.3499 76.1008 44.3499 77.0379 45.2872Z" fill="#272727"/>
<path d="M85.955 36.3697C86.8919 37.307 86.8919 38.8257 85.955 39.7631C85.0179 40.7004 83.4987 40.7004 82.5617 39.7631C81.6253 38.8257 81.6253 37.307 82.5617 36.3697C83.4987 35.4337 85.0179 35.4337 85.955 36.3697Z" fill="#272727"/>
<path d="M94.8716 27.4525C95.8086 28.3899 95.8086 29.9098 94.8716 30.8458C93.9346 31.7832 92.4159 31.7832 91.4788 30.8458C90.5419 29.9098 90.5419 28.3899 91.4788 27.4525C92.4159 26.5165 93.9346 26.5165 94.8716 27.4525Z" fill="#272727"/>
<path d="M103.789 18.5366C104.726 19.4726 104.726 20.9926 103.789 21.9286C102.852 22.8659 101.333 22.8659 100.396 21.9286C99.4593 20.9926 99.4593 19.4726 100.396 18.5366C101.333 17.5993 102.852 17.5993 103.789 18.5366Z" fill="#272727"/>
<path d="M112.705 9.61931C113.643 10.5566 113.643 12.0753 112.705 13.0126C111.769 13.9486 110.25 13.9486 109.313 13.0126C108.376 12.0753 108.376 10.5566 109.313 9.61931C110.25 8.68197 111.769 8.68197 112.705 9.61931Z" fill="#272727"/>
<path d="M121.623 0.703104C122.56 1.6391 122.56 3.15776 121.623 4.0951C120.686 5.03243 119.166 5.03243 118.229 4.0951C117.293 3.15776 117.293 1.6391 118.229 0.703104C119.166 -0.23423 120.686 -0.23423 121.623 0.703104Z" fill="#272727"/>
<path d="M140.623 0.703104C141.56 1.6391 141.56 3.15776 140.623 4.0951C139.686 5.03243 138.166 5.03243 137.229 4.0951C136.293 3.15776 136.293 1.6391 137.229 0.703104C138.166 -0.23423 139.686 -0.23423 140.623 0.703104Z" fill="#272727"/>
<path d="M158.096 0.703104C159.033 1.6391 159.033 3.15776 158.096 4.0951C157.159 5.03243 155.639 5.03243 154.702 4.0951C153.766 3.15776 153.766 1.6391 154.702 0.703104C155.639 -0.23423 157.159 -0.23423 158.096 0.703104Z" fill="#272727"/>
<path d="M175.096 0.703104C176.033 1.6391 176.033 3.15776 175.096 4.0951C174.159 5.03243 172.639 5.03243 171.702 4.0951C170.766 3.15776 170.766 1.6391 171.702 0.703104C172.639 -0.23423 174.159 -0.23423 175.096 0.703104Z" fill="#272727"/>
<path d="M192.096 0.703104C193.033 1.6391 193.033 3.15776 192.096 4.0951C191.159 5.03243 189.639 5.03243 188.702 4.0951C187.766 3.15776 187.766 1.6391 188.702 0.703104C189.639 -0.23423 191.159 -0.23423 192.096 0.703104Z" fill="#272727"/>
<path d="M23.2795 116.366C24.2164 117.303 24.2164 118.822 23.2795 119.759C22.3431 120.695 20.8237 120.695 19.8868 119.759C18.9498 118.822 18.9498 117.303 19.8868 116.366C20.8237 115.429 22.3431 115.429 23.2795 116.366Z" fill="#272727"/>
<path d="M32.1967 107.45C33.1336 108.386 33.1336 109.906 32.1967 110.842C31.2597 111.779 29.7404 111.779 28.804 110.842C27.8669 109.906 27.8669 108.386 28.804 107.45C29.7404 106.513 31.2597 106.513 32.1967 107.45Z" fill="#272727"/>
<path d="M41.1139 98.5324C42.0503 99.4698 42.0503 100.988 41.1139 101.924C40.177 102.862 38.6576 102.862 37.7207 101.924C36.7836 100.988 36.7836 99.4698 37.7207 98.5324C38.6576 97.5951 40.177 97.5951 41.1139 98.5324Z" fill="#272727"/>
<path d="M50.0305 89.6151C50.9675 90.5524 50.9675 92.0711 50.0305 93.0084C49.0936 93.9458 47.5748 93.9458 46.6379 93.0084C45.7008 92.0711 45.7008 90.5524 46.6379 89.6151C47.5748 88.6791 49.0936 88.6791 50.0305 89.6151Z" fill="#272727"/>
<path d="M58.9477 80.6978C59.8841 81.6352 59.8841 83.1539 58.9477 84.0912C58.0107 85.0285 56.4915 85.0285 55.5545 84.0912C54.6175 83.1539 54.6175 81.6352 55.5545 80.6978C56.4915 79.7618 58.0107 79.7618 58.9477 80.6978Z" fill="#272727"/>
<path d="M67.8644 71.7817C68.8013 72.7177 68.8013 74.2377 67.8644 75.1737C66.9273 76.111 65.4087 76.111 64.4717 75.1737C63.5347 74.2377 63.5347 72.7177 64.4717 71.7817C65.4087 70.8444 66.9273 70.8444 67.8644 71.7817Z" fill="#272727"/>
<path d="M76.7816 62.8646C77.718 63.8019 77.718 65.3206 76.7816 66.258C75.8446 67.194 74.3254 67.194 73.3884 66.258C72.4519 65.3206 72.4519 63.8019 73.3884 62.8646C74.3254 61.9273 75.8446 61.9273 76.7816 62.8646Z" fill="#272727"/>
<path d="M85.6983 53.9485C86.6352 54.8845 86.6352 56.4031 85.6983 57.3405C84.7612 58.2765 83.2425 58.2765 82.3055 57.3405C81.3685 56.4031 81.3685 54.8845 82.3055 53.9485C83.2425 53.0112 84.7612 53.0112 85.6983 53.9485Z" fill="#272727"/>
<path d="M94.6155 45.0312C95.5525 45.9672 95.5525 47.4859 94.6155 48.4232C93.6785 49.3606 92.1593 49.3606 91.2227 48.4232C90.2858 47.4859 90.2858 45.9672 91.2227 45.0312C92.1593 44.0939 93.6785 44.0939 94.6155 45.0312Z" fill="#272727"/>
<path d="M103.532 36.1137C104.469 37.0497 104.469 38.5697 103.532 39.5057C102.595 40.4431 101.076 40.4431 100.139 39.5057C99.2023 38.5697 99.2023 37.0497 100.139 36.1137C101.076 35.1764 102.595 35.1764 103.532 36.1137Z" fill="#272727"/>
<path d="M112.449 27.1964C113.386 28.1338 113.386 29.6524 112.449 30.5897C111.512 31.5271 109.994 31.5271 109.056 30.5897C108.12 29.6524 108.12 28.1338 109.056 27.1964C109.994 26.2604 111.512 26.2604 112.449 27.1964Z" fill="#272727"/>
<path d="M121.366 18.2791C122.303 19.2165 122.303 20.7365 121.366 21.6725C120.429 22.6098 118.91 22.6098 117.973 21.6725C117.036 20.7365 117.036 19.2165 117.973 18.2791C118.91 17.3431 120.429 17.3431 121.366 18.2791Z" fill="#272727"/>
<path d="M130.283 9.36326C131.22 10.3006 131.22 11.8193 130.283 12.7553C129.346 13.6926 127.827 13.6926 126.89 12.7553C125.954 11.8193 125.954 10.3006 126.89 9.36326C127.827 8.42593 129.346 8.42593 130.283 9.36326Z" fill="#272727"/>
<path d="M31.9399 125.027C32.8769 125.963 32.8769 127.483 31.9399 128.419C31.0035 129.356 29.4841 129.356 28.5472 128.419C27.6107 127.483 27.6107 125.963 28.5472 125.027C29.4841 124.09 31.0035 124.09 31.9399 125.027Z" fill="#272727"/>
<path d="M40.8571 116.11C41.794 117.047 41.794 118.566 40.8571 119.503C39.9201 120.439 38.4013 120.439 37.4644 119.503C36.5273 118.566 36.5273 117.047 37.4644 116.11C38.4013 115.173 39.9201 115.173 40.8571 116.11Z" fill="#272727"/>
<path d="M49.7737 107.192C50.7106 108.13 50.7106 109.649 49.7737 110.586C48.8373 111.522 47.318 111.522 46.3816 110.586C45.4445 109.649 45.4445 108.13 46.3816 107.192C47.318 106.256 48.8373 106.256 49.7737 107.192Z" fill="#272727"/>
<path d="M58.6909 98.2763C59.6279 99.2123 59.6279 100.731 58.6909 101.668C57.754 102.606 56.2352 102.606 55.2983 101.668C54.3612 100.731 54.3612 99.2123 55.2983 98.2763C56.2352 97.339 57.754 97.339 58.6909 98.2763Z" fill="#272727"/>
<path d="M67.6081 89.3591C68.5445 90.2951 68.5445 91.8151 67.6081 92.7511C66.6712 93.6884 65.1518 93.6884 64.2154 92.7511C63.2784 91.8151 63.2784 90.2951 64.2154 89.3591C65.1518 88.4218 66.6712 88.4218 67.6081 89.3591Z" fill="#272727"/>
<path d="M76.5248 80.4418C77.4617 81.3791 77.4617 82.8978 76.5248 83.8351C75.5879 84.7724 74.0691 84.7724 73.1321 83.8351C72.1951 82.8978 72.1951 81.3791 73.1321 80.4418C74.0691 79.5058 75.5879 79.5058 76.5248 80.4418Z" fill="#272727"/>
<path d="M85.4419 71.5246C86.3788 72.4619 86.3788 73.9818 85.4419 74.9178C84.505 75.8552 82.9862 75.8552 82.0492 74.9178C81.1122 73.9818 81.1122 72.4619 82.0492 71.5246C82.9862 70.5886 84.505 70.5886 85.4419 71.5246Z" fill="#272727"/>
<path d="M94.3587 62.6084C95.2956 63.5444 95.2956 65.0644 94.3587 66.0004C93.4217 66.9377 91.9029 66.9377 90.966 66.0004C90.0289 65.0644 90.0289 63.5444 90.966 62.6084C91.9029 61.671 93.4217 61.671 94.3587 62.6084Z" fill="#272727"/>
<path d="M103.276 53.6911C104.213 54.6285 104.213 56.1471 103.276 57.0831C102.339 58.0205 100.82 58.0205 99.8831 57.0831C98.9462 56.1471 98.9462 54.6285 99.8831 53.6911C100.82 52.7538 102.339 52.7538 103.276 53.6911Z" fill="#272727"/>
<path d="M112.192 44.7738C113.129 45.7111 113.129 47.2298 112.192 48.1671C111.256 49.1045 109.737 49.1045 108.8 48.1671C107.863 47.2298 107.863 45.7111 108.8 44.7738C109.737 43.8378 111.256 43.8378 112.192 44.7738Z" fill="#272727"/>
<path d="M121.11 35.8579C122.047 36.7939 122.047 38.3125 121.11 39.2499C120.173 40.1872 118.654 40.1872 117.717 39.2499C116.78 38.3125 116.78 36.7939 117.717 35.8579C118.654 34.9206 120.173 34.9206 121.11 35.8579Z" fill="#272727"/>
<path d="M130.027 26.9405C130.963 27.8765 130.963 29.3966 130.027 30.3339C129.09 31.2699 127.571 31.2699 126.634 30.3339C125.697 29.3966 125.697 27.8765 126.634 26.9405C127.571 26.0032 129.09 26.0032 130.027 26.9405Z" fill="#272727"/>
<path d="M138.944 18.023C139.881 18.9604 139.881 20.4791 138.944 21.4164C138.007 22.3524 136.488 22.3524 135.551 21.4164C134.614 20.4791 134.614 18.9604 135.551 18.023C136.488 17.0857 138.007 17.0857 138.944 18.023Z" fill="#272727"/>
<path d="M147.86 9.10579C148.797 10.0431 148.797 11.5618 147.86 12.4991C146.924 13.4365 145.404 13.4365 144.468 12.4991C143.531 11.5618 143.531 10.0431 144.468 9.10579C145.404 8.16979 146.924 8.16979 147.86 9.10579Z" fill="#272727"/>
<path d="M40.6008 133.687C41.5379 134.624 41.5379 136.143 40.6008 137.08C39.6639 138.016 38.1445 138.016 37.2081 137.08C36.2712 136.143 36.2712 134.624 37.2081 133.687C38.1445 132.75 39.6639 132.75 40.6008 133.687Z" fill="#272727"/>
<path d="M49.5175 124.77C50.4546 125.707 50.4546 127.226 49.5175 128.163C48.5806 129.101 47.0618 129.101 46.1248 128.163C45.1879 127.226 45.1879 125.707 46.1248 124.77C47.0618 123.834 48.5806 123.834 49.5175 124.77Z" fill="#272727"/>
<path d="M58.4347 115.854C59.3717 116.79 59.3717 118.31 58.4347 119.246C57.4977 120.183 55.9784 120.183 55.042 119.246C54.1051 118.31 54.1051 116.79 55.042 115.854C55.9784 114.916 57.4977 114.916 58.4347 115.854Z" fill="#272727"/>
<path d="M67.3513 106.937C68.2884 107.874 68.2884 109.392 67.3513 110.328C66.4149 111.266 64.8956 111.266 63.9587 110.328C63.0217 109.392 63.0217 107.874 63.9587 106.937C64.8956 105.999 66.4149 105.999 67.3513 106.937Z" fill="#272727"/>
<path d="M76.2686 98.0192C77.2055 98.9565 77.2055 100.475 76.2686 101.413C75.3316 102.349 73.8123 102.349 72.8759 101.413C71.9388 100.475 71.9388 98.9565 72.8759 98.0192C73.8123 97.0832 75.3316 97.0832 76.2686 98.0192Z" fill="#272727"/>
<path d="M85.1858 89.1033C86.1222 90.0393 86.1222 91.5579 85.1858 92.4952C84.2489 93.4326 82.7296 93.4326 81.7926 92.4952C80.8556 91.5579 80.8556 90.0393 81.7926 89.1033C82.7296 88.1659 84.2489 88.1659 85.1858 89.1033Z" fill="#272727"/>
<path d="M94.1023 80.1858C95.0392 81.1218 95.0392 82.6418 94.1023 83.5778C93.1654 84.5151 91.6466 84.5151 90.7096 83.5778C89.7726 82.6418 89.7726 81.1218 90.7096 80.1858C91.6466 79.2484 93.1654 79.2484 94.1023 80.1858Z" fill="#272727"/>
<path d="M103.02 71.2684C103.956 72.2057 103.956 73.7244 103.02 74.6618C102.083 75.5978 100.563 75.5978 99.6264 74.6618C98.6893 73.7244 98.6893 72.2057 99.6264 71.2684C100.563 70.3311 102.083 70.3311 103.02 71.2684Z" fill="#272727"/>
<path d="M111.936 62.3512C112.873 63.2885 112.873 64.8072 111.936 65.7445C110.999 66.6818 109.481 66.6818 108.544 65.7445C107.607 64.8072 107.607 63.2885 108.544 62.3512C109.481 61.4152 110.999 61.4152 111.936 62.3512Z" fill="#272727"/>
<path d="M120.853 53.4352C121.79 54.3725 121.79 55.8913 120.853 56.8273C119.916 57.7646 118.397 57.7646 117.46 56.8273C116.524 55.8913 116.524 54.3725 117.46 53.4352C118.397 52.4979 119.916 52.4979 120.853 53.4352Z" fill="#272727"/>
<path d="M129.77 44.5178C130.707 45.4551 130.707 46.9738 129.77 47.9098C128.833 48.8471 127.314 48.8471 126.377 47.9098C125.44 46.9738 125.44 45.4551 126.377 44.5178C127.314 43.5805 128.833 43.5805 129.77 44.5178Z" fill="#272727"/>
<path d="M138.687 35.6004C139.624 36.5378 139.624 38.0564 138.687 38.9938C137.75 39.9311 136.231 39.9311 135.294 38.9938C134.358 38.0564 134.358 36.5378 135.294 35.6004C136.231 34.6644 137.75 34.6644 138.687 35.6004Z" fill="#272727"/>
<path d="M147.604 26.6832C148.541 27.6206 148.541 29.1392 147.604 30.0765C146.667 31.0139 145.148 31.0139 144.211 30.0765C143.275 29.1392 143.275 27.6206 144.211 26.6832C145.148 25.7472 146.667 25.7472 147.604 26.6832Z" fill="#272727"/>
<path d="M156.521 17.7672C157.457 18.7032 157.457 20.2232 156.521 21.1605C155.584 22.0965 154.065 22.0965 153.128 21.1605C152.191 20.2232 152.191 18.7032 153.128 17.7672C154.065 16.8299 155.584 16.8299 156.521 17.7672Z" fill="#272727"/>
<path d="M165.437 8.84977C166.375 9.78711 166.375 11.3057 165.437 12.2431C164.501 13.1791 162.983 13.1791 162.045 12.2431C161.108 11.3057 161.108 9.78711 162.045 8.84977C162.983 7.91244 164.501 7.91244 165.437 8.84977Z" fill="#272727"/>
<path d="M49.2612 142.347C50.1983 143.285 50.1983 144.803 49.2612 145.741C48.3243 146.678 46.8051 146.678 45.8685 145.741C44.9316 144.803 44.9316 143.285 45.8685 142.347C46.8051 141.411 48.3243 141.411 49.2612 142.347Z" fill="#272727"/>
<path d="M58.1779 133.431C59.115 134.367 59.115 135.887 58.1779 136.825C57.2415 137.761 55.7222 137.761 54.7852 136.825C53.8483 135.887 53.8483 134.367 54.7852 133.431C55.7222 132.494 57.2415 132.494 58.1779 133.431Z" fill="#272727"/>
<path d="M67.0951 124.514C68.0321 125.45 68.0321 126.97 67.0951 127.907C66.1581 128.843 64.6393 128.843 63.7024 127.907C62.7655 126.97 62.7655 125.45 63.7024 124.514C64.6393 123.576 66.1581 123.576 67.0951 124.514Z" fill="#272727"/>
<path d="M76.0117 115.597C76.9488 116.534 76.9488 118.053 76.0117 118.99C75.0753 119.927 73.556 119.927 72.6191 118.99C71.6821 118.053 71.6821 116.534 72.6191 115.597C73.556 114.661 75.0753 114.661 76.0117 115.597Z" fill="#272727"/>
<path d="M84.9289 106.681C85.8659 107.617 85.8659 109.137 84.9289 110.073C83.9919 111.01 82.4731 111.01 81.5362 110.073C80.5993 109.137 80.5993 107.617 81.5362 106.681C82.4731 105.743 83.9919 105.743 84.9289 106.681Z" fill="#272727"/>
<path d="M93.8456 97.7632C94.7826 98.7005 94.7826 100.219 93.8456 101.155C92.9092 102.092 91.3898 102.092 90.4529 101.155C89.5164 100.219 89.5164 98.7005 90.4529 97.7632C91.3898 96.8258 92.9092 96.8258 93.8456 97.7632Z" fill="#272727"/>
<path d="M102.763 88.8458C103.7 89.7831 103.7 91.3018 102.763 92.2391C101.826 93.1765 100.307 93.1765 99.37 92.2391C98.433 91.3018 98.433 89.7831 99.37 88.8458C100.307 87.9098 101.826 87.9098 102.763 88.8458Z" fill="#272727"/>
<path d="M111.68 79.9285C112.616 80.8659 112.616 82.3846 111.68 83.3219C110.743 84.2592 109.224 84.2592 108.287 83.3219C107.35 82.3846 107.35 80.8659 108.287 79.9285C109.224 78.9925 110.743 78.9925 111.68 79.9285Z" fill="#272727"/>
<path d="M120.597 71.0126C121.534 71.9486 121.534 73.4686 120.597 74.4059C119.66 75.3419 118.141 75.3419 117.204 74.4059C116.267 73.4686 116.267 71.9486 117.204 71.0126C118.141 70.0752 119.66 70.0752 120.597 71.0126Z" fill="#272727"/>
<path d="M129.514 62.0953C130.451 63.0326 130.451 64.5513 129.514 65.4887C128.577 66.4247 127.058 66.4247 126.121 65.4887C125.184 64.5513 125.184 63.0326 126.121 62.0953C127.058 61.158 128.577 61.158 129.514 62.0953Z" fill="#272727"/>
<path d="M138.43 53.1779C139.367 54.1152 139.367 55.6339 138.43 56.5712C137.493 57.5072 135.975 57.5072 135.038 56.5712C134.101 55.6339 134.101 54.1152 135.038 53.1779C135.975 52.2419 137.493 52.2419 138.43 53.1779Z" fill="#272727"/>
<path d="M147.348 44.2617C148.284 45.1977 148.284 46.7164 147.348 47.6537C146.411 48.591 144.892 48.591 143.955 47.6537C143.017 46.7164 143.017 45.1977 143.955 44.2617C144.892 43.3244 146.411 43.3244 147.348 44.2617Z" fill="#272727"/>
<path d="M156.264 35.3445C157.201 36.2818 157.201 37.8005 156.264 38.7365C155.328 39.6738 153.808 39.6738 152.872 38.7365C151.935 37.8005 151.935 36.2818 152.872 35.3445C153.808 34.4071 155.328 34.4071 156.264 35.3445Z" fill="#272727"/>
<path d="M165.181 26.4271C166.119 27.3645 166.119 28.8831 165.181 29.8204C164.245 30.7578 162.725 30.7578 161.789 29.8204C160.852 28.8831 160.852 27.3645 161.789 26.4271C162.725 25.4911 164.245 25.4911 165.181 26.4271Z" fill="#272727"/>
<path d="M174.099 17.5098C175.035 18.4472 175.035 19.9659 174.099 20.9032C173.161 21.8405 171.643 21.8405 170.705 20.9032C169.769 19.9659 169.769 18.4472 170.705 17.5098C171.643 16.5738 173.161 16.5738 174.099 17.5098Z" fill="#272727"/>
<path d="M183.016 8.59373C183.952 9.52973 183.952 11.0497 183.016 11.9857C182.079 12.9231 180.56 12.9231 179.623 11.9857C178.685 11.0497 178.685 9.52973 179.623 8.59373C180.56 7.6564 182.079 7.6564 183.016 8.59373Z" fill="#272727"/>
<path d="M57.9217 151.008C58.8587 151.944 58.8587 153.464 57.9217 154.402C56.9847 155.338 55.466 155.338 54.5289 154.402C53.592 153.464 53.592 151.944 54.5289 151.008C55.466 150.071 56.9847 150.071 57.9217 151.008Z" fill="#272727"/>
<path d="M66.8388 142.091C67.7753 143.029 67.7753 144.547 66.8388 145.485C65.9019 146.421 64.3827 146.421 63.4456 145.485C62.5092 144.547 62.5092 143.029 63.4456 142.091C64.3827 141.155 65.9019 141.155 66.8388 142.091Z" fill="#272727"/>
<path d="M75.7555 133.174C76.6926 134.111 76.6926 135.63 75.7555 136.567C74.8186 137.505 73.2998 137.505 72.3629 136.567C71.4259 135.63 71.4259 134.111 72.3629 133.174C73.2998 132.238 74.8186 132.238 75.7555 133.174Z" fill="#272727"/>
<path d="M84.6727 124.258C85.6097 125.194 85.6097 126.714 84.6727 127.65C83.7357 128.587 82.2164 128.587 81.2794 127.65C80.343 126.714 80.343 125.194 81.2794 124.258C82.2164 123.32 83.7357 123.32 84.6727 124.258Z" fill="#272727"/>
<path d="M93.5893 115.34C94.5263 116.278 94.5263 117.796 93.5893 118.734C92.6523 119.67 91.1335 119.67 90.1966 118.734C89.2597 117.796 89.2597 116.278 90.1966 115.34C91.1335 114.403 92.6523 114.403 93.5893 115.34Z" fill="#272727"/>
<path d="M102.506 106.423C103.444 107.361 103.444 108.879 102.506 109.817C101.57 110.753 100.05 110.753 99.1138 109.817C98.1769 108.879 98.1769 107.361 99.1138 106.423C100.05 105.486 101.57 105.486 102.506 106.423Z" fill="#272727"/>
<path d="M111.423 97.5072C112.36 98.4432 112.36 99.962 111.423 100.899C110.487 101.837 108.968 101.837 108.031 100.899C107.094 99.962 107.094 98.4432 108.031 97.5072C108.968 96.5699 110.487 96.5699 111.423 97.5072Z" fill="#272727"/>
<path d="M120.34 88.5898C121.277 89.5272 121.277 91.0458 120.34 91.9818C119.403 92.9191 117.884 92.9191 116.948 91.9818C116.011 91.0458 116.011 89.5272 116.948 88.5898C117.884 87.6525 119.403 87.6525 120.34 88.5898Z" fill="#272727"/>
<path d="M129.257 79.6724C130.194 80.6098 130.194 82.1285 129.257 83.0658C128.321 84.0031 126.801 84.0031 125.864 83.0658C124.927 82.1285 124.927 80.6098 125.864 79.6724C126.801 78.7364 128.321 78.7364 129.257 79.6724Z" fill="#272727"/>
<path d="M138.174 70.7553C139.111 71.6926 139.111 73.2112 138.174 74.1486C137.237 75.0859 135.718 75.0859 134.782 74.1486C133.845 73.2112 133.845 71.6926 134.782 70.7553C135.718 69.8193 137.237 69.8193 138.174 70.7553Z" fill="#272727"/>
<path d="M147.091 61.8391C148.028 62.7751 148.028 64.2951 147.091 65.2311C146.155 66.1684 144.635 66.1684 143.699 65.2311C142.761 64.2951 142.761 62.7751 143.699 61.8391C144.635 60.9018 146.155 60.9018 147.091 61.8391Z" fill="#272727"/>
<path d="M156.008 52.9218C156.945 53.8591 156.945 55.3778 156.008 56.3151C155.071 57.2511 153.552 57.2511 152.615 56.3151C151.679 55.3778 151.679 53.8591 152.615 52.9218C153.552 51.9845 155.071 51.9845 156.008 52.9218Z" fill="#272727"/>
<path d="M164.925 44.0045C165.861 44.9418 165.861 46.4605 164.925 47.3979C163.988 48.3339 162.469 48.3339 161.532 47.3979C160.596 46.4605 160.596 44.9418 161.532 44.0045C162.469 43.0672 163.988 43.0672 164.925 44.0045Z" fill="#272727"/>
<path d="M173.841 35.0886C174.779 36.0246 174.779 37.5433 173.841 38.4806C172.905 39.4179 171.387 39.4179 170.449 38.4806C169.512 37.5433 169.512 36.0246 170.449 35.0886C171.387 34.1513 172.905 34.1513 173.841 35.0886Z" fill="#272727"/>
<path d="M182.759 26.1712C183.696 27.1072 183.696 28.6273 182.759 29.5646C181.823 30.5006 180.303 30.5006 179.367 29.5646C178.429 28.6273 178.429 27.1072 179.367 26.1712C180.303 25.2339 181.823 25.2339 182.759 26.1712Z" fill="#272727"/>
<path d="M191.676 17.2538C192.613 18.1911 192.613 19.7098 191.676 20.6471C190.739 21.5831 189.22 21.5831 188.283 20.6471C187.347 19.7098 187.347 18.1911 188.283 17.2538C189.22 16.3164 190.739 16.3164 191.676 17.2538Z" fill="#272727"/>
<path d="M200.593 8.3365C201.529 9.27384 201.529 10.7939 200.593 11.7299C199.656 12.6672 198.137 12.6672 197.2 11.7299C196.263 10.7939 196.263 9.27384 197.2 8.3365C198.137 7.4005 199.656 7.4005 200.593 8.3365Z" fill="#272727"/>
<path d="M66.5821 159.669C67.5191 160.606 67.5191 162.125 66.5821 163.062C65.6451 163.998 64.1264 163.998 63.1893 163.062C62.2524 162.125 62.2524 160.606 63.1893 159.669C64.1264 158.733 65.6451 158.733 66.5821 159.669Z" fill="#272727"/>
<path d="M75.4993 150.752C76.4363 151.688 76.4363 153.207 75.4993 154.144C74.5623 155.082 73.0431 155.082 72.106 154.144C71.1696 153.207 71.1696 151.688 72.106 150.752C73.0431 149.815 74.5623 149.815 75.4993 150.752Z" fill="#272727"/>
<path d="M84.4161 141.835C85.353 142.773 85.353 144.291 84.4161 145.227C83.479 146.165 81.9603 146.165 81.0233 145.227C80.0863 144.291 80.0863 142.773 81.0233 141.835C81.9603 140.898 83.479 140.898 84.4161 141.835Z" fill="#272727"/>
<path d="M93.3332 132.918C94.2702 133.855 94.2702 135.374 93.3332 136.311C92.3962 137.248 90.877 137.248 89.9405 136.311C89.0036 135.374 89.0036 133.855 89.9405 132.918C90.877 131.982 92.3962 131.982 93.3332 132.918Z" fill="#272727"/>
<path d="M102.25 124.001C103.187 124.938 103.187 126.457 102.25 127.394C101.313 128.331 99.7939 128.331 98.857 127.394C97.9201 126.457 97.9201 124.938 98.857 124.001C99.7939 123.065 101.313 123.065 102.25 124.001Z" fill="#272727"/>
<path d="M111.167 115.083C112.104 116.02 112.104 117.54 111.167 118.476C110.23 119.414 108.711 119.414 107.774 118.476C106.837 117.54 106.837 116.02 107.774 115.083C108.711 114.147 110.23 114.147 111.167 115.083Z" fill="#272727"/>
<path d="M120.084 106.167C121.021 107.104 121.021 108.623 120.084 109.56C119.147 110.496 117.628 110.496 116.691 109.56C115.754 108.623 115.754 107.104 116.691 106.167C117.628 105.23 119.147 105.23 120.084 106.167Z" fill="#272727"/>
<path d="M129.001 97.2499C129.938 98.1873 129.938 99.7059 129.001 100.643C128.064 101.579 126.545 101.579 125.608 100.643C124.671 99.7059 124.671 98.1873 125.608 97.2499C126.545 96.3126 128.064 96.3126 129.001 97.2499Z" fill="#272727"/>
<path d="M137.917 88.334C138.855 89.27 138.855 90.7886 137.917 91.726C136.981 92.6633 135.462 92.6633 134.525 91.726C133.588 90.7886 133.588 89.27 134.525 88.334C135.462 87.3966 136.981 87.3966 137.917 88.334Z" fill="#272727"/>
<path d="M146.835 79.4165C147.772 80.3525 147.772 81.8725 146.835 82.8085C145.897 83.7458 144.379 83.7458 143.441 82.8085C142.505 81.8725 142.505 80.3525 143.441 79.4165C144.379 78.4791 145.897 78.4791 146.835 79.4165Z" fill="#272727"/>
<path d="M155.752 70.4992C156.688 71.4365 156.688 72.9551 155.752 73.8925C154.815 74.8285 153.296 74.8285 152.359 73.8925C151.421 72.9551 151.421 71.4365 152.359 70.4992C153.296 69.5619 154.815 69.5619 155.752 70.4992Z" fill="#272727"/>
<path d="M164.668 61.5819C165.605 62.5192 165.605 64.0379 164.668 64.9752C163.732 65.9126 162.212 65.9126 161.276 64.9752C160.339 64.0379 160.339 62.5192 161.276 61.5819C162.212 60.6459 163.732 60.6459 164.668 61.5819Z" fill="#272727"/>
<path d="M173.585 52.666C174.523 53.6033 174.523 55.122 173.585 56.058C172.648 56.9953 171.129 56.9953 170.193 56.058C169.256 55.122 169.256 53.6033 170.193 52.666C171.129 51.7287 172.648 51.7287 173.585 52.666Z" fill="#272727"/>
<path d="M182.503 43.7485C183.44 44.6858 183.44 46.2045 182.503 47.1405C181.565 48.0778 180.047 48.0778 179.109 47.1405C178.173 46.2045 178.173 44.6858 179.109 43.7485C180.047 42.8112 181.565 42.8112 182.503 43.7485Z" fill="#272727"/>
<path d="M191.42 34.8312C192.356 35.7685 192.356 37.2872 191.42 38.2245C190.483 39.1605 188.964 39.1605 188.027 38.2245C187.089 37.2872 187.089 35.7685 188.027 34.8312C188.964 33.8952 190.483 33.8952 191.42 34.8312Z" fill="#272727"/>
<path d="M200.336 25.915C201.273 26.851 201.273 28.3697 200.336 29.307C199.4 30.2443 197.88 30.2443 196.944 29.307C196.007 28.3697 196.007 26.851 196.944 25.915C197.88 24.9777 199.4 24.9777 200.336 25.915Z" fill="#272727"/>
<path d="M209.253 16.9978C210.191 17.9338 210.191 19.4538 209.253 20.3898C208.316 21.3271 206.797 21.3271 205.86 20.3898C204.924 19.4538 204.924 17.9338 205.86 16.9978C206.797 16.0604 208.316 16.0604 209.253 16.9978Z" fill="#272727"/>
<path d="M75.2425 168.33C76.1794 169.266 76.1794 170.786 75.2425 171.722C74.3054 172.659 72.7867 172.659 71.8497 171.722C70.9127 170.786 70.9127 169.266 71.8497 168.33C72.7867 167.392 74.3054 167.392 75.2425 168.33Z" fill="#272727"/>
<path d="M84.1597 159.412C85.0966 160.35 85.0966 161.868 84.1597 162.806C83.2226 163.742 81.704 163.742 80.7669 162.806C79.83 161.868 79.83 160.35 80.7669 159.412C81.704 158.475 83.2226 158.475 84.1597 159.412Z" fill="#272727"/>
<path d="M93.0763 150.495C94.0132 151.433 94.0132 152.951 93.0763 153.889C92.1392 154.826 90.6206 154.826 89.6835 153.889C88.7471 152.951 88.7471 151.433 89.6835 150.495C90.6206 149.558 92.1392 149.558 93.0763 150.495Z" fill="#272727"/>
<path d="M101.994 141.579C102.931 142.515 102.931 144.034 101.994 144.971C101.057 145.908 99.538 145.908 98.6009 144.971C97.664 144.034 97.664 142.515 98.6009 141.579C99.538 140.642 101.057 140.642 101.994 141.579Z" fill="#272727"/>
<path d="M110.91 132.662C111.847 133.598 111.847 135.117 110.91 136.054C109.974 136.991 108.455 136.991 107.517 136.054C106.581 135.117 106.581 133.598 107.517 132.662C108.455 131.725 109.974 131.725 110.91 132.662Z" fill="#272727"/>
<path d="M119.827 123.745C120.764 124.682 120.764 126.201 119.827 127.138C118.89 128.074 117.372 128.074 116.435 127.138C115.498 126.201 115.498 124.682 116.435 123.745C117.372 122.807 118.89 122.807 119.827 123.745Z" fill="#272727"/>
<path d="M128.744 114.827C129.681 115.765 129.681 117.283 128.744 118.221C127.807 119.158 126.288 119.158 125.351 118.221C124.415 117.283 124.415 115.765 125.351 114.827C126.288 113.891 127.807 113.891 128.744 114.827Z" fill="#272727"/>
<path d="M137.661 105.91C138.598 106.847 138.598 108.367 137.661 109.303C136.724 110.24 135.206 110.24 134.269 109.303C133.332 108.367 133.332 106.847 134.269 105.91C135.206 104.974 136.724 104.974 137.661 105.91Z" fill="#272727"/>
<path d="M146.579 96.9939C147.515 97.9312 147.515 99.4499 146.579 100.386C145.641 101.323 144.123 101.323 143.185 100.386C142.248 99.4499 142.248 97.9312 143.185 96.9939C144.123 96.0565 145.641 96.0565 146.579 96.9939Z" fill="#272727"/>
<path d="M155.495 88.0765C156.432 89.0138 156.432 90.5325 155.495 91.4699C154.559 92.4059 153.04 92.4059 152.103 91.4699C151.165 90.5325 151.165 89.0138 152.103 88.0765C153.04 87.1392 154.559 87.1392 155.495 88.0765Z" fill="#272727"/>
<path d="M164.412 79.1606C165.349 80.0966 165.349 81.6153 164.412 82.5526C163.475 83.4899 161.956 83.4899 161.019 82.5526C160.083 81.6153 160.083 80.0966 161.019 79.1606C161.956 78.2233 163.475 78.2233 164.412 79.1606Z" fill="#272727"/>
<path d="M173.329 70.2433C174.265 71.1793 174.265 72.6993 173.329 73.6366C172.392 74.5726 170.873 74.5726 169.936 73.6366C169 72.6993 169 71.1793 169.936 70.2433C170.873 69.3059 172.392 69.3059 173.329 70.2433Z" fill="#272727"/>
<path d="M182.247 61.3258C183.183 62.2618 183.183 63.7818 182.247 64.7191C181.309 65.6551 179.791 65.6551 178.853 64.7191C177.916 63.7818 177.916 62.2618 178.853 61.3258C179.791 60.3885 181.309 60.3885 182.247 61.3258Z" fill="#272727"/>
<path d="M191.163 52.4086C192.1 53.3459 192.1 54.8645 191.163 55.8019C190.227 56.7392 188.707 56.7392 187.771 55.8019C186.833 54.8645 186.833 53.3459 187.771 52.4086C188.707 51.4726 190.227 51.4726 191.163 52.4086Z" fill="#272727"/>
<path d="M200.08 43.4924C201.017 44.4284 201.017 45.9484 200.08 46.8844C199.143 47.8217 197.624 47.8217 196.687 46.8844C195.751 45.9484 195.751 44.4284 196.687 43.4924C197.624 42.5551 199.143 42.5551 200.08 43.4924Z" fill="#272727"/>
<path d="M208.997 34.5752C209.933 35.5125 209.933 37.0312 208.997 37.9672C208.06 38.9045 206.541 38.9045 205.604 37.9672C204.667 37.0312 204.667 35.5125 205.604 34.5752C206.541 33.6378 208.06 33.6378 208.997 34.5752Z" fill="#272727"/>
<path d="M217.913 25.6579C218.851 26.5952 218.851 28.1138 217.913 29.0512C216.977 29.9885 215.457 29.9885 214.521 29.0512C213.584 28.1138 213.584 26.5952 214.521 25.6579C215.457 24.7219 216.977 24.7219 217.913 25.6579Z" fill="#272727"/>
<path d="M83.9034 176.99C84.8398 177.927 84.8398 179.446 83.9034 180.383C82.9663 181.319 81.4471 181.319 80.5102 180.383C79.5731 179.446 79.5731 177.927 80.5102 176.99C81.4471 176.053 82.9663 176.053 83.9034 176.99Z" fill="#272727"/>
<path d="M92.8201 168.072C93.757 169.01 93.757 170.528 92.8201 171.466C91.883 172.402 90.3644 172.402 89.4273 171.466C88.4904 170.528 88.4904 169.01 89.4273 168.072C90.3644 167.136 91.883 167.136 92.8201 168.072Z" fill="#272727"/>
<path d="M101.737 159.156C102.674 160.092 102.674 161.611 101.737 162.548C100.8 163.486 99.2811 163.486 98.3441 162.548C97.4071 161.611 97.4071 160.092 98.3441 159.156C99.2811 158.219 100.8 158.219 101.737 159.156Z" fill="#272727"/>
<path d="M110.654 150.239C111.591 151.177 111.591 152.695 110.654 153.631C109.717 154.569 108.198 154.569 107.261 153.631C106.324 152.695 106.324 151.177 107.261 150.239C108.198 149.302 109.717 149.302 110.654 150.239Z" fill="#272727"/>
<path d="M119.571 141.322C120.508 142.259 120.508 143.778 119.571 144.715C118.634 145.651 117.115 145.651 116.178 144.715C115.241 143.778 115.241 142.259 116.178 141.322C117.115 140.385 118.634 140.385 119.571 141.322Z" fill="#272727"/>
<path d="M128.488 132.406C129.425 133.342 129.425 134.86 128.488 135.798C127.551 136.735 126.032 136.735 125.095 135.798C124.158 134.86 124.158 133.342 125.095 132.406C126.032 131.468 127.551 131.468 128.488 132.406Z" fill="#272727"/>
<path d="M137.405 123.489C138.342 124.425 138.342 125.943 137.405 126.88C136.468 127.818 134.949 127.818 134.012 126.88C133.075 125.943 133.075 124.425 134.012 123.489C134.949 122.551 136.468 122.551 137.405 123.489Z" fill="#272727"/>
<path d="M146.321 114.571C147.259 115.508 147.259 117.027 146.321 117.965C145.385 118.901 143.865 118.901 142.929 117.965C141.992 117.027 141.992 115.508 142.929 114.571C143.865 113.634 145.385 113.634 146.321 114.571Z" fill="#272727"/>
<path d="M155.239 105.654C156.176 106.591 156.176 108.11 155.239 109.047C154.301 109.983 152.783 109.983 151.845 109.047C150.909 108.11 150.909 106.591 151.845 105.654C152.783 104.717 154.301 104.717 155.239 105.654Z" fill="#272727"/>
<path d="M164.156 96.7377C165.092 97.6737 165.092 99.1938 164.156 100.13C163.219 101.067 161.7 101.067 160.763 100.13C159.825 99.1938 159.825 97.6737 160.763 96.7377C161.7 95.8004 163.219 95.8004 164.156 96.7377Z" fill="#272727"/>
<path d="M173.072 87.8205C174.009 88.7579 174.009 90.2765 173.072 91.2125C172.136 92.1499 170.617 92.1499 169.68 91.2125C168.743 90.2765 168.743 88.7579 169.68 87.8205C170.617 86.8832 172.136 86.8832 173.072 87.8205Z" fill="#272727"/>
<path d="M181.989 78.9033C182.927 79.8406 182.927 81.3593 181.989 82.2953C181.052 83.2326 179.533 83.2326 178.597 82.2953C177.66 81.3593 177.66 79.8406 178.597 78.9033C179.533 77.9673 181.052 77.9673 181.989 78.9033Z" fill="#272727"/>
<path d="M190.907 69.986C191.844 70.9233 191.844 72.4419 190.907 73.3793C189.969 74.3166 188.451 74.3166 187.513 73.3793C186.577 72.4419 186.577 70.9233 187.513 69.986C188.451 69.05 189.969 69.05 190.907 69.986Z" fill="#272727"/>
<path d="M199.824 61.0698C200.76 62.0058 200.76 63.5258 199.824 64.4618C198.887 65.3991 197.368 65.3991 196.431 64.4618C195.493 63.5258 195.493 62.0058 196.431 61.0698C197.368 60.1325 198.887 60.1325 199.824 61.0698Z" fill="#272727"/>
<path d="M208.74 52.1525C209.677 53.0898 209.677 54.6085 208.74 55.5458C207.804 56.4818 206.284 56.4818 205.348 55.5458C204.411 54.6085 204.411 53.0898 205.348 52.1525C206.284 51.2152 207.804 51.2152 208.74 52.1525Z" fill="#272727"/>
<path d="M217.657 43.2352C218.595 44.1725 218.595 45.6912 217.657 46.6286C216.72 47.5646 215.201 47.5646 214.264 46.6286C213.328 45.6912 213.328 44.1725 214.264 43.2352C215.201 42.2979 216.72 42.2979 217.657 43.2352Z" fill="#272727"/>
<path d="M226.575 34.3193C227.511 35.2553 227.511 36.774 226.575 37.7113C225.637 38.6486 224.119 38.6486 223.181 37.7113C222.244 36.774 222.244 35.2553 223.181 34.3193C224.119 33.382 225.637 33.382 226.575 34.3193Z" fill="#272727"/>
<path d="M92.5639 185.65C93.5003 186.587 93.5003 188.106 92.5639 189.043C91.6269 189.98 90.1076 189.98 89.1707 189.043C88.2341 188.106 88.2341 186.587 89.1707 185.65C90.1076 184.714 91.6269 184.714 92.5639 185.65Z" fill="#272727"/>
<path d="M101.48 176.734C102.417 177.67 102.417 179.19 101.48 180.126C100.544 181.063 99.0247 181.063 98.0878 180.126C97.1507 179.19 97.1507 177.67 98.0878 176.734C99.0247 175.797 100.544 175.797 101.48 176.734Z" fill="#272727"/>
<path d="M110.398 167.817C111.334 168.754 111.334 170.273 110.398 171.21C109.461 172.146 107.941 172.146 107.005 171.21C106.068 170.273 106.068 168.754 107.005 167.817C107.941 166.879 109.461 166.879 110.398 167.817Z" fill="#272727"/>
<path d="M119.314 158.899C120.251 159.836 120.251 161.355 119.314 162.292C118.377 163.23 116.859 163.23 115.922 162.292C114.985 161.355 114.985 159.836 115.922 158.899C116.859 157.963 118.377 157.963 119.314 158.899Z" fill="#272727"/>
<path d="M128.231 149.982C129.168 150.919 129.168 152.438 128.231 153.375C127.294 154.312 125.776 154.312 124.839 153.375C123.902 152.438 123.902 150.919 124.839 149.982C125.776 149.046 127.294 149.046 128.231 149.982Z" fill="#272727"/>
<path d="M137.148 141.066C138.085 142.002 138.085 143.522 137.148 144.458C136.211 145.395 134.693 145.395 133.755 144.458C132.819 143.522 132.819 142.002 133.755 141.066C134.693 140.129 136.211 140.129 137.148 141.066Z" fill="#272727"/>
<path d="M146.065 132.149C147.003 133.086 147.003 134.605 146.065 135.542C145.128 136.478 143.609 136.478 142.672 135.542C141.736 134.605 141.736 133.086 142.672 132.149C143.609 131.211 145.128 131.211 146.065 132.149Z" fill="#272727"/>
<path d="M154.983 123.231C155.919 124.168 155.919 125.687 154.983 126.624C154.045 127.562 152.527 127.562 151.589 126.624C150.652 125.687 150.652 124.168 151.589 123.231C152.527 122.295 154.045 122.295 154.983 123.231Z" fill="#272727"/>
<path d="M163.899 114.315C164.836 115.251 164.836 116.771 163.899 117.707C162.963 118.644 161.443 118.644 160.507 117.707C159.569 116.771 159.569 115.251 160.507 114.315C161.443 113.378 162.963 113.378 163.899 114.315Z" fill="#272727"/>
<path d="M172.816 105.398C173.753 106.334 173.753 107.854 172.816 108.791C171.879 109.727 170.36 109.727 169.424 108.791C168.487 107.854 168.487 106.334 169.424 105.398C170.36 104.46 171.879 104.46 172.816 105.398Z" fill="#272727"/>
<path d="M181.733 96.4806C182.669 97.418 182.669 98.9366 181.733 99.8739C180.796 100.81 179.277 100.81 178.34 99.8739C177.404 98.9366 177.404 97.418 178.34 96.4806C179.277 95.5433 180.796 95.5433 181.733 96.4806Z" fill="#272727"/>
<path d="M190.651 87.5644C191.587 88.5004 191.587 90.0191 190.651 90.9564C189.713 91.8938 188.195 91.8938 187.257 90.9564C186.32 90.0191 186.32 88.5004 187.257 87.5644C188.195 86.6271 189.713 86.6271 190.651 87.5644Z" fill="#272727"/>
<path d="M199.567 78.6472C200.504 79.5832 200.504 81.1032 199.567 82.0392C198.631 82.9765 197.111 82.9765 196.175 82.0392C195.237 81.1032 195.237 79.5832 196.175 78.6472C197.111 77.7099 198.631 77.7099 199.567 78.6472Z" fill="#272727"/>
<path d="M208.484 69.7299C209.421 70.6672 209.421 72.1858 208.484 73.1232C207.547 74.0605 206.028 74.0605 205.091 73.1232C204.155 72.1858 204.155 70.6672 205.091 69.7299C206.028 68.7939 207.547 68.7939 208.484 69.7299Z" fill="#272727"/>
<path d="M217.401 60.8126C218.337 61.7499 218.337 63.2686 217.401 64.2059C216.464 65.1433 214.945 65.1433 214.008 64.2059C213.072 63.2686 213.072 61.7499 214.008 60.8126C214.945 59.8766 216.464 59.8766 217.401 60.8126Z" fill="#272727"/>
<path d="M226.317 51.8951C227.255 52.8324 227.255 54.3525 226.317 55.2885C225.381 56.2258 223.861 56.2258 222.925 55.2885C221.988 54.3525 221.988 52.8324 222.925 51.8951C223.861 50.9591 225.381 50.9591 226.317 51.8951Z" fill="#272727"/>
<path d="M235.235 42.9791C236.172 43.9164 236.172 45.4351 235.235 46.3725C234.299 47.3085 232.779 47.3085 231.843 46.3725C230.905 45.4351 230.905 43.9164 231.843 42.9791C232.779 42.0418 234.299 42.0418 235.235 42.9791Z" fill="#272727"/>
<path d="M101.224 194.311C102.161 195.247 102.161 196.767 101.224 197.703C100.287 198.641 98.7681 198.641 97.8317 197.703C96.8946 196.767 96.8946 195.247 97.8317 194.311C98.7681 193.374 100.287 193.374 101.224 194.311Z" fill="#272727"/>
<path d="M110.141 185.394C111.078 186.331 111.078 187.85 110.141 188.787C109.204 189.723 107.685 189.723 106.748 188.787C105.811 187.85 105.811 186.331 106.748 185.394C107.685 184.456 109.204 184.456 110.141 185.394Z" fill="#272727"/>
<path d="M119.058 176.476C119.995 177.414 119.995 178.932 119.058 179.87C118.121 180.807 116.602 180.807 115.665 179.87C114.728 178.932 114.728 177.414 115.665 176.476C116.602 175.54 118.121 175.54 119.058 176.476Z" fill="#272727"/>
<path d="M127.975 167.561C128.912 168.497 128.912 170.015 127.975 170.953C127.038 171.89 125.519 171.89 124.582 170.953C123.645 170.015 123.645 168.497 124.582 167.561C125.519 166.623 127.038 166.623 127.975 167.561Z" fill="#272727"/>
<path d="M136.892 158.643C137.829 159.58 137.829 161.099 136.892 162.035C135.955 162.972 134.436 162.972 133.499 162.035C132.562 161.099 132.562 159.58 133.499 158.643C134.436 157.706 135.955 157.706 136.892 158.643Z" fill="#272727"/>
<path d="M145.809 149.726C146.745 150.663 146.745 152.182 145.809 153.119C144.872 154.055 143.353 154.055 142.416 153.119C141.479 152.182 141.479 150.663 142.416 149.726C143.353 148.79 144.872 148.79 145.809 149.726Z" fill="#272727"/>
<path d="M154.725 140.81C155.663 141.746 155.663 143.264 154.725 144.202C153.789 145.139 152.269 145.139 151.333 144.202C150.396 143.264 150.396 141.746 151.333 140.81C152.269 139.872 153.789 139.872 154.725 140.81Z" fill="#272727"/>
<path d="M163.643 131.893C164.58 132.829 164.58 134.349 163.643 135.285C162.705 136.222 161.187 136.222 160.249 135.285C159.313 134.349 159.313 132.829 160.249 131.893C161.187 130.955 162.705 130.955 163.643 131.893Z" fill="#272727"/>
<path d="M172.56 122.975C173.496 123.912 173.496 125.431 172.56 126.367C171.623 127.304 170.104 127.304 169.167 126.367C168.231 125.431 168.231 123.912 169.167 122.975C170.104 122.039 171.623 122.039 172.56 122.975Z" fill="#272727"/>
<path d="M181.477 114.058C182.413 114.995 182.413 116.514 181.477 117.451C180.54 118.388 179.021 118.388 178.084 117.451C177.147 116.514 177.147 114.995 178.084 114.058C179.021 113.122 180.54 113.122 181.477 114.058Z" fill="#272727"/>
<path d="M190.393 105.14C191.331 106.078 191.331 107.598 190.393 108.534C189.457 109.471 187.937 109.471 187.001 108.534C186.064 107.598 186.064 106.078 187.001 105.14C187.937 104.204 189.457 104.204 190.393 105.14Z" fill="#272727"/>
<path d="M199.311 96.2246C200.248 97.1619 200.248 98.6806 199.311 99.6166C198.373 100.554 196.855 100.554 195.917 99.6166C194.981 98.6806 194.981 97.1619 195.917 96.2246C196.855 95.2873 198.373 95.2873 199.311 96.2246Z" fill="#272727"/>
<path d="M208.228 87.3072C209.164 88.2446 209.164 89.7633 208.228 90.7006C207.291 91.6366 205.772 91.6366 204.835 90.7006C203.897 89.7633 203.897 88.2446 204.835 87.3072C205.772 86.3699 207.291 86.3699 208.228 87.3072Z" fill="#272727"/>
<path d="M217.144 78.3911C218.081 79.3271 218.081 80.8458 217.144 81.7831C216.208 82.7204 214.689 82.7204 213.752 81.7831C212.815 80.8458 212.815 79.3271 213.752 78.3911C214.689 77.4538 216.208 77.4538 217.144 78.3911Z" fill="#272727"/>
<path d="M226.061 69.4738C226.999 70.4098 226.999 71.9285 226.061 72.8658C225.124 73.8032 223.605 73.8032 222.669 72.8658C221.732 71.9285 221.732 70.4098 222.669 69.4738C223.605 68.5365 225.124 68.5365 226.061 69.4738Z" fill="#272727"/>
<path d="M234.979 60.5565C235.915 61.4938 235.915 63.0125 234.979 63.9499C234.041 64.8859 232.523 64.8859 231.585 63.9499C230.649 63.0125 230.649 61.4938 231.585 60.5565C232.523 59.6192 234.041 59.6192 234.979 60.5565Z" fill="#272727"/>
<path d="M243.895 51.6392C244.832 52.5766 244.832 54.0953 243.895 55.0326C242.959 55.9699 241.44 55.9699 240.503 55.0326C239.565 54.0953 239.565 52.5766 240.503 51.6392C241.44 50.7032 242.959 50.7032 243.895 51.6392Z" fill="#272727"/>
<path d="M109.885 202.971C110.822 203.908 110.822 205.427 109.885 206.364C108.948 207.3 107.429 207.3 106.492 206.364C105.555 205.427 105.555 203.908 106.492 202.971C107.429 202.034 108.948 202.034 109.885 202.971Z" fill="#272727"/>
<path d="M118.801 194.054C119.738 194.991 119.738 196.51 118.801 197.447C117.865 198.384 116.346 198.384 115.409 197.447C114.472 196.51 114.472 194.991 115.409 194.054C116.346 193.118 117.865 193.118 118.801 194.054Z" fill="#272727"/>
<path d="M127.719 185.138C128.655 186.074 128.655 187.594 127.719 188.53C126.782 189.467 125.263 189.467 124.326 188.53C123.389 187.594 123.389 186.074 124.326 185.138C125.263 184.201 126.782 184.201 127.719 185.138Z" fill="#272727"/>
<path d="M136.636 176.221C137.572 177.158 137.572 178.677 136.636 179.614C135.699 180.55 134.179 180.55 133.242 179.614C132.306 178.677 132.306 177.158 133.242 176.221C134.179 175.283 135.699 175.283 136.636 176.221Z" fill="#272727"/>
<path d="M145.552 167.303C146.489 168.24 146.489 169.759 145.552 170.696C144.616 171.632 143.096 171.632 142.16 170.696C141.223 169.759 141.223 168.24 142.16 167.303C143.096 166.367 144.616 166.367 145.552 167.303Z" fill="#272727"/>
<path d="M154.469 158.386C155.407 159.323 155.407 160.843 154.469 161.779C153.532 162.717 152.013 162.717 151.077 161.779C150.14 160.843 150.14 159.323 151.077 158.386C152.013 157.45 153.532 157.45 154.469 158.386Z" fill="#272727"/>
<path d="M163.387 149.47C164.323 150.406 164.323 151.926 163.387 152.862C162.449 153.799 160.931 153.799 159.993 152.862C159.056 151.926 159.056 150.406 159.993 149.47C160.931 148.532 162.449 148.532 163.387 149.47Z" fill="#272727"/>
<path d="M172.303 140.552C173.24 141.49 173.24 143.008 172.303 143.946C171.367 144.882 169.848 144.882 168.911 143.946C167.973 143.008 167.973 141.49 168.911 140.552C169.848 139.615 171.367 139.615 172.303 140.552Z" fill="#272727"/>
<path d="M181.22 131.636C182.157 132.572 182.157 134.091 181.22 135.028C180.283 135.966 178.764 135.966 177.828 135.028C176.891 134.091 176.891 132.572 177.828 131.636C178.764 130.699 180.283 130.699 181.22 131.636Z" fill="#272727"/>
<path d="M190.137 122.719C191.075 123.655 191.075 125.174 190.137 126.111C189.2 127.049 187.681 127.049 186.744 126.111C185.808 125.174 185.808 123.655 186.744 122.719C187.681 121.782 189.2 121.782 190.137 122.719Z" fill="#272727"/>
<path d="M199.055 113.802C199.991 114.739 199.991 116.258 199.055 117.195C198.117 118.131 196.599 118.131 195.661 117.195C194.724 116.258 194.724 114.739 195.661 113.802C196.599 112.865 198.117 112.865 199.055 113.802Z" fill="#272727"/>
<path d="M207.971 104.884C208.908 105.822 208.908 107.34 207.971 108.278C207.035 109.215 205.515 109.215 204.579 108.278C203.641 107.34 203.641 105.822 204.579 104.884C205.515 103.948 207.035 103.948 207.971 104.884Z" fill="#272727"/>
<path d="M216.888 95.9671C217.825 96.9045 217.825 98.4245 216.888 99.3605C215.951 100.298 214.432 100.298 213.495 99.3605C212.559 98.4245 212.559 96.9045 213.495 95.9671C214.432 95.0311 215.951 95.0311 216.888 95.9671Z" fill="#272727"/>
<path d="M225.805 87.0512C226.741 87.9886 226.741 89.5072 225.805 90.4432C224.868 91.3806 223.349 91.3806 222.412 90.4432C221.475 89.5072 221.475 87.9886 222.412 87.0512C223.349 86.1139 224.868 86.1139 225.805 87.0512Z" fill="#272727"/>
<path d="M234.721 78.1339C235.659 79.0712 235.659 80.5899 234.721 81.5272C233.785 82.4632 232.267 82.4632 231.329 81.5272C230.392 80.5899 230.392 79.0712 231.329 78.1339C232.267 77.1979 233.785 77.1979 234.721 78.1339Z" fill="#272727"/>
<path d="M243.639 69.2164C244.576 70.1538 244.576 71.6724 243.639 72.6097C242.701 73.5471 241.183 73.5471 240.247 72.6097C239.309 71.6724 239.309 70.1538 240.247 69.2164C241.183 68.2804 242.701 68.2804 243.639 69.2164Z" fill="#272727"/>
<path d="M252.556 60.3005C253.493 61.2365 253.493 62.7552 252.556 63.6925C251.619 64.6298 250.1 64.6298 249.163 63.6925C248.227 62.7552 248.227 61.2365 249.163 60.3005C250.1 59.3632 251.619 59.3632 252.556 60.3005Z" fill="#272727"/>
<path d="M118.545 211.633C119.482 212.569 119.482 214.087 118.545 215.025C117.608 215.962 116.089 215.962 115.152 215.025C114.215 214.087 114.215 212.569 115.152 211.633C116.089 210.695 117.608 210.695 118.545 211.633Z" fill="#272727"/>
<path d="M127.462 202.715C128.399 203.651 128.399 205.171 127.462 206.107C126.525 207.045 125.006 207.045 124.07 206.107C123.133 205.171 123.133 203.651 124.07 202.715C125.006 201.778 126.525 201.778 127.462 202.715Z" fill="#272727"/>
<path d="M136.379 193.798C137.316 194.735 137.316 196.254 136.379 197.191C135.442 198.127 133.923 198.127 132.986 197.191C132.049 196.254 132.049 194.735 132.986 193.798C133.923 192.86 135.442 192.86 136.379 193.798Z" fill="#272727"/>
<path d="M145.296 184.88C146.233 185.818 146.233 187.336 145.296 188.274C144.359 189.211 142.84 189.211 141.903 188.274C140.966 187.336 140.966 185.818 141.903 184.88C142.84 183.944 144.359 183.944 145.296 184.88Z" fill="#272727"/>
<path d="M154.213 175.965C155.149 176.901 155.149 178.421 154.213 179.357C153.276 180.294 151.757 180.294 150.82 179.357C149.883 178.421 149.883 176.901 150.82 175.965C151.757 175.027 153.276 175.027 154.213 175.965Z" fill="#272727"/>
<path d="M163.129 167.047C164.067 167.984 164.067 169.503 163.129 170.439C162.193 171.376 160.673 171.376 159.737 170.439C158.8 169.503 158.8 167.984 159.737 167.047C160.673 166.11 162.193 166.11 163.129 167.047Z" fill="#272727"/>
<path d="M172.047 158.13C172.984 159.067 172.984 160.586 172.047 161.523C171.109 162.459 169.591 162.459 168.653 161.523C167.717 160.586 167.717 159.067 168.653 158.13C169.591 157.194 171.109 157.194 172.047 158.13Z" fill="#272727"/>
<path d="M180.964 149.214C181.9 150.15 181.9 151.669 180.964 152.606C180.027 153.543 178.508 153.543 177.571 152.606C176.635 151.669 176.635 150.15 177.571 149.214C178.508 148.277 180.027 148.277 180.964 149.214Z" fill="#272727"/>
<path d="M189.881 140.296C190.817 141.232 190.817 142.752 189.881 143.688C188.944 144.626 187.425 144.626 186.488 143.688C185.551 142.752 185.551 141.232 186.488 140.296C187.425 139.359 188.944 139.359 189.881 140.296Z" fill="#272727"/>
<path d="M198.797 131.379C199.735 132.316 199.735 133.835 198.797 134.772C197.861 135.708 196.341 135.708 195.405 134.772C194.468 133.835 194.468 132.316 195.405 131.379C196.341 130.442 197.861 130.442 198.797 131.379Z" fill="#272727"/>
<path d="M207.715 122.462C208.652 123.399 208.652 124.918 207.715 125.855C206.777 126.792 205.259 126.792 204.321 125.855C203.385 124.918 203.385 123.399 204.321 122.462C205.259 121.526 206.777 121.526 207.715 122.462Z" fill="#272727"/>
<path d="M216.632 113.546C217.568 114.482 217.568 116.001 216.632 116.938C215.695 117.875 214.176 117.875 213.239 116.938C212.301 116.001 212.301 114.482 213.239 113.546C214.176 112.609 215.695 112.609 216.632 113.546Z" fill="#272727"/>
<path d="M225.548 104.629C226.485 105.565 226.485 107.085 225.548 108.022C224.612 108.958 223.092 108.958 222.156 108.022C221.219 107.085 221.219 105.565 222.156 104.629C223.092 103.691 224.612 103.691 225.548 104.629Z" fill="#272727"/>
<path d="M234.465 95.7111C235.403 96.6484 235.403 98.1671 234.465 99.1044C233.528 100.04 232.009 100.04 231.072 99.1044C230.136 98.1671 230.136 96.6484 231.072 95.7111C232.009 94.7738 233.528 94.7738 234.465 95.7111Z" fill="#272727"/>
<path d="M243.383 86.7938C244.319 87.7312 244.319 89.2498 243.383 90.1871C242.445 91.1245 240.927 91.1245 239.989 90.1871C239.053 89.2498 239.053 87.7312 239.989 86.7938C240.927 85.8578 242.445 85.8578 243.383 86.7938Z" fill="#272727"/>
<path d="M252.3 77.8779C253.236 78.8152 253.236 80.3339 252.3 81.2699C251.363 82.2072 249.844 82.2072 248.907 81.2699C247.969 80.3339 247.969 78.8152 248.907 77.8779C249.844 76.9406 251.363 76.9406 252.3 77.8779Z" fill="#272727"/>
<path d="M261.216 68.9606C262.153 69.8979 262.153 71.4166 261.216 72.3539C260.28 73.2899 258.76 73.2899 257.824 72.3539C256.887 71.4166 256.887 69.8979 257.824 68.9606C258.76 68.0233 260.28 68.0233 261.216 68.9606Z" fill="#272727"/>
<path d="M127.205 220.292C128.143 221.23 128.143 222.748 127.205 223.684C126.269 224.622 124.75 224.622 123.813 223.684C122.876 222.748 122.876 221.23 123.813 220.292C124.75 219.355 126.269 219.355 127.205 220.292Z" fill="#272727"/>
<path d="M136.123 211.375C137.06 212.312 137.06 213.831 136.123 214.768C135.186 215.704 133.666 215.704 132.73 214.768C131.793 213.831 131.793 212.312 132.73 211.375C133.666 210.439 135.186 210.439 136.123 211.375Z" fill="#272727"/>
<path d="M145.04 202.458C145.976 203.395 145.976 204.914 145.04 205.851C144.103 206.789 142.584 206.789 141.647 205.851C140.71 204.914 140.71 203.395 141.647 202.458C142.584 201.522 144.103 201.522 145.04 202.458Z" fill="#272727"/>
<path d="M153.956 193.542C154.893 194.478 154.893 195.998 153.956 196.934C153.02 197.871 151.5 197.871 150.564 196.934C149.627 195.998 149.627 194.478 150.564 193.542C151.5 192.605 153.02 192.605 153.956 193.542Z" fill="#272727"/>
<path d="M162.873 184.624C163.811 185.562 163.811 187.08 162.873 188.018C161.936 188.954 160.417 188.954 159.48 188.018C158.544 187.08 158.544 185.562 159.48 184.624C160.417 183.687 161.936 183.687 162.873 184.624Z" fill="#272727"/>
<path d="M171.791 175.707C172.727 176.644 172.727 178.163 171.791 179.1C170.853 180.038 169.335 180.038 168.397 179.1C167.46 178.163 167.46 176.644 168.397 175.707C169.335 174.771 170.853 174.771 171.791 175.707Z" fill="#272727"/>
<path d="M180.707 166.791C181.644 167.727 181.644 169.247 180.707 170.183C179.771 171.121 178.252 171.121 177.315 170.183C176.377 169.247 176.377 167.727 177.315 166.791C178.252 165.854 179.771 165.854 180.707 166.791Z" fill="#272727"/>
<path d="M189.624 157.874C190.561 158.81 190.561 160.33 189.624 161.267C188.688 162.203 187.168 162.203 186.232 161.267C185.295 160.33 185.295 158.81 186.232 157.874C187.168 156.937 188.688 156.937 189.624 157.874Z" fill="#272727"/>
<path d="M198.541 148.956C199.479 149.894 199.479 151.412 198.541 152.35C197.604 153.286 196.085 153.286 195.148 152.35C194.212 151.412 194.212 149.894 195.148 148.956C196.085 148.019 197.604 148.019 198.541 148.956Z" fill="#272727"/>
<path d="M207.459 140.039C208.395 140.977 208.395 142.495 207.459 143.432C206.521 144.37 205.003 144.37 204.065 143.432C203.128 142.495 203.128 140.977 204.065 140.039C205.003 139.103 206.521 139.103 207.459 140.039Z" fill="#272727"/>
<path d="M216.375 131.123C217.312 132.061 217.312 133.579 216.375 134.515C215.439 135.453 213.919 135.453 212.983 134.515C212.045 133.579 212.045 132.061 212.983 131.123C213.919 130.186 215.439 130.186 216.375 131.123Z" fill="#272727"/>
<path d="M225.292 122.206C226.229 123.143 226.229 124.662 225.292 125.598C224.355 126.535 222.836 126.535 221.899 125.598C220.963 124.662 220.963 123.143 221.899 122.206C222.836 121.268 224.355 121.268 225.292 122.206Z" fill="#272727"/>
<path d="M234.209 113.288C235.147 114.226 235.147 115.744 234.209 116.682C233.272 117.619 231.753 117.619 230.816 116.682C229.879 115.744 229.879 114.226 230.816 113.288C231.753 112.352 233.272 112.352 234.209 113.288Z" fill="#272727"/>
<path d="M243.125 104.373C244.063 105.309 244.063 106.827 243.125 107.765C242.189 108.702 240.671 108.702 239.733 107.765C238.796 106.827 238.796 105.309 239.733 104.373C240.671 103.435 242.189 103.435 243.125 104.373Z" fill="#272727"/>
<path d="M252.043 95.4552C252.98 96.3912 252.98 97.9112 252.043 98.8485C251.107 99.7845 249.587 99.7845 248.651 98.8485C247.713 97.9112 247.713 96.3912 248.651 95.4552C249.587 94.5179 251.107 94.5179 252.043 95.4552Z" fill="#272727"/>
<path d="M260.96 86.5377C261.897 87.475 261.897 88.9937 260.96 89.9311C260.023 90.8671 258.504 90.8671 257.567 89.9311C256.631 88.9937 256.631 87.475 257.567 86.5377C258.504 85.6004 260.023 85.6004 260.96 86.5377Z" fill="#272727"/>
<path d="M269.877 77.6205C270.813 78.5578 270.813 80.0765 269.877 81.0138C268.94 81.9498 267.421 81.9498 266.484 81.0138C265.547 80.0765 265.547 78.5578 266.484 77.6205C267.421 76.6845 268.94 76.6845 269.877 77.6205Z" fill="#272727"/>
<path d="M135.866 228.952C136.803 229.89 136.803 231.409 135.866 232.346C134.929 233.282 133.41 233.282 132.473 232.346C131.536 231.409 131.536 229.89 132.473 228.952C133.41 228.016 134.929 228.016 135.866 228.952Z" fill="#272727"/>
<path d="M144.783 220.035C145.72 220.973 145.72 222.491 144.783 223.429C143.847 224.366 142.327 224.366 141.391 223.429C140.453 222.491 140.453 220.973 141.391 220.035C142.327 219.099 143.847 219.099 144.783 220.035Z" fill="#272727"/>
<path d="M153.7 211.119C154.637 212.055 154.637 213.575 153.7 214.511C152.763 215.448 151.244 215.448 150.307 214.511C149.371 213.575 149.371 212.055 150.307 211.119C151.244 210.182 152.763 210.182 153.7 211.119Z" fill="#272727"/>
<path d="M162.617 202.202C163.553 203.139 163.553 204.658 162.617 205.595C161.68 206.531 160.161 206.531 159.224 205.595C158.287 204.658 158.287 203.139 159.224 202.202C160.161 201.264 161.68 201.264 162.617 202.202Z" fill="#272727"/>
<path d="M171.533 193.285C172.471 194.222 172.471 195.741 171.533 196.678C170.597 197.615 169.079 197.615 168.141 196.678C167.204 195.741 167.204 194.222 168.141 193.285C169.079 192.349 170.597 192.349 171.533 193.285Z" fill="#272727"/>
<path d="M180.451 184.369C181.388 185.305 181.388 186.825 180.451 187.761C179.515 188.698 177.995 188.698 177.059 187.761C176.121 186.825 176.121 185.305 177.059 184.369C177.995 183.431 179.515 183.431 180.451 184.369Z" fill="#272727"/>
<path d="M189.368 175.451C190.305 176.389 190.305 177.907 189.368 178.845C188.431 179.781 186.912 179.781 185.975 178.845C185.039 177.907 185.039 176.389 185.975 175.451C186.912 174.514 188.431 174.514 189.368 175.451Z" fill="#272727"/>
<path d="M198.285 166.534C199.221 167.471 199.221 168.99 198.285 169.927C197.348 170.864 195.829 170.864 194.892 169.927C193.955 168.99 193.955 167.471 194.892 166.534C195.829 165.598 197.348 165.598 198.285 166.534Z" fill="#272727"/>
<path d="M207.201 157.618C208.139 158.554 208.139 160.073 207.201 161.01C206.265 161.947 204.745 161.947 203.809 161.01C202.872 160.073 202.872 158.554 203.809 157.618C204.745 156.681 206.265 156.681 207.201 157.618Z" fill="#272727"/>
<path d="M216.119 148.7C217.056 149.638 217.056 151.156 216.119 152.092C215.181 153.03 213.663 153.03 212.725 152.092C211.789 151.156 211.789 149.638 212.725 148.7C213.663 147.763 215.181 147.763 216.119 148.7Z" fill="#272727"/>
<path d="M225.036 139.783C225.972 140.72 225.972 142.239 225.036 143.176C224.099 144.112 222.58 144.112 221.643 143.176C220.707 142.239 220.707 140.72 221.643 139.783C222.58 138.846 224.099 138.846 225.036 139.783Z" fill="#272727"/>
<path d="M233.952 130.866C234.889 131.803 234.889 133.322 233.952 134.259C233.016 135.196 231.497 135.196 230.56 134.259C229.623 133.322 229.623 131.803 230.56 130.866C231.497 129.93 233.016 129.93 233.952 130.866Z" fill="#272727"/>
<path d="M242.869 121.95C243.807 122.886 243.807 124.406 242.869 125.342C241.932 126.279 240.413 126.279 239.477 125.342C238.54 124.406 238.54 122.886 239.477 121.95C240.413 121.013 241.932 121.013 242.869 121.95Z" fill="#272727"/>
<path d="M251.787 113.033C252.724 113.97 252.724 115.489 251.787 116.426C250.849 117.362 249.331 117.362 248.393 116.426C247.457 115.489 247.457 113.97 248.393 113.033C249.331 112.095 250.849 112.095 251.787 113.033Z" fill="#272727"/>
<path d="M260.704 104.115C261.64 105.052 261.64 106.571 260.704 107.508C259.767 108.446 258.248 108.446 257.311 107.508C256.373 106.571 256.373 105.052 257.311 104.115C258.248 103.179 259.767 103.179 260.704 104.115Z" fill="#272727"/>
<path d="M269.62 95.1978C270.557 96.1352 270.557 97.6552 269.62 98.5912C268.684 99.5285 267.164 99.5285 266.228 98.5912C265.291 97.6552 265.291 96.1352 266.228 95.1978C267.164 94.2618 268.684 94.2618 269.62 95.1978Z" fill="#272727"/>
<path d="M278.537 86.2817C279.475 87.2177 279.475 88.7377 278.537 89.6737C277.6 90.611 276.081 90.611 275.144 89.6737C274.208 88.7377 274.208 87.2177 275.144 86.2817C276.081 85.3444 277.6 85.3444 278.537 86.2817Z" fill="#272727"/>
<path d="M144.527 237.614C145.464 238.55 145.464 240.07 144.527 241.006C143.589 241.943 142.071 241.943 141.133 241.006C140.197 240.07 140.197 238.55 141.133 237.614C142.071 236.676 143.589 236.676 144.527 237.614Z" fill="#272727"/>
<path d="M153.444 228.696C154.38 229.634 154.38 231.152 153.444 232.09C152.507 233.026 150.988 233.026 150.051 232.09C149.113 231.152 149.113 229.634 150.051 228.696C150.988 227.759 152.507 227.759 153.444 228.696Z" fill="#272727"/>
<path d="M162.36 219.779C163.297 220.717 163.297 222.235 162.36 223.173C161.424 224.109 159.904 224.109 158.968 223.173C158.031 222.235 158.031 220.717 158.968 219.779C159.904 218.842 161.424 218.842 162.36 219.779Z" fill="#272727"/>
<path d="M171.277 210.862C172.215 211.799 172.215 213.318 171.277 214.255C170.34 215.193 168.821 215.193 167.884 214.255C166.948 213.318 166.948 211.799 167.884 210.862C168.821 209.926 170.34 209.926 171.277 210.862Z" fill="#272727"/>
<path d="M180.195 201.946C181.132 202.882 181.132 204.402 180.195 205.338C179.257 206.275 177.739 206.275 176.801 205.338C175.865 204.402 175.865 202.882 176.801 201.946C177.739 201.008 179.257 201.008 180.195 201.946Z" fill="#272727"/>
<path d="M189.112 193.028C190.048 193.966 190.048 195.484 189.112 196.422C188.175 197.358 186.656 197.358 185.719 196.422C184.781 195.484 184.781 193.966 185.719 193.028C186.656 192.091 188.175 192.091 189.112 193.028Z" fill="#272727"/>
<path d="M198.028 184.111C198.965 185.049 198.965 186.567 198.028 187.505C197.092 188.442 195.572 188.442 194.636 187.505C193.699 186.567 193.699 185.049 194.636 184.111C195.572 183.175 197.092 183.175 198.028 184.111Z" fill="#272727"/>
<path d="M206.945 175.195C207.883 176.131 207.883 177.65 206.945 178.587C206.008 179.525 204.489 179.525 203.552 178.587C202.616 177.65 202.616 176.131 203.552 175.195C204.489 174.258 206.008 174.258 206.945 175.195Z" fill="#272727"/>
<path d="M215.863 166.278C216.799 167.215 216.799 168.734 215.863 169.67C214.925 170.607 213.407 170.607 212.469 169.67C211.532 168.734 211.532 167.215 212.469 166.278C213.407 165.34 214.925 165.34 215.863 166.278Z" fill="#272727"/>
<path d="M224.779 157.36C225.716 158.298 225.716 159.816 224.779 160.754C223.843 161.691 222.323 161.691 221.387 160.754C220.449 159.816 220.449 158.298 221.387 157.36C222.323 156.423 223.843 156.423 224.779 157.36Z" fill="#272727"/>
<path d="M233.696 148.443C234.633 149.381 234.633 150.899 233.696 151.837C232.759 152.774 231.24 152.774 230.303 151.837C229.367 150.899 229.367 149.381 230.303 148.443C231.24 147.507 232.759 147.507 233.696 148.443Z" fill="#272727"/>
<path d="M242.613 139.527C243.549 140.463 243.549 141.983 242.613 142.919C241.676 143.856 240.157 143.856 239.22 142.919C238.284 141.983 238.284 140.463 239.22 139.527C240.157 138.59 241.676 138.59 242.613 139.527Z" fill="#272727"/>
<path d="M251.529 130.61C252.467 131.547 252.467 133.066 251.529 134.003C250.593 134.939 249.075 134.939 248.137 134.003C247.2 133.066 247.2 131.547 248.137 130.61C249.075 129.672 250.593 129.672 251.529 130.61Z" fill="#272727"/>
<path d="M260.447 121.692C261.384 122.63 261.384 124.149 260.447 125.086C259.511 126.022 257.991 126.022 257.055 125.086C256.117 124.149 256.117 122.63 257.055 121.692C257.991 120.756 259.511 120.756 260.447 121.692Z" fill="#272727"/>
<path d="M269.364 112.776C270.301 113.712 270.301 115.231 269.364 116.168C268.427 117.106 266.908 117.106 265.971 116.168C265.035 115.231 265.035 113.712 265.971 112.776C266.908 111.839 268.427 111.839 269.364 112.776Z" fill="#272727"/>
<path d="M278.281 103.859C279.217 104.795 279.217 106.315 278.281 107.251C277.344 108.188 275.825 108.188 274.888 107.251C273.951 106.315 273.951 104.795 274.888 103.859C275.825 102.922 277.344 102.922 278.281 103.859Z" fill="#272727"/>
<path d="M287.197 94.9418C288.135 95.8791 288.135 97.3978 287.197 98.3351C286.261 99.2724 284.741 99.2724 283.805 98.3351C282.868 97.3978 282.868 95.8791 283.805 94.9418C284.741 94.0058 286.261 94.0058 287.197 94.9418Z" fill="#272727"/>
</svg>
