<svg width="82" height="10" viewBox="0 0 82 10" fill="none" xmlns="http://www.w3.org/2000/svg">
<path d="M0.981323 3.33343C1.47732 3.32943 2.08398 3.55742 2.80398 4.05609C3.88265 4.79075 5.07865 6.05209 6.37065 7.19209C7.02265 7.76276 7.70665 8.30543 8.47465 8.73076C9.23732 9.1521 10.108 9.46143 11.068 9.46143C12.356 9.45743 13.456 8.9201 14.404 8.26943C15.828 7.2801 17.0493 5.95744 18.216 4.94277C18.7947 4.43477 19.3506 4.0081 19.8506 3.7321C20.356 3.45476 20.78 3.33343 21.156 3.33343C21.652 3.32943 22.2587 3.55742 22.9787 4.05609C24.0573 4.79075 25.2533 6.05209 26.5467 7.19209C27.1987 7.76276 27.8827 8.30543 28.6493 8.73076C29.412 9.1521 30.2827 9.46143 31.244 9.46143C32.5307 9.45743 33.6307 8.9201 34.5787 8.26943C36.004 7.2801 37.224 5.95744 38.3906 4.94277C38.9693 4.43477 39.5253 4.0081 40.0266 3.7321C40.5306 3.45476 40.9546 3.33343 41.3306 3.33343C41.8266 3.32943 42.4346 3.55742 43.1546 4.05609C44.2333 4.79075 45.428 6.05209 46.7213 7.19209C47.3733 7.76276 48.0573 8.30543 48.824 8.73076C49.588 9.1521 50.4573 9.46143 51.4186 9.46143C52.7066 9.45743 53.8053 8.9201 54.7546 8.26943C56.1786 7.2801 57.4 5.95744 58.5666 4.94277C59.144 4.43477 59.7 4.0081 60.2013 3.7321C60.7053 3.45476 61.1293 3.33343 61.5066 3.33343C62.0026 3.32943 62.6093 3.55742 63.3293 4.05609C64.408 4.79075 65.604 6.05209 66.896 7.19209C67.548 7.76276 68.2333 8.30543 69 8.73076C69.7626 9.1521 70.6333 9.46143 71.5933 9.46143C72.8813 9.45743 73.9813 8.9201 74.9293 8.26943C76.3533 7.2801 77.5746 5.95744 78.7413 4.94277C79.32 4.43477 79.876 4.0081 80.376 3.7321C80.8813 3.45476 81.3053 3.33343 81.6813 3.33343V0.666765C80.3947 0.670765 79.2946 1.20809 78.3453 1.86009C76.9213 2.84809 75.7013 4.17208 74.5346 5.18675C73.956 5.69475 73.4 6.12143 72.8986 6.39609C72.3946 6.67476 71.9706 6.79609 71.5933 6.79476C71.0973 6.80009 70.4906 6.57077 69.7706 6.07344C68.692 5.33877 67.496 4.0761 66.204 2.9361C65.552 2.36677 64.868 1.8241 64.1013 1.39876C63.3373 0.976097 62.4666 0.666765 61.5066 0.666765C60.2186 0.670765 59.1186 1.20809 58.1706 1.86009C56.7466 2.84809 55.5253 4.17208 54.3586 5.18675C53.7813 5.69475 53.224 6.12143 52.724 6.39609C52.22 6.67476 51.796 6.79609 51.4186 6.79476C50.9226 6.80009 50.316 6.57077 49.596 6.07344C48.5173 5.33877 47.3213 4.0761 46.028 2.9361C45.3773 2.36677 44.692 1.8241 43.9253 1.39876C43.1626 0.976097 42.292 0.666765 41.3306 0.666765C40.044 0.670765 38.944 1.20809 37.996 1.86009C36.572 2.84809 35.3506 4.17208 34.184 5.18675C33.6053 5.69475 33.0493 6.12143 32.548 6.39609C32.044 6.67476 31.62 6.79609 31.244 6.79476C30.748 6.80009 30.1413 6.57077 29.4213 6.07344C28.3426 5.33877 27.1466 4.0761 25.8533 2.9361C25.2013 2.36677 24.5173 1.8241 23.7506 1.39876C22.988 0.976097 22.1173 0.666765 21.156 0.666765C19.8693 0.670765 18.7693 1.20809 17.82 1.86009C16.396 2.84809 15.176 4.17208 14.0093 5.18675C13.4307 5.69475 12.8746 6.12143 12.3733 6.39609C11.8693 6.67476 11.4453 6.79609 11.068 6.79476C10.572 6.80009 9.96532 6.57077 9.24532 6.07344C8.16665 5.33877 6.97065 4.0761 5.67865 2.9361C5.02665 2.36677 4.34265 1.8241 3.57598 1.39876C2.81198 0.976097 1.94132 0.666765 0.981323 0.666765V3.33343Z" fill="#272727"/>
</svg>
